<svg id="eAV5wZqPnKE1" xmlns="http://www.w3.org/2000/svg" xmlns:xlink="http://www.w3.org/1999/xlink" viewBox="0 0 2026 788" shape-rendering="geometricPrecision" text-rendering="geometricPrecision" project-id="aa903fc3b96a4975af4d34cffd651d69" export-id="11dd7be135004ec089a9473c296dc32d" cached="false" style="background-color:transparent">
<style><![CDATA[
#eAV5wZqPnKE2_ts {animation: eAV5wZqPnKE2_ts__ts 20000ms linear infinite normal forwards}@keyframes eAV5wZqPnKE2_ts__ts { 0% {transform: translate(1052.571957px,401.020673px) scale(1,0)} 3% {transform: translate(1052.571957px,401.020673px) scale(1,0);animation-timing-function: cubic-bezier(0.333,0,0.585,1)} 26.335% {transform: translate(1052.571957px,401.020673px) scale(1,1)} 100% {transform: translate(1052.571957px,401.020673px) scale(1,1)}} #eAV5wZqPnKE2 {animation: eAV5wZqPnKE2_c_o 20000ms linear infinite normal forwards}@keyframes eAV5wZqPnKE2_c_o { 0% {opacity: 0} 2.95% {opacity: 0;animation-timing-function: step-end} 3% {opacity: 1;animation-timing-function: step-end} 100% {opacity: 0.03}} #eAV5wZqPnKE6 {animation: eAV5wZqPnKE6_c_o 20000ms linear infinite normal forwards}@keyframes eAV5wZqPnKE6_c_o { 0% {opacity: 0} 2.45% {opacity: 0;animation-timing-function: step-end} 2.5% {opacity: 1;animation-timing-function: step-end} 100% {opacity: 0.025}} #eAV5wZqPnKE71 {animation: eAV5wZqPnKE71_s_do 20000ms linear infinite normal forwards}@keyframes eAV5wZqPnKE71_s_do { 0% {stroke-dashoffset: 0} 12.5% {stroke-dashoffset: -1558.005135} 100% {stroke-dashoffset: -1558.005135}} #eAV5wZqPnKE73 {animation: eAV5wZqPnKE73_c_o 20000ms linear infinite normal forwards}@keyframes eAV5wZqPnKE73_c_o { 0% {opacity: 0} 7.165% {opacity: 0} 10.5% {opacity: 0.55;animation-timing-function: step-end} 100% {opacity: 0.197133}} #eAV5wZqPnKE76 {animation: eAV5wZqPnKE76_c_o 20000ms linear infinite normal forwards}@keyframes eAV5wZqPnKE76_c_o { 0% {opacity: 0} 7% {opacity: 0} 10.335% {opacity: 0.35;animation-timing-function: step-end} 100% {opacity: 0.1253}} #eAV5wZqPnKE79_ts {animation: eAV5wZqPnKE79_ts__ts 20000ms linear infinite normal forwards}@keyframes eAV5wZqPnKE79_ts__ts { 0% {transform: translate(152.25px,50px) scale(0,0)} 5% {transform: translate(152.25px,50px) scale(0,0)} 7.6% {transform: translate(152.25px,50px) scale(-1,1)} 100% {transform: translate(152.25px,50px) scale(-1,1)}} #eAV5wZqPnKE79 {animation: eAV5wZqPnKE79_c_o 20000ms linear infinite normal forwards}@keyframes eAV5wZqPnKE79_c_o { 0% {opacity: 0} 6.665% {opacity: 0} 10% {opacity: 0.1;animation-timing-function: step-end} 100% {opacity: 0.035714}} #eAV5wZqPnKE82_ts {animation: eAV5wZqPnKE82_ts__ts 20000ms linear infinite normal forwards}@keyframes eAV5wZqPnKE82_ts__ts { 0% {transform: translate(152.25px,50px) scale(0,0)} 4.8% {transform: translate(152.25px,50px) scale(0,0)} 7.6% {transform: translate(152.25px,50px) scale(-0.38,1)} 12.6% {transform: translate(152.25px,50px) scale(-0.77,1)} 18.2% {transform: translate(152.25px,50px) scale(-0.47,1)} 23.2% {transform: translate(152.25px,50px) scale(-0.25,1)} 25% {transform: translate(152.25px,50px) scale(-0.34428,1)} 27.4% {transform: translate(152.25px,50px) scale(-0.47,1)} 39% {transform: translate(152.25px,50px) scale(-0.69,1)} 42.8% {transform: translate(152.25px,50px) scale(-0.45,1)} 48.2% {transform: translate(152.25px,50px) scale(0,0)} 100% {transform: translate(152.25px,50px) scale(0,0)}} #eAV5wZqPnKE82 {animation: eAV5wZqPnKE82_c_o 20000ms linear infinite normal forwards}@keyframes eAV5wZqPnKE82_c_o { 0% {opacity: 0} 6.665% {opacity: 0} 10% {opacity: 0.4;animation-timing-function: step-end} 100% {opacity: 0.142857}}
]]></style>
<defs><linearGradient id="eAV5wZqPnKE3-fill" x1="-32.5" y1="-194.489" x2="-32.5" y2="323.388" spreadMethod="pad" gradientUnits="userSpaceOnUse" gradientTransform="translate(0 0)"><stop id="eAV5wZqPnKE3-fill-0" offset="0%" stop-color="#00c85d"/><stop id="eAV5wZqPnKE3-fill-1" offset="50%" stop-color="rgba(0,109,124,0.5)"/><stop id="eAV5wZqPnKE3-fill-2" offset="100%" stop-color="rgba(0,18,156,0)"/></linearGradient><linearGradient id="eAV5wZqPnKE5-stroke" x1="-995.5" y1="-246" x2="999.79" y2="-817.863" spreadMethod="pad" gradientUnits="userSpaceOnUse" gradientTransform="translate(0 0)"><stop id="eAV5wZqPnKE5-stroke-0" offset="0%" stop-color="#ffe600"/><stop id="eAV5wZqPnKE5-stroke-1" offset="50%" stop-color="#968a1c"/><stop id="eAV5wZqPnKE5-stroke-2" offset="100%" stop-color="#2e2e38"/></linearGradient></defs><g id="eAV5wZqPnKE2_ts" transform="translate(1052.571957,401.020673) scale(1,0)"><g id="eAV5wZqPnKE2" transform="translate(0,0)" opacity="0"><path d="M-907.719,230.184c66.919,0,66.919-307.816,133.837-307.816c66.919,0,66.919,69.958,133.838,69.958c66.918,0,66.918,181.892,133.836,181.892c66.92,0,66.92-209.875,133.839-209.875s66.919,237.858,133.834,237.858c66.919,0,66.919-139.916,133.839-139.916c66.919,0,66.919-55.967,133.836-55.967c66.92,0,66.92,265.841,133.84,265.841s66.92,97.942,133.83,97.942c66.92,0,66.92-517.691,133.84-517.691s66.92,279.833,133.84,279.833s66.92,167.899,133.84,167.899s66.91-363.782,133.83-363.782c0,0,0,433.741,0,433.741s-535.35,0-535.35,0-1204.529,0-1204.529,0s0-139.917,0-139.917Z" fill="url(#eAV5wZqPnKE3-fill)" stroke-width="0"/></g></g><g transform="translate(1013 394)"><path d="M-977.937,-295.46c0,0,1955.437,0,1955.437,0c9.25,0,16.74,7.496,16.74,16.742c0,0,0,585.436,0,585.436c0,9.246-7.49,16.742-16.74,16.742c0,0-1955.437,0-1955.437,0-9.247,0-16.742-7.496-16.742-16.742c0,0,0-585.436,0-585.436c0-9.246,7.495-16.742,16.742-16.742Z" paint-order="stroke fill markers" fill="none" fill-rule="evenodd" stroke="url(#eAV5wZqPnKE5-stroke)" stroke-width="1.08" stroke-dasharray="0,5186.96"/></g><g id="eAV5wZqPnKE6" transform="translate(1013.748963 510.512298)" opacity="0"><g><path d="M-888.588,246.964c0,2.77-.639,4.882-1.919,6.335-1.28,1.454-3.122,2.18-5.527,2.18-.978,0-1.874-.141-2.687-.425-.814-.283-1.541-.681-2.181-1.193-.63-.512-1.17-1.124-1.618-1.837-.438-.713-.781-1.499-1.028-2.359c0,0,3.839-1.042,3.839-1.042.22.576.426,1.024.618,1.344.201.311.447.594.74.85.302.256.64.448,1.015.576.375.119.809.178,1.302.178.622,0,1.152-.096,1.591-.288.448-.201.814-.498,1.097-.891.284-.393.489-.864.617-1.412.137-.549.206-1.184.206-1.906c0,0,0-11.574,0-11.574s3.935,0,3.935,0s0,11.464,0,11.464Z" fill="#a3abb3" stroke-width="0"/><path d="M-876.411,255.164c0,0,0-.987,0-.987-.173.183-.37.352-.589.507-.22.146-.485.288-.796.425-.31.128-.626.22-.946.274-.32.064-.649.096-.987.096-.686,0-1.358-.105-2.016-.315-.658-.219-1.248-.544-1.769-.974-.512-.429-.928-.973-1.248-1.631-.31-.659-.466-1.436-.466-2.332c0-.813.156-1.526.466-2.139.311-.612.736-1.12,1.276-1.522.539-.411,1.17-.717,1.892-.919.731-.21,1.513-.315,2.345-.315.685,0,1.252.059,1.7.178s.828.256,1.138.412c0,0,0-.727,0-.727c0-.549-.182-.997-.548-1.344-.366-.356-.887-.535-1.563-.535-.86,0-1.559.064-2.098.192-.54.119-1.184.38-1.934.782c0,0-1.495-2.688-1.495-2.688.933-.548,1.815-.932,2.647-1.152.841-.228,1.801-.342,2.88-.342.896,0,1.709.114,2.44.342.741.229,1.372.563,1.893,1.001.53.439.937.979,1.22,1.618.293.64.439,1.376.439,2.208c0,0,0,9.887,0,9.887s-3.881,0-3.881,0Z" fill="#a3abb3" stroke-width="0"/><path d="M-876.411,248.98c-.164-.101-.333-.188-.507-.261-.174-.082-.366-.146-.576-.192-.21-.055-.448-.096-.713-.123-.256-.028-.558-.041-.905-.041-.731,0-1.289.164-1.673.493-.375.32-.562.777-.562,1.371c0,.256.036.503.109.741.083.238.211.448.384.631.183.173.416.315.7.425.283.11.631.164,1.042.164.32,0,.617-.036.891-.109.284-.073.54-.169.768-.288.238-.128.444-.275.617-.439.174-.165.316-.334.425-.507c0,0,0-1.865,0-1.865Z" fill="#a3abb3" stroke-width="0"/><path d="M-859.997,255.164c0,0,0-7.981,0-7.981c0-1.161-.187-2.02-.562-2.578-.365-.557-1.01-.836-1.933-.836-.402,0-.759.055-1.07.164-.311.11-.576.293-.795.549-.21.256-.375.599-.494,1.028-.11.421-.164.951-.164,1.591c0,0,0,8.063,0,8.063s-3.881,0-3.881,0s0-14.741,0-14.741s3.881,0,3.881,0s0,.974,0,.974c.164-.165.361-.325.589-.48.238-.156.512-.298.823-.426.311-.137.635-.233.974-.288.347-.063.704-.095,1.069-.095.942,0,1.751.159,2.427.479.686.311,1.253.759,1.701,1.344.448.576.777,1.28.987,2.112.219.832.329,1.769.329,2.811c0,0,0,8.31,0,8.31s-3.881,0-3.881,0Z" fill="#a3abb3" stroke-width="0"/></g><g><path d="M-737.955,239.353c0,0,0,3.703,0,3.703s5.924,0,5.924,0s0,3.826,0,3.826-5.924,0-5.924,0s0,8.282,0,8.282-3.936,0-3.936,0s0-19.664,0-19.664s14.069,0,14.069,0s0,3.853,0,3.853-10.133,0-10.133,0Z" fill="#a3abb3" stroke-width="0"/><path d="M-715.48,247.8c0,.284-.005.526-.014.727s-.023.375-.041.521c0,0-8.817,0-8.817,0c.036.503.146.933.329,1.289.192.348.425.631.699.85.283.22.599.38.946.48.348.101.7.151,1.056.151.265,0,.512-.018.741-.055.228-.045.457-.114.685-.205.238-.101.444-.215.617-.343.183-.128.343-.27.48-.425c0,0,2.757,2.29,2.757,2.29-.293.384-.64.727-1.043,1.028-.402.293-.836.544-1.302.754-.467.202-.951.352-1.454.453-.494.11-.987.164-1.481.164-.813,0-1.545-.1-2.194-.301-.64-.192-1.202-.453-1.687-.782-.484-.329-.914-.708-1.289-1.138-.374-.439-.69-.923-.946-1.454-.256-.539-.457-1.138-.603-1.796-.146-.667-.219-1.403-.219-2.208c0-1.124.164-2.157.493-3.099.338-.95.8-1.764,1.385-2.441.594-.676,1.289-1.202,2.084-1.577.805-.384,1.673-.575,2.606-.575.987,0,1.865.205,2.633.617.768.402,1.417.955,1.947,1.659.53.695.932,1.508,1.207,2.441.283.932.425,1.924.425,2.975Z" fill="#a3abb3" stroke-width="0"/><path d="M-719.251,246.127c-.028-.329-.101-.653-.22-.973-.109-.32-.274-.604-.493-.85-.211-.247-.476-.444-.796-.59-.31-.155-.685-.233-1.124-.233-.357,0-.677.068-.96.206-.274.137-.516.324-.727.562-.201.237-.365.516-.493.836-.119.32-.197.668-.234,1.042c0,0,5.047,0,5.047,0Z" fill="#a3abb3" stroke-width="0"/><path d="M-699.669,247.979c0,1.097-.128,2.107-.384,3.03-.256.914-.631,1.705-1.125,2.372-.484.659-1.083,1.175-1.796,1.55-.704.366-1.513.548-2.427.548-.649,0-1.244-.109-1.783-.329-.539-.228-.983-.502-1.33-.822c0,0,0,.836,0,.836s-3.881,0-3.881,0s0-18.54,0-18.54s3.881-1.933,3.881-1.933s0,6.651,0,6.651c.183-.165.379-.32.589-.467.22-.146.458-.274.714-.384.255-.118.534-.21.836-.274.302-.073.626-.109.974-.109.786,0,1.526.15,2.221.452s1.303.773,1.824,1.412c.521.64.932,1.459,1.234,2.455.302.987.453,2.171.453,3.552Z" fill="#a3abb3" stroke-width="0"/><path d="M-703.605,248.061c0-1.426-.215-2.496-.645-3.209-.429-.722-1.055-1.083-1.878-1.083-.302,0-.572.032-.809.096-.229.055-.439.137-.631.247-.183.109-.352.242-.507.397-.156.147-.302.311-.439.494c0,0,0,5.554,0,5.554.146.201.292.374.439.521.155.137.352.269.589.397.238.119.48.206.727.261.256.055.539.082.85.082.75,0,1.321-.315,1.714-.946s.59-1.568.59-2.811Z" fill="#a3abb3" stroke-width="0"/></g><g><path d="M-568.442,255.164c0,0-3.935,0-3.935,0s0-11.19,0-11.19-5.307,11.643-5.307,11.643-5.307-11.643-5.307-11.643s0,11.19,0,11.19-3.853,0-3.853,0s0-19.664,0-19.664s3.798,0,3.798,0s5.444,11.889,5.444,11.889s5.28-11.889,5.28-11.889s3.88,0,3.88,0s0,19.664,0,19.664Z" fill="#a3abb3" stroke-width="0"/><path d="M-555.922,255.164c0,0,0-.987,0-.987-.174.183-.37.352-.59.507-.219.146-.484.288-.795.425-.311.128-.626.22-.946.274-.32.064-.649.096-.987.096-.686,0-1.358-.105-2.016-.315-.658-.219-1.248-.544-1.769-.974-.512-.429-.928-.973-1.248-1.631-.311-.659-.466-1.436-.466-2.332c0-.813.155-1.526.466-2.139.311-.612.736-1.12,1.275-1.522.54-.411,1.17-.717,1.893-.919.731-.21,1.513-.315,2.345-.315.685,0,1.252.059,1.7.178s.827.256,1.138.412c0,0,0-.727,0-.727c0-.549-.183-.997-.548-1.344-.366-.356-.887-.535-1.564-.535-.859,0-1.558.064-2.098.192-.539.119-1.184.38-1.933.782c0,0-1.495-2.688-1.495-2.688.933-.548,1.815-.932,2.647-1.152.841-.228,1.801-.342,2.879-.342.896,0,1.71.114,2.441.342.741.229,1.371.563,1.893,1.001.53.439.937.979,1.22,1.618.293.64.439,1.376.439,2.208c0,0,0,9.887,0,9.887s-3.881,0-3.881,0Z" fill="#a3abb3" stroke-width="0"/><path d="M-555.922,248.98c-.164-.101-.334-.188-.507-.261-.174-.082-.366-.146-.576-.192-.21-.055-.448-.096-.713-.123-.256-.028-.558-.041-.905-.041-.732,0-1.289.164-1.673.493-.375.32-.562.777-.562,1.371c0,.256.036.503.109.741.083.238.21.448.384.631.183.173.416.315.7.425.283.11.63.164,1.042.164.32,0,.617-.036.891-.109.283-.073.539-.169.768-.288.238-.128.443-.275.617-.439.174-.165.315-.334.425-.507c0,0,0-1.865,0-1.865Z" fill="#a3abb3" stroke-width="0"/><path d="M-539.782,244.948c-.311-.283-.654-.512-1.028-.686-.375-.182-.782-.274-1.221-.274-.914,0-1.559.265-1.933.796-.375.521-.563,1.321-.563,2.399c0,0,0,7.981,0,7.981s-3.88,0-3.88,0s0-14.741,0-14.741s3.88,0,3.88,0s0,.974,0,.974c.156-.165.339-.325.549-.48.219-.156.457-.298.713-.426.265-.137.548-.233.85-.288.302-.063.608-.095.919-.095.631,0,1.179.109,1.645.329.467.21.828.448,1.084.713c0,0-1.015,3.798-1.015,3.798Z" fill="#a3abb3" stroke-width="0"/></g><g><path d="M-408.39,255.164c0,0-4.319,0-4.319,0s-1.55-4.374-1.55-4.374-7.185,0-7.185,0-1.55,4.374-1.55,4.374-4.21,0-4.21,0s7.529-19.664,7.529-19.664s3.812,0,3.812,0s7.473,19.664,7.473,19.664Z" fill="#a3abb3" stroke-width="0"/><path d="M-415.603,247.046c0,0-2.249-6.404-2.249-6.404s-2.249,6.404-2.249,6.404s4.498,0,4.498,0Z" fill="#a3abb3" stroke-width="0"/><path d="M-392.661,247.979c0,1.097-.128,2.107-.384,3.03-.256.914-.631,1.705-1.125,2.372-.484.659-1.083,1.175-1.796,1.55-.704.366-1.513.548-2.427.548-.649,0-1.244-.109-1.783-.329-.539-.228-.983-.502-1.33-.822c0,0,0,4.319,0,4.319s-3.881,1.934-3.881,1.934s0-20.158,0-20.158s3.881,0,3.881,0s0,.919,0,.919c.43-.393.905-.695,1.426-.905.521-.22,1.083-.329,1.687-.329.786,0,1.526.15,2.221.452s1.303.773,1.824,1.412c.521.64.932,1.459,1.234,2.455.302.987.453,2.171.453,3.552Z" fill="#a3abb3" stroke-width="0"/><path d="M-396.597,248.061c0-1.399-.215-2.464-.644-3.195-.421-.732-1.047-1.097-1.879-1.097-.521,0-.969.096-1.344.288-.366.192-.713.507-1.042.946c0,0,0,5.554,0,5.554.164.219.329.402.494.548.173.146.37.274.589.384.22.11.457.192.713.247s.526.082.809.082c.75,0,1.321-.315,1.714-.946.394-.631.59-1.568.59-2.811Z" fill="#a3abb3" stroke-width="0"/><path d="M-380.964,244.948c-.311-.283-.654-.512-1.029-.686-.375-.182-.782-.274-1.22-.274-.914,0-1.559.265-1.934.796-.375.521-.562,1.321-.562,2.399c0,0,0,7.981,0,7.981s-3.881,0-3.881,0s0-14.741,0-14.741s3.881,0,3.881,0s0,.974,0,.974c.155-.165.338-.325.548-.48.22-.156.458-.298.714-.426.265-.137.548-.233.85-.288.301-.063.608-.095.918-.095.631,0,1.18.109,1.646.329.466.21.827.448,1.083.713c0,0-1.014,3.798-1.014,3.798Z" fill="#a3abb3" stroke-width="0"/></g><g><path d="M-249.356,255.164c0,0-3.935,0-3.935,0s0-11.19,0-11.19-5.307,11.643-5.307,11.643-5.307-11.643-5.307-11.643s0,11.19,0,11.19-3.853,0-3.853,0s0-19.664,0-19.664s3.798,0,3.798,0s5.444,11.889,5.444,11.889s5.28-11.889,5.28-11.889s3.88,0,3.88,0s0,19.664,0,19.664Z" fill="#a3abb3" stroke-width="0"/><path d="M-236.836,255.164c0,0,0-.987,0-.987-.174.183-.37.352-.59.507-.219.146-.484.288-.795.425-.311.128-.626.22-.946.274-.32.064-.649.096-.987.096-.686,0-1.358-.105-2.016-.315-.658-.219-1.248-.544-1.769-.974-.512-.429-.928-.973-1.248-1.631-.311-.659-.466-1.436-.466-2.332c0-.813.155-1.526.466-2.139.311-.612.736-1.12,1.275-1.522.54-.411,1.17-.717,1.893-.919.731-.21,1.513-.315,2.345-.315.685,0,1.252.059,1.7.178s.827.256,1.138.412c0,0,0-.727,0-.727c0-.549-.183-.997-.548-1.344-.366-.356-.887-.535-1.564-.535-.859,0-1.558.064-2.098.192-.539.119-1.184.38-1.933.782c0,0-1.495-2.688-1.495-2.688.933-.548,1.815-.932,2.647-1.152.841-.228,1.801-.342,2.879-.342.896,0,1.71.114,2.441.342.741.229,1.371.563,1.893,1.001.53.439.937.979,1.22,1.618.292.64.439,1.376.439,2.208c0,0,0,9.887,0,9.887s-3.881,0-3.881,0Z" fill="#a3abb3" stroke-width="0"/><path d="M-236.836,248.98c-.165-.101-.334-.188-.507-.261-.174-.082-.366-.146-.576-.192-.211-.055-.448-.096-.713-.123-.256-.028-.558-.041-.905-.041-.732,0-1.289.164-1.673.493-.375.32-.563.777-.563,1.371c0,.256.037.503.11.741.082.238.21.448.384.631.183.173.416.315.699.425.284.11.631.164,1.043.164.32,0,.617-.036.891-.109.283-.073.539-.169.768-.288.238-.128.443-.275.617-.439.174-.165.315-.334.425-.507c0,0,0-1.865,0-1.865Z" fill="#a3abb3" stroke-width="0"/><path d="M-223.548,260.361c0,0-3.812,0-3.812,0s1.96-5.197,1.96-5.197-5.731-14.741-5.731-14.741s4.264,0,4.264,0s3.374,9.928,3.374,9.928s3.373-9.928,3.373-9.928s4.155,0,4.155,0-7.583,19.938-7.583,19.938Z" fill="#a3abb3" stroke-width="0"/></g><g><path d="M-89.377,246.964c0,2.77-.64,4.882-1.919,6.335-1.28,1.454-3.122,2.18-5.527,2.18-.978,0-1.874-.141-2.687-.425-.814-.283-1.541-.681-2.181-1.193-.63-.512-1.17-1.124-1.618-1.837-.439-.713-.781-1.499-1.028-2.359c0,0,3.839-1.042,3.839-1.042.22.576.426,1.024.617,1.344.202.311.448.594.741.85.302.256.64.448,1.015.576.375.119.809.178,1.302.178.622,0,1.152-.096,1.591-.288.448-.201.814-.498,1.097-.891.284-.393.489-.864.617-1.412.137-.549.206-1.184.206-1.906c0,0,0-11.574,0-11.574s3.935,0,3.935,0s0,11.464,0,11.464Z" fill="#a3abb3" stroke-width="0"/><path d="M-76.336,255.164c0,0,0-.987,0-.987-.338.356-.804.663-1.398.918-.595.256-1.28.384-2.057.384-1.774,0-3.127-.571-4.059-1.714-.924-1.142-1.385-2.82-1.385-5.032c0,0,0-8.31,0-8.31s3.88,0,3.88,0s0,7.967,0,7.967c0,1.188.188,2.057.563,2.605.374.549,1.019.823,1.933.823.923,0,1.572-.279,1.947-.836.384-.567.576-1.399.576-2.496c0,0,0-8.063,0-8.063s3.881,0,3.881,0s0,14.741,0,14.741-3.881,0-3.881,0Z" fill="#a3abb3" stroke-width="0"/><path d="M-59.798,255.164c0,0,0-7.981,0-7.981c0-1.161-.188-2.02-.562-2.578-.366-.557-1.011-.836-1.934-.836-.402,0-.759.055-1.07.164-.31.11-.576.293-.795.549-.21.256-.375.599-.494,1.028-.109.421-.164.951-.164,1.591c0,0,0,8.063,0,8.063s-3.881,0-3.881,0s0-14.741,0-14.741s3.881,0,3.881,0s0,.974,0,.974c.164-.165.361-.325.59-.48.237-.156.511-.298.822-.426.311-.137.636-.233.974-.288.347-.063.704-.095,1.069-.095.942,0,1.751.159,2.428.479.685.311,1.252.759,1.7,1.344.448.576.777,1.28.987,2.112.22.832.329,1.769.329,2.811c0,0,0,8.31,0,8.31s-3.88,0-3.88,0Z" fill="#a3abb3" stroke-width="0"/></g><g><path d="M71.66,246.964c0,2.77-.64,4.882-1.92,6.335-1.28,1.454-3.12,2.18-5.52,2.18-.98,0-1.88-.141-2.69-.425-.81-.283-1.54-.681-2.18-1.193-.63-.512-1.17-1.124-1.62-1.837-.44-.713-.78-1.499-1.03-2.359c0,0,3.84-1.042,3.84-1.042.22.576.43,1.024.62,1.344.2.311.45.594.74.85.3.256.64.448,1.01.576.38.119.81.178,1.31.178.62,0,1.15-.096,1.59-.288.45-.201.81-.498,1.09-.891.29-.393.49-.864.62-1.412.14-.549.21-1.184.21-1.906c0,0,0-11.574,0-11.574s3.93,0,3.93,0s0,11.464,0,11.464Z" fill="#a3abb3" stroke-width="0"/><path d="M84.7,255.164c0,0,0-.987,0-.987-.33.356-.8.663-1.4.918-.59.256-1.28.384-2.05.384-1.78,0-3.13-.571-4.06-1.714-.92-1.142-1.39-2.82-1.39-5.032c0,0,0-8.31,0-8.31s3.88,0,3.88,0s0,7.967,0,7.967c0,1.188.19,2.057.57,2.605.37.549,1.02.823,1.93.823.92,0,1.57-.279,1.95-.836.38-.567.57-1.399.57-2.496c0,0,0-8.063,0-8.063s3.88,0,3.88,0s0,14.741,0,14.741-3.88,0-3.88,0Z" fill="#a3abb3" stroke-width="0"/><path d="M92.48,255.164c0,0,0-18.54,0-18.54s3.88-1.933,3.88-1.933s0,20.473,0,20.473-3.88,0-3.88,0Z" fill="#a3abb3" stroke-width="0"/></g><g><path d="M227.78,255.164c0,0-4.32,0-4.32,0s-1.55-4.374-1.55-4.374-7.18,0-7.18,0-1.55,4.374-1.55,4.374-4.21,0-4.21,0s7.53-19.664,7.53-19.664s3.81,0,3.81,0s7.47,19.664,7.47,19.664Z" fill="#a3abb3" stroke-width="0"/><path d="M220.57,247.046c0,0-2.25-6.404-2.25-6.404s-2.25,6.404-2.25,6.404s4.5,0,4.5,0Z" fill="#a3abb3" stroke-width="0"/><path d="M247.21,246.484c0,1.426-.18,2.697-.55,3.812-.35,1.115-.87,2.057-1.56,2.825-.68.768-1.52,1.353-2.51,1.755s-2.1.603-3.34.603c-1.19,0-2.28-.196-3.25-.589s-1.81-.969-2.51-1.728-1.24-1.691-1.62-2.797c-.39-1.116-.58-2.391-.58-3.826c0,0,0-11.039,0-11.039s3.94,0,3.94,0s0,10.984,0,10.984c0,1.591.36,2.848,1.08,3.771.72.914,1.7,1.371,2.94,1.371s2.22-.457,2.94-1.371c.74-.914,1.1-2.153,1.1-3.716c0,0,0-11.039,0-11.039s3.92,0,3.92,0s0,10.984,0,10.984Z" fill="#a3abb3" stroke-width="0"/><path d="M263.46,252.888c0,1.371-.16,2.532-.48,3.483-.31.96-.77,1.728-1.38,2.304-.57.539-1.28.978-2.13,1.316-.84.338-1.86.544-3.06.617c0,0-1.15-3.085-1.15-3.085.86-.073,1.57-.183,2.13-.329.56-.138,1-.316,1.3-.535.27-.201.49-.485.64-.85.16-.357.24-.851.25-1.481c0,0,0-.096,0-.096-.18.164-.38.315-.59.452-.2.137-.43.274-.7.411-.25.128-.53.224-.83.288s-.63.096-.99.096c-.79,0-1.53-.15-2.22-.452-.7-.311-1.31-.786-1.83-1.426s-.93-1.454-1.23-2.441c-.3-.997-.45-2.18-.45-3.552c0-1.097.13-2.102.38-3.016.26-.924.63-1.715,1.11-2.373.49-.667,1.09-1.184,1.8-1.549.71-.375,1.52-.562,2.44-.562.31,0,.62.027.92.082.31.055.61.146.89.274.29.119.54.242.74.37s.39.27.56.425c0,0,0-.836,0-.836s3.88,0,3.88,0s0,12.465,0,12.465Z" fill="#a3abb3" stroke-width="0"/><path d="M257.2,251.818c.53,0,.98-.1,1.35-.302.39-.21.73-.521,1.03-.932c0,0,0-5.554,0-5.554-.14-.201-.3-.37-.45-.507s-.33-.265-.55-.384-.46-.21-.73-.274c-.26-.064-.55-.096-.87-.096-.75,0-1.32.315-1.72.946-.39.631-.59,1.568-.59,2.811c0,1.472.22,2.555.66,3.25.45.695,1.07,1.042,1.87,1.042Z" fill="#a3abb3" stroke-width="0"/></g><g><path d="M391.82,249.213c0,.932-.15,1.782-.45,2.55-.31.768-.77,1.431-1.4,1.989-.63.548-1.43.973-2.4,1.275s-2.13.452-3.47.452c-.83,0-1.62-.086-2.37-.26-.76-.165-1.47-.398-2.13-.699-.66-.311-1.26-.686-1.8-1.125-.53-.448-.97-.946-1.34-1.495c0,0,2.84-2.523,2.84-2.523.68.805,1.46,1.381,2.32,1.728s1.76.521,2.7.521c.66,0,1.2-.046,1.62-.137.41-.101.75-.233,1.02-.398.29-.173.49-.374.61-.603s.18-.562.18-1.001c0-.311-.06-.585-.17-.823-.11-.247-.32-.471-.64-.672-.31-.201-.76-.393-1.33-.576-.57-.182-1.32-.379-2.25-.589-.91-.211-1.74-.453-2.5-.727-.75-.274-1.39-.631-1.93-1.07-.54-.438-.96-.982-1.26-1.631-.31-.659-.46-1.472-.46-2.441c0-.887.19-1.687.55-2.4.37-.713.87-1.316,1.5-1.81.64-.503,1.38-.887,2.23-1.152.86-.265,1.78-.398,2.74-.398.75,0,1.46.069,2.13.206.68.128,1.34.343,1.97.645.65.301,1.2.621,1.65.959.45.339.92.764,1.41,1.276c0,0-2.84,2.756-2.84,2.756-.37-.384-.7-.681-.98-.891-.29-.211-.61-.403-.98-.576-.36-.183-.75-.32-1.15-.412-.4-.1-.85-.151-1.34-.151-.53,0-.98.055-1.33.165-.36.101-.65.233-.87.398-.22.164-.38.352-.48.562-.09.21-.13.425-.13.644c0,.311.06.576.17.796.12.219.33.416.64.589.3.165.7.325,1.2.48.51.147,1.16.311,1.95.494c1.11.265,2.04.544,2.78.836.74.284,1.4.65,1.96,1.098.57.447,1.01,1.014,1.33,1.7.33.686.5,1.499.5,2.441Z" fill="#a3abb3" stroke-width="0"/><path d="M407.08,247.8c0,.284,0,.526-.01.727s-.03.375-.04.521c0,0-8.82,0-8.82,0c.03.503.14.933.33,1.289.19.348.42.631.7.85.28.22.6.38.94.48.35.101.7.151,1.06.151.26,0,.51-.018.74-.055.23-.045.46-.114.68-.205.24-.101.45-.215.62-.343.18-.128.34-.27.48-.425c0,0,2.76,2.29,2.76,2.29-.29.384-.64.727-1.04,1.028-.41.293-.84.544-1.31.754-.46.202-.95.352-1.45.453-.49.11-.99.164-1.48.164-.81,0-1.55-.1-2.2-.301-.64-.192-1.2-.453-1.68-.782-.49-.329-.92-.708-1.29-1.138-.38-.439-.69-.923-.95-1.454-.25-.539-.45-1.138-.6-1.796-.15-.667-.22-1.403-.22-2.208c0-1.124.16-2.157.49-3.099.34-.95.8-1.764,1.39-2.441.59-.676,1.29-1.202,2.08-1.577.81-.384,1.68-.575,2.61-.575.99,0,1.86.205,2.63.617.77.402,1.42.955,1.95,1.659.53.695.93,1.508,1.21,2.441.28.932.42,1.924.42,2.975Z" fill="#a3abb3" stroke-width="0"/><path d="M403.31,246.127c-.03-.329-.1-.653-.22-.973-.11-.32-.27-.604-.49-.85-.21-.247-.48-.444-.8-.59-.31-.155-.68-.233-1.12-.233-.36,0-.68.068-.96.206-.28.137-.52.324-.73.562-.2.237-.37.516-.49.836s-.2.668-.24,1.042c0,0,5.05,0,5.05,0Z" fill="#a3abb3" stroke-width="0"/><path d="M422.89,247.979c0,1.097-.13,2.107-.38,3.03-.26.914-.63,1.705-1.13,2.372-.48.659-1.08,1.175-1.79,1.55-.71.366-1.52.548-2.43.548-.65,0-1.24-.109-1.78-.329-.54-.228-.99-.502-1.33-.822c0,0,0,4.319,0,4.319s-3.88,1.934-3.88,1.934s0-20.158,0-20.158s3.88,0,3.88,0s0,.919,0,.919c.43-.393.9-.695,1.42-.905.52-.22,1.09-.329,1.69-.329.79,0,1.53.15,2.22.452.7.302,1.3.773,1.82,1.412.53.64.94,1.459,1.24,2.455.3.987.45,2.171.45,3.552Z" fill="#a3abb3" stroke-width="0"/><path d="M418.96,248.061c0-1.399-.22-2.464-.65-3.195-.42-.732-1.05-1.097-1.88-1.097-.52,0-.97.096-1.34.288s-.71.507-1.04.946c0,0,0,5.554,0,5.554.16.219.33.402.49.548.17.146.37.274.59.384s.46.192.71.247c.26.055.53.082.81.082.75,0,1.32-.315,1.72-.946.39-.631.59-1.568.59-2.811Z" fill="#a3abb3" stroke-width="0"/></g><g><path d="M552.69,245.305c0,1.59-.22,3.016-.65,4.278-.42,1.252-1.01,2.317-1.78,3.195-.76.869-1.67,1.536-2.74,2.002-1.06.466-2.23.699-3.51.699-1.29,0-2.47-.228-3.53-.685s-1.97-1.12-2.72-1.989c-.76-.868-1.35-1.928-1.77-3.181-.42-1.252-.63-2.674-.63-4.265c0-1.59.21-3.012.63-4.264.43-1.262,1.03-2.327,1.79-3.195.77-.878,1.69-1.545,2.76-2.002c1.07-.467,2.24-.7,3.52-.7s2.45.229,3.5.686c1.06.457,1.97,1.12,2.73,1.988.76.869,1.35,1.929,1.77,3.182.42,1.243.63,2.66.63,4.251Z" fill="#a3abb3" stroke-width="0"/><path d="M548.64,245.359c0-.996-.11-1.883-.34-2.66s-.55-1.43-.96-1.961c-.41-.53-.9-.932-1.48-1.206-.57-.284-1.19-.426-1.88-.426-.68,0-1.31.138-1.88.412-.56.265-1.05.663-1.45,1.193-.39.521-.7,1.17-.92,1.947-.22.768-.33,1.65-.33,2.647c0,.996.12,1.883.34,2.66.23.777.55,1.435.96,1.975.42.53.9.937,1.47,1.22.58.274,1.21.411,1.89.411.69,0,1.32-.137,1.88-.411.57-.274,1.05-.672,1.44-1.193.4-.53.71-1.179.93-1.947.22-.777.33-1.664.33-2.661Z" fill="#a3abb3" stroke-width="0"/><path d="M568.21,252.188c-.36.476-.73.915-1.14,1.317-.39.402-.83.749-1.31,1.042-.49.293-1.02.521-1.61.686-.58.164-1.24.246-1.97.246-.96,0-1.86-.187-2.7-.562s-1.58-.9-2.21-1.577c-.62-.676-1.11-1.485-1.47-2.427-.36-.941-.53-1.979-.53-3.113c0-1.124.17-2.157.52-3.099.35-.95.85-1.764,1.48-2.441.63-.676,1.37-1.202,2.23-1.577.87-.384,1.82-.575,2.84-.575c1.25,0,2.35.274,3.32.822.97.54,1.81,1.353,2.52,2.441c0,0-2.55,2.578-2.55,2.578-.22-.311-.44-.594-.68-.85-.23-.256-.48-.475-.74-.658-.27-.183-.56-.325-.88-.425-.32-.11-.68-.165-1.07-.165-.47,0-.89.096-1.26.288-.38.183-.7.448-.96.795-.27.339-.47.75-.62,1.235-.14.484-.22,1.028-.22,1.631c0,.595.08,1.134.22,1.618.15.476.35.887.62,1.235.26.347.58.617.96.809.37.182.79.274,1.26.274.37,0,.72-.041,1.03-.124.32-.082.62-.201.89-.356.28-.165.55-.361.8-.59.25-.237.51-.507.76-.809c0,0,2.47,2.331,2.47,2.331Z" fill="#a3abb3" stroke-width="0"/><path d="M579.33,254.574c-.32.256-.75.471-1.29.645s-1.11.26-1.71.26c-.59,0-1.13-.109-1.62-.329-.48-.219-.9-.525-1.25-.918-.33-.403-.6-.873-.79-1.413-.18-.539-.28-1.133-.28-1.782c0,0,0-6.967,0-6.967s-2.46,0-2.46,0s0-3.647,0-3.647s2.46,0,2.46,0s0-3.799,0-3.799s3.88-1.933,3.88-1.933s0,5.732,0,5.732s3.54,0,3.54,0s0,3.647,0,3.647-3.54,0-3.54,0s0,5.924,0,5.924c0,.357.04.649.1.878s.16.411.27.548c.12.128.27.22.44.275.19.045.39.068.62.068.35,0,.69-.087,1.02-.26.33-.174.73-.462,1.17-.864c0,0-.56,3.935-.56,3.935Z" fill="#a3abb3" stroke-width="0"/></g><g><path d="M709.43,255.164c0,0-3.51,0-3.51,0s-8.55-12.684-8.55-12.684s0,12.684,0,12.684-3.88,0-3.88,0s0-19.664,0-19.664s3.77,0,3.77,0s8.29,12.369,8.29,12.369s0-12.369,0-12.369s3.88,0,3.88,0s0,19.664,0,19.664Z" fill="#a3abb3" stroke-width="0"/><path d="M726.42,247.8c0,1.134-.17,2.172-.51,3.113-.33.942-.8,1.751-1.4,2.427-.59.677-1.3,1.202-2.13,1.577-.81.375-1.7.562-2.66.562s-1.84-.187-2.66-.562c-.81-.375-1.51-.9-2.11-1.577-.58-.676-1.04-1.485-1.38-2.427-.33-.941-.5-1.979-.5-3.113c0-1.124.17-2.157.5-3.099.34-.95.8-1.764,1.38-2.441.6-.676,1.3-1.202,2.11-1.577.82-.384,1.7-.575,2.66-.575s1.85.191,2.66.575c.83.375,1.54.901,2.13,1.577.6.677,1.07,1.491,1.4,2.441.34.942.51,1.975.51,3.099Z" fill="#a3abb3" stroke-width="0"/><path d="M722.48,247.8c0-.557-.06-1.074-.18-1.549-.11-.485-.28-.905-.51-1.262-.22-.356-.51-.635-.86-.836-.34-.201-.74-.302-1.21-.302-.46,0-.86.101-1.2.302s-.62.48-.85.836c-.22.348-.39.764-.5,1.248-.11.475-.16.997-.16,1.563c0,.567.05,1.093.16,1.577.11.485.28.901.5,1.248.23.348.51.622.85.823.34.192.74.288,1.2.288.47,0,.87-.105,1.21-.316.35-.219.64-.511.86-.877.23-.366.4-.786.51-1.262.12-.475.18-.969.18-1.481Z" fill="#a3abb3" stroke-width="0"/><path d="M737,255.164c0,0-3.99,0-3.99,0s-5.3-14.741-5.3-14.741s4.26,0,4.26,0s3.1,9.722,3.1,9.722s3.08-9.722,3.08-9.722s4.16,0,4.16,0-5.31,14.741-5.31,14.741Z" fill="#a3abb3" stroke-width="0"/></g><g><path d="M871.47,245.332c0,1.152-.13,2.194-.39,3.127-.26.932-.62,1.764-1.09,2.495-.46.732-1.02,1.362-1.66,1.893-.63.521-1.32.955-2.07,1.302-.74.348-1.52.604-2.36.768-.82.165-1.65.247-2.49.247c0,0-5.87,0-5.87,0s0-19.664,0-19.664s6.16,0,6.16,0c1.39,0,2.69.178,3.89.535c1.2.347,2.23.909,3.1,1.686.87.778,1.55,1.792,2.04,3.045.5,1.252.74,2.774.74,4.566Z" fill="#a3abb3" stroke-width="0"/><path d="M867.43,245.332c0-1.006-.12-1.883-.35-2.633-.21-.749-.56-1.376-1.04-1.878-.46-.503-1.07-.878-1.81-1.125s-1.63-.37-2.67-.37c0,0-2.09,0-2.09,0s0,12.012,0,12.012s1.94,0,1.94,0c1.03,0,1.92-.141,2.67-.425.76-.292,1.39-.699,1.88-1.22.49-.531.86-1.166,1.1-1.906.24-.741.37-1.559.37-2.455Z" fill="#a3abb3" stroke-width="0"/><path d="M886.78,247.8c0,.284-.01.526-.02.727s-.02.375-.04.521c0,0-8.82,0-8.82,0c.04.503.15.933.33,1.289.2.348.43.631.7.85.29.22.6.38.95.48.35.101.7.151,1.05.151.27,0,.52-.018.75-.055.22-.045.45-.114.68-.205.24-.101.44-.215.62-.343s.34-.27.48-.425c0,0,2.75,2.29,2.75,2.29-.29.384-.64.727-1.04,1.028-.4.293-.83.544-1.3.754-.47.202-.95.352-1.45.453-.5.11-.99.164-1.49.164-.81,0-1.54-.1-2.19-.301-.64-.192-1.2-.453-1.69-.782-.48-.329-.91-.708-1.28-1.138-.38-.439-.7-.923-.95-1.454-.26-.539-.46-1.138-.6-1.796-.15-.667-.22-1.403-.22-2.208c0-1.124.16-2.157.49-3.099.34-.95.8-1.764,1.38-2.441.6-.676,1.29-1.202,2.09-1.577.8-.384,1.67-.575,2.6-.575.99,0,1.87.205,2.64.617.77.402,1.41.955,1.94,1.659.53.695.94,1.508,1.21,2.441.28.932.43,1.924.43,2.975Z" fill="#a3abb3" stroke-width="0"/><path d="M883.01,246.127c-.03-.329-.11-.653-.22-.973s-.28-.604-.5-.85c-.21-.247-.47-.444-.79-.59-.31-.155-.69-.233-1.13-.233-.35,0-.67.068-.96.206-.27.137-.51.324-.72.562-.21.237-.37.516-.5.836-.12.32-.19.668-.23,1.042c0,0,5.05,0,5.05,0Z" fill="#a3abb3" stroke-width="0"/><path d="M902.05,252.188c-.35.476-.73.915-1.14,1.317-.39.402-.83.749-1.31,1.042-.49.293-1.02.521-1.61.686-.58.164-1.24.246-1.97.246-.96,0-1.86-.187-2.7-.562s-1.58-.9-2.21-1.577c-.62-.676-1.11-1.485-1.47-2.427-.35-.941-.53-1.979-.53-3.113c0-1.124.17-2.157.52-3.099.36-.95.85-1.764,1.48-2.441.63-.676,1.38-1.202,2.23-1.577.87-.384,1.82-.575,2.84-.575c1.25,0,2.35.274,3.32.822.97.54,1.81,1.353,2.52,2.441c0,0-2.55,2.578-2.55,2.578-.22-.311-.44-.594-.68-.85-.23-.256-.48-.475-.74-.658-.27-.183-.56-.325-.88-.425-.32-.11-.68-.165-1.07-.165-.47,0-.89.096-1.26.288-.38.183-.7.448-.96.795-.27.339-.47.75-.62,1.235-.14.484-.22,1.028-.22,1.631c0,.595.08,1.134.22,1.618.15.476.35.887.62,1.235.26.347.58.617.96.809.37.182.79.274,1.26.274.38,0,.72-.041,1.03-.124.32-.082.62-.201.89-.356.28-.165.55-.361.8-.59.25-.237.51-.507.76-.809c0,0,2.47,2.331,2.47,2.331Z" fill="#a3abb3" stroke-width="0"/></g></g><g transform="translate(1013 390.5)"><path id="eAV5wZqPnKE71" d="M-979,-294c0,0,1558,4,1558,4" paint-order="stroke fill markers" fill="none" fill-rule="evenodd" stroke="#ffe600" stroke-width="2" stroke-dasharray="0,0,825.74,732.27"/></g><g transform="matrix(0.99 0 0 0.99 1827.029 82)"><g id="eAV5wZqPnKE73" transform="matrix(-1 0 0 1 -52.25 50)" opacity="0"><rect width="4" height="11" rx="0" ry="0" transform="translate(-2 -5.5)" fill="#fff" stroke="#fff" stroke-width="0.5"/></g></g><g transform="matrix(0.99 0 0 0.99 1827.029 82)"><g id="eAV5wZqPnKE76" transform="matrix(-1 0 0 1 -52.25 50)" opacity="0"><rect width="4" height="11" rx="0" ry="0" transform="translate(-2 -5.5)" fill="#fff" stroke="#fff" stroke-width="0.5"/></g></g><g transform="matrix(0.99 0 0 0.99 1827.029 82)"><g id="eAV5wZqPnKE79_ts" transform="translate(152.25,50) scale(0,0)"><g id="eAV5wZqPnKE79" transform="translate(0,0)" opacity="0"><rect width="409" height="11" rx="0" ry="0" transform="translate(-204.5 -5.5)" fill="#fff" stroke="#fff" stroke-width="0.5"/></g></g></g><g transform="matrix(0.99 0 0 0.99 1827.029 82)"><g id="eAV5wZqPnKE82_ts" transform="translate(152.25,50) scale(0,0)"><g id="eAV5wZqPnKE82" transform="translate(0,0)" opacity="0"><rect width="409" height="11" rx="0" ry="0" transform="translate(-204.5 -5.5)" fill="#fff" stroke="#fff" stroke-width="0.5"/></g></g></g></svg>
