<svg id="eoLIWrHuTh61" xmlns="http://www.w3.org/2000/svg" xmlns:xlink="http://www.w3.org/1999/xlink" viewBox="0 0 1000 500" shape-rendering="geometricPrecision" text-rendering="geometricPrecision" project-id="3c181ca8ed9c49a8b1deacb648f9088a" export-id="b84a52302e614539a658df382aff8de4" cached="false" style="background-color:transparent">
<style><![CDATA[
#eoLIWrHuTh621 {animation: eoLIWrHuTh621_c_o 20000ms linear 1 normal forwards}@keyframes eoLIWrHuTh621_c_o { 0% {opacity: 0} 7.165% {opacity: 0} 10.5% {opacity: 0.55;animation-timing-function: step-end} 100% {opacity: 0.197133}} #eoLIWrHuTh624 {animation: eoLIWrHuTh624_c_o 20000ms linear 1 normal forwards}@keyframes eoLIWrHuTh624_c_o { 0% {opacity: 0} 7% {opacity: 0} 10.335% {opacity: 0.35;animation-timing-function: step-end} 100% {opacity: 0.1253}} #eoLIWrHuTh627_ts {animation: eoLIWrHuTh627_ts__ts 20000ms linear 1 normal forwards}@keyframes eoLIWrHuTh627_ts__ts { 0% {transform: translate(152.25px,50px) scale(0,0)} 5% {transform: translate(152.25px,50px) scale(0,0)} 7.6% {transform: translate(152.25px,50px) scale(-1,1)} 100% {transform: translate(152.25px,50px) scale(-1,1)}} #eoLIWrHuTh627 {animation: eoLIWrHuTh627_c_o 20000ms linear 1 normal forwards}@keyframes eoLIWrHuTh627_c_o { 0% {opacity: 0} 6.665% {opacity: 0} 10% {opacity: 0.1;animation-timing-function: step-end} 100% {opacity: 0.035714}} #eoLIWrHuTh630_ts {animation: eoLIWrHuTh630_ts__ts 20000ms linear 1 normal forwards}@keyframes eoLIWrHuTh630_ts__ts { 0% {transform: translate(152.25px,50px) scale(0,0)} 4.8% {transform: translate(152.25px,50px) scale(0,0)} 7.6% {transform: translate(152.25px,50px) scale(-0.38,1)} 12.6% {transform: translate(152.25px,50px) scale(-0.77,1)} 18.2% {transform: translate(152.25px,50px) scale(-0.47,1)} 23.2% {transform: translate(152.25px,50px) scale(-0.25,1)} 25% {transform: translate(152.25px,50px) scale(-0.34428,1)} 27.4% {transform: translate(152.25px,50px) scale(-0.47,1)} 39% {transform: translate(152.25px,50px) scale(-0.69,1)} 42.8% {transform: translate(152.25px,50px) scale(-0.45,1)} 48.2% {transform: translate(152.25px,50px) scale(0,0)} 100% {transform: translate(152.25px,50px) scale(0,0)}} #eoLIWrHuTh630 {animation: eoLIWrHuTh630_c_o 20000ms linear 1 normal forwards}@keyframes eoLIWrHuTh630_c_o { 0% {opacity: 0} 6.665% {opacity: 0} 10% {opacity: 0.4;animation-timing-function: step-end} 100% {opacity: 0.142857}} #eoLIWrHuTh633 {animation: eoLIWrHuTh633_c_o 20000ms linear 1 normal forwards}@keyframes eoLIWrHuTh633_c_o { 0% {opacity: 0} 7.165% {opacity: 0} 10.5% {opacity: 0.55;animation-timing-function: step-end} 100% {opacity: 0.197133}} #eoLIWrHuTh636 {animation: eoLIWrHuTh636_c_o 20000ms linear 1 normal forwards}@keyframes eoLIWrHuTh636_c_o { 0% {opacity: 0} 7% {opacity: 0} 10.335% {opacity: 0.35;animation-timing-function: step-end} 100% {opacity: 0.1253}} #eoLIWrHuTh639_ts {animation: eoLIWrHuTh639_ts__ts 20000ms linear 1 normal forwards}@keyframes eoLIWrHuTh639_ts__ts { 0% {transform: translate(152.25px,50px) scale(0,0)} 5% {transform: translate(152.25px,50px) scale(0,0)} 7.6% {transform: translate(152.25px,50px) scale(-1,1)} 100% {transform: translate(152.25px,50px) scale(-1,1)}} #eoLIWrHuTh639 {animation: eoLIWrHuTh639_c_o 20000ms linear 1 normal forwards}@keyframes eoLIWrHuTh639_c_o { 0% {opacity: 0} 6.665% {opacity: 0} 10% {opacity: 0.1;animation-timing-function: step-end} 100% {opacity: 0.035714}} #eoLIWrHuTh642_ts {animation: eoLIWrHuTh642_ts__ts 20000ms linear 1 normal forwards}@keyframes eoLIWrHuTh642_ts__ts { 0% {transform: translate(152.25px,50px) scale(0,0)} 4.8% {transform: translate(152.25px,50px) scale(0,0)} 7.6% {transform: translate(152.25px,50px) scale(-0.38,1)} 12.6% {transform: translate(152.25px,50px) scale(-0.77,1)} 18.2% {transform: translate(152.25px,50px) scale(-0.47,1)} 23.2% {transform: translate(152.25px,50px) scale(-0.25,1)} 25% {transform: translate(152.25px,50px) scale(-0.34428,1)} 27.4% {transform: translate(152.25px,50px) scale(-0.47,1)} 39% {transform: translate(152.25px,50px) scale(-0.69,1)} 42.8% {transform: translate(152.25px,50px) scale(-0.45,1)} 48.2% {transform: translate(152.25px,50px) scale(0,0)} 100% {transform: translate(152.25px,50px) scale(0,0)}} #eoLIWrHuTh642 {animation: eoLIWrHuTh642_c_o 20000ms linear 1 normal forwards}@keyframes eoLIWrHuTh642_c_o { 0% {opacity: 0} 6.665% {opacity: 0} 10% {opacity: 0.4;animation-timing-function: step-end} 100% {opacity: 0.142857}} #eoLIWrHuTh647 {animation-name: eoLIWrHuTh647__rd, eoLIWrHuTh647_s_w;animation-duration: 20000ms;animation-fill-mode: forwards;animation-timing-function: linear;animation-direction: normal;animation-iteration-count: 1;}@keyframes eoLIWrHuTh647__rd { 0% {rx: 0px;ry: 0px} 0.335% {rx: 0px;ry: 0px;animation-timing-function: cubic-bezier(0.413,0,0,1)} 5.335% {rx: 11.625px;ry: 11.625px} 100% {rx: 11.625px;ry: 11.625px}}@keyframes eoLIWrHuTh647_s_w { 0% {stroke-width: 0} 0.335% {stroke-width: 0;animation-timing-function: cubic-bezier(0.413,0,0,1)} 5.335% {stroke-width: 2} 100% {stroke-width: 2}} #eoLIWrHuTh648_to {animation: eoLIWrHuTh648_to__to 20000ms linear 1 normal forwards}@keyframes eoLIWrHuTh648_to__to { 0% {offset-distance: 0%} 5% {offset-distance: 100%} 100% {offset-distance: 100%}} #eoLIWrHuTh649 {animation: eoLIWrHuTh649__rd 20000ms linear 1 normal forwards}@keyframes eoLIWrHuTh649__rd { 0% {rx: 0px;ry: 0px} 0.835% {rx: 0px;ry: 0px;animation-timing-function: cubic-bezier(0.413,0,0,1)} 5.835% {rx: 2.5px;ry: 2.5px} 100% {rx: 2.5px;ry: 2.5px}} #eoLIWrHuTh650_to {animation: eoLIWrHuTh650_to__to 20000ms linear 1 normal forwards}@keyframes eoLIWrHuTh650_to__to { 0% {offset-distance: 0%} 8.165% {offset-distance: 100%} 100% {offset-distance: 100%}} #eoLIWrHuTh651 {animation: eoLIWrHuTh651_s_w 20000ms linear 1 normal forwards}@keyframes eoLIWrHuTh651_s_w { 0% {stroke-width: 0;animation-timing-function: cubic-bezier(0.413,0,0,1)} 5% {stroke-width: 1} 100% {stroke-width: 1}} #eoLIWrHuTh652_to {animation: eoLIWrHuTh652_to__to 20000ms linear 1 normal forwards}@keyframes eoLIWrHuTh652_to__to { 0% {offset-distance: 0%} 3.665% {offset-distance: 100%} 100% {offset-distance: 100%}} #eoLIWrHuTh653 {animation: eoLIWrHuTh653__rd 20000ms linear 1 normal forwards}@keyframes eoLIWrHuTh653__rd { 0% {rx: 0px;ry: 0px;animation-timing-function: cubic-bezier(0.413,0,0,1)} 5% {rx: 2px;ry: 2px} 100% {rx: 2px;ry: 2px}} #eoLIWrHuTh654_to {animation: eoLIWrHuTh654_to__to 20000ms linear 1 normal forwards}@keyframes eoLIWrHuTh654_to__to { 0% {offset-distance: 0%} 5% {offset-distance: 48.721382%} 7.5% {offset-distance: 100%} 100% {offset-distance: 100%}} #eoLIWrHuTh655 {animation: eoLIWrHuTh655__rd 20000ms linear 1 normal forwards}@keyframes eoLIWrHuTh655__rd { 0% {rx: 0px;ry: 0px;animation-timing-function: cubic-bezier(0.413,0,0,1)} 5% {rx: 2.5px;ry: 2.5px} 100% {rx: 2.5px;ry: 2.5px}} #eoLIWrHuTh656 {animation: eoLIWrHuTh656_c_o 20000ms linear 1 normal forwards}@keyframes eoLIWrHuTh656_c_o { 0% {opacity: 0} 0.165% {opacity: 1} 0.335% {opacity: 0} 0.5% {opacity: 1} 0.665% {opacity: 0} 0.835% {opacity: 1} 1% {opacity: 0} 1.165% {opacity: 1} 10% {opacity: 0} 10.165% {opacity: 1} 10.335% {opacity: 0} 10.5% {opacity: 1} 10.665% {opacity: 0} 10.835% {opacity: 1} 11% {opacity: 0} 11.165% {opacity: 1} 21.835% {opacity: 0} 22% {opacity: 1} 22.165% {opacity: 0} 22.335% {opacity: 1} 22.5% {opacity: 0} 22.665% {opacity: 1} 22.835% {opacity: 0} 23% {opacity: 1} 34.5% {opacity: 0} 34.665% {opacity: 1} 34.835% {opacity: 0} 35% {opacity: 1} 35.165% {opacity: 0} 35.335% {opacity: 1} 35.5% {opacity: 0} 35.665% {opacity: 1} 46% {opacity: 0} 46.165% {opacity: 1} 46.335% {opacity: 0} 46.5% {opacity: 1} 46.665% {opacity: 0} 46.835% {opacity: 1} 47% {opacity: 0} 47.165% {opacity: 1} 100% {opacity: 1}} #eoLIWrHuTh658_to {animation: eoLIWrHuTh658_to__to 20000ms linear 1 normal forwards}@keyframes eoLIWrHuTh658_to__to { 0% {offset-distance: 0%} 4% {offset-distance: 42.199119%} 6.335% {offset-distance: 100%} 100% {offset-distance: 100%}} #eoLIWrHuTh659 {animation: eoLIWrHuTh659__sz 20000ms linear 1 normal forwards}@keyframes eoLIWrHuTh659__sz { 0% {width: 0px;height: 1px} 1.335% {width: 0px;height: 1px;animation-timing-function: cubic-bezier(0.413,0,0,1)} 6.335% {width: 50px;height: 1px} 100% {width: 50px;height: 1px}} #eoLIWrHuTh660 {animation: eoLIWrHuTh660_c_o 20000ms linear 1 normal forwards}@keyframes eoLIWrHuTh660_c_o { 0% {opacity: 0} 0.165% {opacity: 1} 0.335% {opacity: 0} 0.5% {opacity: 1} 0.665% {opacity: 0} 0.835% {opacity: 1} 1% {opacity: 0} 1.165% {opacity: 1} 5.5% {opacity: 0} 5.665% {opacity: 1} 5.835% {opacity: 0} 6% {opacity: 1} 6.165% {opacity: 0} 6.335% {opacity: 1} 6.5% {opacity: 0} 6.665% {opacity: 1} 12.665% {opacity: 0} 12.835% {opacity: 1} 13% {opacity: 0} 13.165% {opacity: 1} 13.335% {opacity: 0} 13.5% {opacity: 1} 13.665% {opacity: 0} 13.835% {opacity: 1} 22.835% {opacity: 0} 23% {opacity: 1} 23.165% {opacity: 0} 23.335% {opacity: 1} 23.5% {opacity: 0} 23.665% {opacity: 1} 23.835% {opacity: 0} 24% {opacity: 1} 31.165% {opacity: 0} 31.335% {opacity: 1} 31.5% {opacity: 0} 31.665% {opacity: 1} 31.835% {opacity: 0} 32% {opacity: 1} 32.165% {opacity: 0} 32.335% {opacity: 1} 40.335% {opacity: 0} 40.5% {opacity: 1} 40.665% {opacity: 0} 40.835% {opacity: 1} 41% {opacity: 0} 41.165% {opacity: 1} 41.335% {opacity: 0} 41.5% {opacity: 1} 48.335% {opacity: 0} 48.5% {opacity: 1} 48.665% {opacity: 0} 48.835% {opacity: 1} 49% {opacity: 0} 49.165% {opacity: 1} 49.335% {opacity: 0} 49.5% {opacity: 1} 100% {opacity: 1}} #eoLIWrHuTh663 {animation: eoLIWrHuTh663__sz 20000ms linear 1 normal forwards}@keyframes eoLIWrHuTh663__sz { 0% {width: 1px;height: 0px} 1.335% {width: 1px;height: 0px;animation-timing-function: cubic-bezier(0.413,0,0,1)} 6.335% {width: 1px;height: 10px} 100% {width: 1px;height: 10px}} #eoLIWrHuTh664_to {animation: eoLIWrHuTh664_to__to 20000ms linear 1 normal forwards}@keyframes eoLIWrHuTh664_to__to { 0% {offset-distance: 0%} 0.335% {offset-distance: 0%;animation-timing-function: cubic-bezier(0.413,0,0,1)} 5.335% {offset-distance: 100%} 100% {offset-distance: 100%}} #eoLIWrHuTh665 {animation: eoLIWrHuTh665__sz 20000ms linear 1 normal forwards}@keyframes eoLIWrHuTh665__sz { 0% {width: 0px;height: 1px} 0.835% {width: 0px;height: 1px;animation-timing-function: cubic-bezier(0.413,0,0,1)} 5.835% {width: 30px;height: 1px} 100% {width: 30px;height: 1px}} #eoLIWrHuTh666_to {animation: eoLIWrHuTh666_to__to 20000ms linear 1 normal forwards}@keyframes eoLIWrHuTh666_to__to { 0% {offset-distance: 0%} 0.835% {offset-distance: 0%;animation-timing-function: cubic-bezier(0.413,0,0,1)} 5.835% {offset-distance: 100%} 100% {offset-distance: 100%}} #eoLIWrHuTh667 {animation: eoLIWrHuTh667__sz 20000ms linear 1 normal forwards}@keyframes eoLIWrHuTh667__sz { 0% {width: 0px;height: 1px;animation-timing-function: cubic-bezier(0.413,0,0,1)} 5% {width: 100px;height: 1px} 100% {width: 100px;height: 1px}} #eoLIWrHuTh668_to {animation: eoLIWrHuTh668_to__to 20000ms linear 1 normal forwards}@keyframes eoLIWrHuTh668_to__to { 0% {offset-distance: 0%} 2.5% {offset-distance: 100%} 100% {offset-distance: 100%}} #eoLIWrHuTh669 {animation: eoLIWrHuTh669_s_w 20000ms linear 1 normal forwards}@keyframes eoLIWrHuTh669_s_w { 0% {stroke-width: 0} 2.5% {stroke-width: 0;animation-timing-function: cubic-bezier(0.413,0,0,1)} 7.5% {stroke-width: 1} 100% {stroke-width: 1}} #eoLIWrHuTh671 {animation-name: eoLIWrHuTh671__sz, eoLIWrHuTh671_s_w;animation-duration: 20000ms;animation-fill-mode: forwards;animation-timing-function: linear;animation-direction: normal;animation-iteration-count: 1;}@keyframes eoLIWrHuTh671__sz { 0% {width: 0px;height: 0px} 5% {width: 0px;height: 0px;animation-timing-function: cubic-bezier(0.413,0,0,1)} 10% {width: 15px;height: 5px} 100% {width: 15px;height: 5px}}@keyframes eoLIWrHuTh671_s_w { 0% {stroke-width: 0} 2.5% {stroke-width: 0;animation-timing-function: cubic-bezier(0.413,0,0,1)} 7.5% {stroke-width: 1} 100% {stroke-width: 1}} #eoLIWrHuTh673 {animation: eoLIWrHuTh673__sz 20000ms linear 1 normal forwards}@keyframes eoLIWrHuTh673__sz { 0% {width: 0px;height: 0px} 5% {width: 0px;height: 0px;animation-timing-function: cubic-bezier(0.413,0,0,1)} 10% {width: 2px;height: 10px} 100% {width: 2px;height: 10px}} #eoLIWrHuTh674_to {animation: eoLIWrHuTh674_to__to 20000ms linear 1 normal forwards}@keyframes eoLIWrHuTh674_to__to { 0% {offset-distance: 0%} 0.835% {offset-distance: 0%;animation-timing-function: cubic-bezier(0.413,0,0,1)} 5.835% {offset-distance: 100%} 100% {offset-distance: 100%}} #eoLIWrHuTh675 {animation: eoLIWrHuTh675__sz 20000ms linear 1 normal forwards}@keyframes eoLIWrHuTh675__sz { 0% {width: 0px;height: 0px} 0.835% {width: 0px;height: 0px;animation-timing-function: cubic-bezier(0.413,0,0,1)} 5.835% {width: 18px;height: 18px} 100% {width: 18px;height: 18px}} #eoLIWrHuTh676_to {animation: eoLIWrHuTh676_to__to 20000ms linear 1 normal forwards}@keyframes eoLIWrHuTh676_to__to { 0% {offset-distance: 0%} 1.665% {offset-distance: 0%;animation-timing-function: cubic-bezier(0.413,0,0,1)} 6.665% {offset-distance: 100%} 100% {offset-distance: 100%}} #eoLIWrHuTh677 {animation: eoLIWrHuTh677__sz 20000ms linear 1 normal forwards}@keyframes eoLIWrHuTh677__sz { 0% {width: 0px;height: 0px} 1.665% {width: 0px;height: 0px;animation-timing-function: cubic-bezier(0.413,0,0,1)} 6.665% {width: 15px;height: 15px} 100% {width: 15px;height: 15px}} #eoLIWrHuTh678_to {animation: eoLIWrHuTh678_to__to 20000ms linear 1 normal forwards}@keyframes eoLIWrHuTh678_to__to { 0% {offset-distance: 0%} 1.665% {offset-distance: 0%;animation-timing-function: cubic-bezier(0.413,0,0,1)} 6.665% {offset-distance: 100%} 100% {offset-distance: 100%}} #eoLIWrHuTh679 {animation: eoLIWrHuTh679__sz 20000ms linear 1 normal forwards}@keyframes eoLIWrHuTh679__sz { 0% {width: 1px;height: 0px} 1.665% {width: 1px;height: 0px;animation-timing-function: cubic-bezier(0.413,0,0,1)} 6.665% {width: 1px;height: 10px} 100% {width: 1px;height: 10px}} #eoLIWrHuTh680_to {animation: eoLIWrHuTh680_to__to 20000ms linear 1 normal forwards}@keyframes eoLIWrHuTh680_to__to { 0% {offset-distance: 0%} 0.5% {offset-distance: 0%;animation-timing-function: cubic-bezier(0.413,0,0,1)} 5.5% {offset-distance: 100%} 100% {offset-distance: 100%}} #eoLIWrHuTh681 {animation: eoLIWrHuTh681__sz 20000ms linear 1 normal forwards}@keyframes eoLIWrHuTh681__sz { 0% {width: 0px;height: 1px} 0.5% {width: 0px;height: 1px;animation-timing-function: cubic-bezier(0.413,0,0,1)} 5.5% {width: 35px;height: 1px} 100% {width: 35px;height: 1px}} #eoLIWrHuTh683 {animation: eoLIWrHuTh683__sz 20000ms linear 1 normal forwards}@keyframes eoLIWrHuTh683__sz { 0% {width: 1px;height: 0px} 1.665% {width: 1px;height: 0px;animation-timing-function: cubic-bezier(0.413,0,0,1)} 6.665% {width: 1px;height: 15px} 100% {width: 1px;height: 15px}} #eoLIWrHuTh685 {animation: eoLIWrHuTh685__sz 20000ms linear 1 normal forwards}@keyframes eoLIWrHuTh685__sz { 0% {width: 1px;height: 0px} 2% {width: 1px;height: 0px;animation-timing-function: cubic-bezier(0.413,0,0,1)} 7% {width: 1px;height: 20px} 100% {width: 1px;height: 20px}} #eoLIWrHuTh687 {animation: eoLIWrHuTh687__sz 20000ms linear 1 normal forwards}@keyframes eoLIWrHuTh687__sz { 0% {width: 1px;height: 0px} 2.335% {width: 1px;height: 0px;animation-timing-function: cubic-bezier(0.413,0,0,1)} 7.335% {width: 1px;height: 25px} 100% {width: 1px;height: 25px}} #eoLIWrHuTh689 {animation: eoLIWrHuTh689__sz 20000ms linear 1 normal forwards}@keyframes eoLIWrHuTh689__sz { 0% {width: 1px;height: 0px} 2.665% {width: 1px;height: 0px;animation-timing-function: cubic-bezier(0.413,0,0,1)} 7.665% {width: 1px;height: 55px} 100% {width: 1px;height: 55px}} #eoLIWrHuTh691 {animation: eoLIWrHuTh691__sz 20000ms linear 1 normal forwards}@keyframes eoLIWrHuTh691__sz { 0% {width: 1px;height: 0px} 3% {width: 1px;height: 0px;animation-timing-function: cubic-bezier(0.413,0,0,1)} 8% {width: 1px;height: 45px} 100% {width: 1px;height: 45px}} #eoLIWrHuTh693 {animation: eoLIWrHuTh693__sz 20000ms linear 1 normal forwards}@keyframes eoLIWrHuTh693__sz { 0% {width: 1px;height: 0px} 3.335% {width: 1px;height: 0px;animation-timing-function: cubic-bezier(0.413,0,0,1)} 8.335% {width: 1px;height: 40px} 100% {width: 1px;height: 40px}} #eoLIWrHuTh694_to {animation: eoLIWrHuTh694_to__to 20000ms linear 1 normal forwards}@keyframes eoLIWrHuTh694_to__to { 0% {offset-distance: 0%} 3.335% {offset-distance: 0%;animation-timing-function: cubic-bezier(0.413,0,0,1)} 8.335% {offset-distance: 100%} 100% {offset-distance: 100%}} #eoLIWrHuTh695 {animation: eoLIWrHuTh695__sz 20000ms linear 1 normal forwards}@keyframes eoLIWrHuTh695__sz { 0% {width: 0px;height: 0px} 3.335% {width: 0px;height: 0px;animation-timing-function: cubic-bezier(0.413,0,0,1)} 8.335% {width: 18px;height: 18px} 100% {width: 18px;height: 18px}} #eoLIWrHuTh696_to {animation: eoLIWrHuTh696_to__to 20000ms linear 1 normal forwards}@keyframes eoLIWrHuTh696_to__to { 0% {offset-distance: 0%} 4.335% {offset-distance: 0%;animation-timing-function: cubic-bezier(0.413,0,0,1)} 9.335% {offset-distance: 100%} 100% {offset-distance: 100%}} #eoLIWrHuTh697 {animation: eoLIWrHuTh697__sz 20000ms linear 1 normal forwards}@keyframes eoLIWrHuTh697__sz { 0% {width: 0px;height: 0px} 4.335% {width: 0px;height: 0px;animation-timing-function: cubic-bezier(0.413,0,0,1)} 9.335% {width: 30px;height: 30px} 100% {width: 30px;height: 30px}} #eoLIWrHuTh698 {animation: eoLIWrHuTh698_c_o 20000ms linear 1 normal forwards}@keyframes eoLIWrHuTh698_c_o { 0% {opacity: 0} 4.5% {opacity: 0} 4.665% {opacity: 1} 4.835% {opacity: 0} 5% {opacity: 1} 5.165% {opacity: 0} 5.335% {opacity: 1} 100% {opacity: 1}} #eoLIWrHuTh6100 {animation: eoLIWrHuTh6100_c_o 20000ms linear 1 normal forwards}@keyframes eoLIWrHuTh6100_c_o { 0% {opacity: 0} 5% {opacity: 0} 5.165% {opacity: 1} 5.335% {opacity: 0} 5.5% {opacity: 1} 5.665% {opacity: 0} 5.835% {opacity: 1} 100% {opacity: 1}} #eoLIWrHuTh6102 {animation: eoLIWrHuTh6102_c_o 20000ms linear 1 normal forwards}@keyframes eoLIWrHuTh6102_c_o { 0% {opacity: 0} 4.835% {opacity: 0} 5% {opacity: 1} 5.165% {opacity: 0} 5.335% {opacity: 1} 5.5% {opacity: 0} 5.665% {opacity: 1} 100% {opacity: 1}} #eoLIWrHuTh6104_to {animation: eoLIWrHuTh6104_to__to 20000ms linear 1 normal forwards}@keyframes eoLIWrHuTh6104_to__to { 0% {offset-distance: 0%} 4.335% {offset-distance: 0%;animation-timing-function: cubic-bezier(0.413,0,0,1)} 9.335% {offset-distance: 100%} 100% {offset-distance: 100%}} #eoLIWrHuTh6104 {animation: eoLIWrHuTh6104_c_o 20000ms linear 1 normal forwards}@keyframes eoLIWrHuTh6104_c_o { 0% {opacity: 0} 4.665% {opacity: 0} 4.835% {opacity: 1} 5% {opacity: 0} 5.165% {opacity: 1} 5.335% {opacity: 0} 5.5% {opacity: 1} 100% {opacity: 1}} #eoLIWrHuTh6105 {animation: eoLIWrHuTh6105__m 20000ms linear 1 normal forwards}@keyframes eoLIWrHuTh6105__m { 0% {d: path('M0,0L0,0L0,0L0,0Z');animation-timing-function: cubic-bezier(0.413,0,0,1)} 5% {d: path('M0,-3L2.598076,1.5L-2.598076,1.5L0,-3Z')} 100% {d: path('M0,-3L2.598076,1.5L-2.598076,1.5L0,-3Z')}} #eoLIWrHuTh6108_ts {animation: eoLIWrHuTh6108_ts__ts 20000ms linear 1 normal forwards}@keyframes eoLIWrHuTh6108_ts__ts { 0% {transform: translate(125.5px,140.5px) scale(0.9,0.9)} 5.835% {transform: translate(125.5px,140.5px) scale(0.9,0.9);animation-timing-function: cubic-bezier(0.333,0,0.667,1)} 12.335% {transform: translate(125.5px,140.5px) scale(1.2,1.2);animation-timing-function: cubic-bezier(0.333,0,0.667,1)} 18.335% {transform: translate(125.5px,140.5px) scale(0.9,0.9)} 100% {transform: translate(125.5px,140.5px) scale(0.9,0.9)}} #eoLIWrHuTh6108 {animation: eoLIWrHuTh6108_c_o 20000ms linear 1 normal forwards}@keyframes eoLIWrHuTh6108_c_o { 0% {opacity: 0} 5.785% {opacity: 0;animation-timing-function: step-end} 5.835% {opacity: 1;animation-timing-function: step-end} 100% {opacity: 0.05835}} #eoLIWrHuTh6117 {animation: eoLIWrHuTh6117_c_o 20000ms linear 1 normal forwards}@keyframes eoLIWrHuTh6117_c_o { 0% {opacity: 1} 7.335% {opacity: 1} 7.5% {opacity: 0} 7.665% {opacity: 1} 7.835% {opacity: 0} 8% {opacity: 1} 8.165% {opacity: 0} 8.335% {opacity: 1} 27.5% {opacity: 1} 27.665% {opacity: 0} 27.835% {opacity: 1} 28% {opacity: 0} 28.165% {opacity: 1} 28.335% {opacity: 0} 28.5% {opacity: 1} 100% {opacity: 1}} #eoLIWrHuTh6119 {animation: eoLIWrHuTh6119__rd 20000ms linear 1 normal forwards}@keyframes eoLIWrHuTh6119__rd { 0% {rx: 0px;ry: 0px;animation-timing-function: cubic-bezier(0.413,0,0,1)} 5% {rx: 1px;ry: 1px} 100% {rx: 1px;ry: 1px}} #eoLIWrHuTh6119_to {animation: eoLIWrHuTh6119_to__to 20000ms linear 1 normal forwards}@keyframes eoLIWrHuTh6119_to__to { 0% {offset-distance: 0%;animation-timing-function: cubic-bezier(0.413,0,0,1)} 5% {offset-distance: 100%} 100% {offset-distance: 100%}} #eoLIWrHuTh6121 {animation: eoLIWrHuTh6121__rd 20000ms linear 1 normal forwards}@keyframes eoLIWrHuTh6121__rd { 0% {rx: 0px;ry: 0px} 0.335% {rx: 0px;ry: 0px;animation-timing-function: cubic-bezier(0.413,0,0,1)} 5.335% {rx: 1.5px;ry: 1.5px} 100% {rx: 1.5px;ry: 1.5px}} #eoLIWrHuTh6121_to {animation: eoLIWrHuTh6121_to__to 20000ms linear 1 normal forwards}@keyframes eoLIWrHuTh6121_to__to { 0% {offset-distance: 0%} 0.335% {offset-distance: 0%;animation-timing-function: cubic-bezier(0.413,0,0,1)} 5.335% {offset-distance: 100%} 100% {offset-distance: 100%}} #eoLIWrHuTh6123 {animation: eoLIWrHuTh6123__rd 20000ms linear 1 normal forwards}@keyframes eoLIWrHuTh6123__rd { 0% {rx: 0px;ry: 0px} 0.665% {rx: 0px;ry: 0px;animation-timing-function: cubic-bezier(0.413,0,0,1)} 5.665% {rx: 1px;ry: 1px} 100% {rx: 1px;ry: 1px}} #eoLIWrHuTh6123_to {animation: eoLIWrHuTh6123_to__to 20000ms linear 1 normal forwards}@keyframes eoLIWrHuTh6123_to__to { 0% {offset-distance: 0%} 0.665% {offset-distance: 0%;animation-timing-function: cubic-bezier(0.413,0,0,1)} 5.665% {offset-distance: 100%} 100% {offset-distance: 100%}} #eoLIWrHuTh6125 {animation: eoLIWrHuTh6125__rd 20000ms linear 1 normal forwards}@keyframes eoLIWrHuTh6125__rd { 0% {rx: 0px;ry: 0px} 1% {rx: 0px;ry: 0px;animation-timing-function: cubic-bezier(0.413,0,0,1)} 6% {rx: 0.5px;ry: 0.5px} 100% {rx: 0.5px;ry: 0.5px}} #eoLIWrHuTh6125_to {animation: eoLIWrHuTh6125_to__to 20000ms linear 1 normal forwards}@keyframes eoLIWrHuTh6125_to__to { 0% {offset-distance: 0%} 1% {offset-distance: 0%;animation-timing-function: cubic-bezier(0.413,0,0,1)} 6% {offset-distance: 100%} 100% {offset-distance: 100%}}
]]></style>
<g transform="translate(500 250)" opacity="0.33"><path d="M-449.234,-204.596c0,0,18.172-15.891,18.172-15.891s.545-.378.545-.378.909-.757.909-.757s1.453,0,1.453,0s.728,0,.728,0s252.59-.378,252.59-.378.727,0,.727,0s1.271,0,1.271,0s.909.757.909.757.545.378.545.378s18.899,14.629,18.899,14.629s169.726-.126,169.726-.126.546,0,.546,0s1.453,0,1.453,0s.727.631.727.631.546.378.546.378s14.173,10.215,14.173,10.215s73.233,0,73.233,0s20.171-10.593,20.171-10.593.364-.253.364-.253.908-.378.908-.378s1.454,0,1.454,0s312.376.126,312.376.126.545,0,.545,0s1.272,0,1.272,0s.908.631.908.631.364.252.364.252s10.359,7.062,10.359,7.062.363.253.363.253.908.63.908.63s0,.883,0,.883s0,.504,0,.504-.908,398.014-.908,398.014s0,.504,0,.504s0,.883,0,.883-.909.63-.909.63-.545.379-.545.379-17.627,11.602-17.627,11.602-.363.378-.363.378-.909.631-.909.631-545.704,0-545.704,0-.909-.631-.909-.631-.363-.252-.363-.252-17.809-10.719-17.809-10.719-168.272-.126-168.272-.126-13.447,10.593-13.447,10.593-.545.378-.545.378-.909.757-.909.757-47.065,0-47.065,0s.181-2.144.181-2.144s0-1.135,0-1.135s0-1.892,0-1.892-12.72,0-12.72,0s0,1.892,0,1.892s0,1.135,0,1.135s0,2.144,0,2.144-16.718,0-16.718,0s0-2.144,0-2.144s0-1.135,0-1.135s0-1.513,0-1.513-7.087,0-7.087,0s0,4.792,0,4.792-52.518,0-52.518,0-.908-.631-.908-.631-.545-.378-.545-.378-13.629-9.08-13.629-9.08-.545-.378-.545-.378-.908-.631-.908-.631s0-1.261,0-1.261-.182-248.569-.182-248.569s0-.631,0-.631s0-.883,0-.883s1.09-.63,1.09-.63.545-.378.545-.378s7.633-4.414,7.633-4.414-.728-59.147-.728-59.147s0-1.136,0-1.136s0-2.143,0-2.143s4.725,0,4.725,0s4.907,0,4.907,0s0-28.754,0-28.754-4.725,0-4.725,0-1.635,0-1.635,0-3.09,0-3.09,0s0-2.144,0-2.144s0-1.135,0-1.135s0-10.215,0-10.215s0-1.135,0-1.135s0-2.144,0-2.144s3.09,0,3.09,0s1.635,0,1.635,0s.545,0,.545,0-.181-43.762-.181-43.762s0-.378,0-.378s0-.757,0-.757.544-.63.544-.63.364-.252.364-.252Z" fill="#ff3b3b" stroke-width="0"/><path d="M-425.065,-215.19c0,0-15.81,13.746-15.81,13.746s.363,45.906.363,45.906s0,1.135,0,1.135s0,2.144,0,2.144-3.089,0-3.089,0-1.635,0-1.635,0-.727,0-.727,0s0,3.783,0,3.783s4.907.126,4.907.126s1.635,0,1.635,0s2.908,0,2.908,0s0,3.153,0,3.153s0,35.186,0,35.186s0,3.152,0,3.152-4.543,0-4.543,0-4.907,0-4.907,0s.545,57.508.545,57.508s0,.504,0,.504s0,1.009,0,1.009-1.09.631-1.09.631-.546.378-.546.378-7.631,4.414-7.631,4.414.181,245.669.181,245.669s10.903,7.314,10.903,7.314s39.615,0,39.615,0s0-4.792,0-4.792s3.089,0,3.089,0s1.636,0,1.636,0s16.355,0,16.355,0s1.635,0,1.635,0s1.091,0,1.091,0s0-.252,0-.252s3.088,0,3.088,0s1.455,0,1.455,0s21.987-.126,21.987-.126s1.636,0,1.636,0s3.089,0,3.089,0s0,2.144,0,2.144s0,1.135,0,1.135s0,1.891,0,1.891s33.436,0,33.436,0s13.448-10.593,13.448-10.593.545-.379.545-.379.909-.63.909-.63s1.272,0,1.272,0s.727,0,.727,0s172.27,0,172.27,0s1.817,0,1.817,0s.726.504.726.504.546.253.546.253s17.626,10.845,17.626,10.845s538.618,0,538.618,0s14.719-9.837,14.719-9.837s1.09-395.364,1.09-395.364-7.632-5.171-7.632-5.171-308.742,0-308.742,0-20.17,10.467-20.17,10.467-.364.253-.364.253-.727.378-.727.378-1.635,0-1.635,0-76.868,0-76.868,0-1.999,0-1.999,0-.908-.631-.908-.631-.545-.378-.545-.378-13.993-10.089-13.993-10.089-169.908,0-169.908,0-.727,0-.727,0-1.271,0-1.271,0-.909-.631-.909-.631-.545-.378-.545-.378-18.899-14.629-18.899-14.629-248.047.252-248.047.252Z" fill="#ff3b3b" stroke-width="0"/></g><g transform="translate(500 250)" opacity="0.11"><path d="M-429.361,-214.633c0,0,253.615.496,253.615.496s19.621,14.745,19.621,14.745s170.954.247,170.954.247s15.079,10.532,15.079,10.532s76.848,0,76.848,0s21.801-11.399,21.801-11.399s311.569,0,311.569,0s11.99,7.93,11.99,7.93-1.998,388.692-1.998,388.692-20.166,13.382-20.166,13.382-537.752.372-537.752.372-19.439-10.904-19.439-10.904-173.134-.124-173.134-.124-14.716,11.152-14.716,11.152-131.531.371-131.531.371-14.534-10.408-14.534-10.408-.182-244.094-.182-244.094s9.266-5.328,9.266-5.328-.364-57.616-.364-57.616s9.992-.248,9.992-.248-.182-35.437-.182-35.437-4.178,0-4.178,0-.182-12.762-.182-12.762.182-44.358.182-44.358s17.441-15.241,17.441-15.241Z" fill="#ff4332" stroke-width="0"/></g><g transform="translate(500 250)"><g><path d="M-136.101,-191.682c0,0,64.413,0,64.413,0s20.38-9.232,20.38-9.232-104.809,0-104.809,0s20.016,9.232,20.016,9.232Z" fill="#ea011d" stroke-width="0"/></g><g><path d="M145.024,200.883c0,0,64.413,0,64.413,0s20.38,9.232,20.38,9.232-104.809,0-104.809,0s20.016-9.232,20.016-9.232Z" fill="#ea011d" stroke-width="0"/></g><g><path d="M471.999,-139.692c0,0,0-43.453,0-43.453s-13.647-13.91-13.647-13.91s0,71.027,0,71.027s13.647-13.664,13.647-13.664Z" fill="#ea011d" stroke-width="0"/></g><g><path d="M434.703,173.722c0,0,0-43.453,0-43.453s13.647-13.91,13.647-13.91s0,71.027,0,71.027-13.647-13.664-13.647-13.664Z" fill="#ea011d" stroke-width="0"/></g><g><path d="M-279.49,189.383c0,0,64.233,0,64.233,0s20.561,9.232,20.561,9.232-104.992,0-104.992,0s20.198-9.232,20.198-9.232Z" fill="#ea011d" stroke-width="0"/></g><g><path d="M-472,9.626c0,0,0-43.575,0-43.575s13.647-13.91,13.647-13.91s0,71.026,0,71.026-13.647-13.541-13.647-13.541Z" fill="#ea011d" stroke-width="0"/></g></g><g transform="matrix(0.63 0 0 0.63 837.029 433)"><g id="eoLIWrHuTh621" transform="matrix(-1 0 0 1 -52.25 50)" opacity="0"><rect width="4" height="11" rx="0" ry="0" transform="translate(-2 -5.5)" fill="#fff" stroke="#fff" stroke-width="0.5"/></g></g><g transform="matrix(0.63 0 0 0.63 837.029 433)"><g id="eoLIWrHuTh624" transform="matrix(-1 0 0 1 -52.25 50)" opacity="0"><rect width="4" height="11" rx="0" ry="0" transform="translate(-2 -5.5)" fill="#fff" stroke="#fff" stroke-width="0.5"/></g></g><g transform="matrix(0.63 0 0 0.63 837.029 433)"><g id="eoLIWrHuTh627_ts" transform="translate(152.25,50) scale(0,0)"><g id="eoLIWrHuTh627" transform="translate(0,0)" opacity="0"><rect width="409" height="11" rx="0" ry="0" transform="translate(-204.5 -5.5)" fill="#fff" stroke="#fff" stroke-width="0.5"/></g></g></g><g transform="matrix(0.63 0 0 0.63 837.029 433)"><g id="eoLIWrHuTh630_ts" transform="translate(152.25,50) scale(0,0)"><g id="eoLIWrHuTh630" transform="translate(0,0)" opacity="0"><rect width="409" height="11" rx="0" ry="0" transform="translate(-204.5 -5.5)" fill="#fff" stroke="#fff" stroke-width="0.5"/></g></g></g><g transform="matrix(0.63 0 0 0.63 229.029 -1)"><g id="eoLIWrHuTh633" transform="matrix(-1 0 0 1 -52.25 50)" opacity="0"><rect width="4" height="11" rx="0" ry="0" transform="translate(-2 -5.5)" fill="#fff" stroke="#fff" stroke-width="0.5"/></g></g><g transform="matrix(0.63 0 0 0.63 229.029 -1)"><g id="eoLIWrHuTh636" transform="matrix(-1 0 0 1 -52.25 50)" opacity="0"><rect width="4" height="11" rx="0" ry="0" transform="translate(-2 -5.5)" fill="#fff" stroke="#fff" stroke-width="0.5"/></g></g><g transform="matrix(0.63 0 0 0.63 229.029 -1)"><g id="eoLIWrHuTh639_ts" transform="translate(152.25,50) scale(0,0)"><g id="eoLIWrHuTh639" transform="translate(0,0)" opacity="0"><rect width="409" height="11" rx="0" ry="0" transform="translate(-204.5 -5.5)" fill="#fff" stroke="#fff" stroke-width="0.5"/></g></g></g><g transform="matrix(0.63 0 0 0.63 229.029 -1)"><g id="eoLIWrHuTh642_ts" transform="translate(152.25,50) scale(0,0)"><g id="eoLIWrHuTh642" transform="translate(0,0)" opacity="0"><rect width="409" height="11" rx="0" ry="0" transform="translate(-204.5 -5.5)" fill="#fff" stroke="#fff" stroke-width="0.5"/></g></g></g><g transform="matrix(0.52781 0 0 0.52781 219.471 464.382)" mask="url(#eoLIWrHuTh6106)"><g><g transform="translate(-383 0)"><ellipse id="eoLIWrHuTh647" rx="0" ry="0" paint-order="stroke fill markers" fill="none" fill-rule="evenodd" stroke="#fff" stroke-width="0"/></g><g id="eoLIWrHuTh648_to" style="offset-path:path('M-383,0C-377.167,0,-353.833,0,-348,0');offset-rotate:0deg"><g transform="translate(0,0)"><ellipse id="eoLIWrHuTh649" rx="0" ry="0" transform="translate(-127 0)" paint-order="stroke fill markers" fill="none" fill-rule="evenodd" stroke="#fff"/></g></g><g id="eoLIWrHuTh650_to" style="offset-path:path('M-383,0C-388,0,-408,0,-413,0');offset-rotate:0deg"><g transform="translate(0,0)"><ellipse id="eoLIWrHuTh651" rx="2.5" ry="2.5" transform="translate(-260 0)" paint-order="stroke fill markers" fill="none" fill-rule="evenodd" stroke="#fff" stroke-width="0"/></g></g><g id="eoLIWrHuTh652_to" style="offset-path:path('M-383,0C-381.167,0,-373.833,0,-372,0');offset-rotate:0deg"><g transform="translate(0,0)"><ellipse id="eoLIWrHuTh653" rx="0" ry="0" transform="translate(-79 0)" paint-order="stroke fill markers" fill="none" fill-rule="evenodd" stroke="#fff"/></g></g><g id="eoLIWrHuTh654_to" style="offset-path:path('M-383,0C-379.833,0,-363.833,0,-364,0C-364.167,0,-380.667,0,-384,0');offset-rotate:0deg"><g transform="translate(0,0)"><ellipse id="eoLIWrHuTh655" rx="0" ry="0" transform="translate(-245 0)" fill="#fff" stroke-width="0"/></g></g><g id="eoLIWrHuTh656" transform="translate(-383 0)" opacity="0"><ellipse rx="2.5" ry="2.5" fill="#fff" stroke-width="0"/></g><g id="eoLIWrHuTh658_to" style="offset-path:path('M-373.75,0C-367.583,0,-334.417,0,-336.75,0C-339.083,0,-379.25,0,-387.75,0');offset-rotate:0deg"><g transform="translate(0,0)"><rect id="eoLIWrHuTh659" width="0" height="1" rx="100" ry="100" transform="translate(0 -0.5)" fill="#fff" stroke-width="0"/></g></g><g id="eoLIWrHuTh660" transform="translate(-336.75 0)" opacity="0"><rect width="10" height="3" rx="0" ry="0" transform="translate(8 -1.5)" fill="#fff" stroke-width="0"/></g><g transform="translate(-336.75 0)"><rect id="eoLIWrHuTh663" width="1" height="0" rx="0" ry="0" transform="translate(-75.5 0)" fill="#fff" stroke-width="0"/></g><g id="eoLIWrHuTh664_to" style="offset-path:path('M-327.75,0C-329.25,0,-335.25,0,-336.75,0');offset-rotate:0deg"><g transform="translate(0,0)"><rect id="eoLIWrHuTh665" width="0" height="1" rx="0" ry="0" transform="translate(-90 -0.5)" fill="#fff" stroke-width="0"/></g></g><g id="eoLIWrHuTh666_to" style="offset-path:path('M-274.75,0C-285.083,0,-326.417,0,-336.75,0');offset-rotate:0deg"><g transform="translate(0,0)"><rect id="eoLIWrHuTh667" width="0" height="1" rx="0" ry="0" transform="translate(-240 -0.5)" fill="#fff" stroke-width="0"/></g></g><g id="eoLIWrHuTh668_to" style="offset-path:path('M-336.75,0C-339.417,0,-350.083,0,-352.75,0');offset-rotate:0deg"><g transform="translate(0,0)"><rect id="eoLIWrHuTh669" width="35" height="10" rx="5" ry="5" transform="translate(-257.5 -5)" paint-order="stroke fill markers" fill="none" fill-rule="evenodd" stroke="#fff" stroke-width="0"/></g></g><g transform="translate(-336.75 0)"><rect id="eoLIWrHuTh671" width="0" height="0" rx="8" ry="8" transform="translate(-100 0)" paint-order="stroke fill markers" fill="none" fill-rule="evenodd" stroke="#fff" stroke-width="0"/></g><g transform="translate(-336.75 0)"><rect id="eoLIWrHuTh673" width="0" height="0" rx="0" ry="0" transform="translate(-216 0)" paint-order="stroke fill markers" fill="none" fill-rule="evenodd" stroke="#fff"/></g><g id="eoLIWrHuTh674_to" style="offset-path:path('M-636.75,0C-650.583,0,-705.917,0,-719.75,0');offset-rotate:0deg"><g transform="rotate(45) translate(0,0)"><rect id="eoLIWrHuTh675" width="0" height="0" rx="0" ry="0" paint-order="stroke fill markers" fill="none" fill-rule="evenodd" stroke="#fff" stroke-dasharray="0,0"/></g></g><g id="eoLIWrHuTh676_to" style="offset-path:path('M-664,0C-672.333,0,-705.667,0,-714,0');offset-rotate:0deg"><g transform="rotate(45) translate(0,0)"><rect id="eoLIWrHuTh677" width="0" height="0" rx="0" ry="0" paint-order="stroke fill markers" fill="none" fill-rule="evenodd" stroke="#fff" stroke-dasharray="0,0"/></g></g><g id="eoLIWrHuTh678_to" style="offset-path:path('M-354.75,0C-351.75,0,-339.75,0,-336.75,0');offset-rotate:0deg"><g transform="translate(0,0)"><rect id="eoLIWrHuTh679" width="1" height="0" rx="0" ry="0" transform="translate(154.5 0)" fill="#fff" stroke-width="0"/></g></g><g id="eoLIWrHuTh680_to" style="offset-path:path('M-370.75,0C-365.083,0,-342.417,0,-336.75,0');offset-rotate:0deg"><g transform="translate(0,0)"><rect id="eoLIWrHuTh681" width="0" height="1" rx="0" ry="0" transform="translate(124 -0.5)" fill="#fff" stroke-width="0"/></g></g><g transform="translate(-336.75 0)"><rect id="eoLIWrHuTh683" width="1" height="0" rx="0" ry="0" transform="translate(159.5 0)" fill="#fff" stroke-width="0"/></g><g transform="translate(-336.75 0)"><rect id="eoLIWrHuTh685" width="1" height="0" rx="0" ry="0" transform="translate(164.5 0)" fill="#fff" stroke-width="0"/></g><g transform="translate(-336.75 0)"><rect id="eoLIWrHuTh687" width="1" height="0" rx="0" ry="0" transform="translate(169.5 0)" fill="#fff" stroke-width="0"/></g><g transform="translate(-336.75 0)"><rect id="eoLIWrHuTh689" width="1" height="0" rx="0" ry="0" transform="translate(174.5 0)" fill="#fff" stroke-width="0"/></g><g transform="translate(-336.75 0)"><rect id="eoLIWrHuTh691" width="1" height="0" rx="0" ry="0" transform="translate(179.5 0)" fill="#fff" stroke-width="0"/></g><g transform="translate(-336.75 0)"><rect id="eoLIWrHuTh693" width="1" height="0" rx="0" ry="0" transform="translate(184.5 0)" fill="#fff" stroke-width="0"/></g><g id="eoLIWrHuTh694_to" style="offset-path:path('M-9,0C-14.167,0,-34.833,0,-40,0');offset-rotate:0deg"><g transform="rotate(45) translate(0,0)"><rect id="eoLIWrHuTh695" width="0" height="0" rx="0" ry="0" paint-order="stroke fill markers" fill="none" fill-rule="evenodd" stroke="#fff" stroke-dasharray="0,0"/></g></g><g id="eoLIWrHuTh696_to" style="offset-path:path('M-38,0C-40,0,-48,0,-50,0');offset-rotate:0deg"><g transform="rotate(45) translate(0,0)"><rect id="eoLIWrHuTh697" width="0" height="0" rx="0" ry="0" paint-order="stroke fill markers" fill="none" fill-rule="evenodd" stroke="#fff" stroke-dasharray="0,0"/></g></g><g id="eoLIWrHuTh698" transform="matrix(0 1 -1 0 30 0)" opacity="0"><path d="M0,-7L6.062178,3.5h-12.124356L0,-7Z" fill="#fff" stroke-width="0"/></g><g id="eoLIWrHuTh6100" transform="matrix(0 1 -1 0 20 0)" opacity="0"><path d="M0,-5L4.330127,2.5h-8.660254L0,-5Z" fill="#fff" stroke-width="0"/></g><g id="eoLIWrHuTh6102" transform="translate(0 20)" opacity="0"><path d="M0,-5L4.330127,2.5h-8.660254L0,-5Z" fill="#fff" stroke-width="0"/></g><g id="eoLIWrHuTh6104_to" style="offset-path:path('M0,66C0,64,0,56,0,54');offset-rotate:0deg"><g id="eoLIWrHuTh6104" transform="translate(0,0)" opacity="0"><path id="eoLIWrHuTh6105" d="M0,0v0v0v0Z" fill="#fff" stroke-width="0"/></g></g></g><mask id="eoLIWrHuTh6106" mask-type="luminance" x="-150%" y="-150%" height="400%" width="400%"><path d="M762.634,-97.348c0,0-502.07,0-502.07,0s0,233.036,0,233.036s502.07,0,502.07,0s0-233.036,0-233.036Z" fill="#fff" fill-rule="evenodd" stroke="#fff" stroke-width="0"/></mask></g><g id="eoLIWrHuTh6108_ts" transform="translate(125.5,140.5) scale(0.9,0.9)"><g id="eoLIWrHuTh6108" transform="translate(386.5,109.5)" opacity="0"><g><path d="M-386.5,-126.349c1.214,0,2.198.984,2.198,2.198c0,0,0,17.581,0,17.581c0,1.214-.984,2.198-2.198,2.198s-2.198-.984-2.198-2.198c0,0,0-17.581,0-17.581c0-1.214.984-2.198,2.198-2.198Z" fill="#ea011d" stroke-width="0"/></g><g><path d="M-385,-96.486c.902.812.975,2.202.163,3.104c0,0-.03.033-.03.033-.812.902-2.201.975-3.103.163s-.975-2.202-.163-3.104c0,0,.029-.032.029-.032.812-.902,2.202-.976,3.104-.164Z" fill="#ea011d" stroke-width="0"/></g><g><path d="M-386.5,-136.605c-14.969,0-27.105,12.136-27.105,27.105s12.136,27.105,27.105,27.105s27.105-12.136,27.105-27.105-12.136-27.105-27.105-27.105Z" fill="#ea011d" stroke-width="0"/><path d="M-418,-109.5c0-17.397,14.103-31.5,31.5-31.5s31.5,14.103,31.5,31.5-14.103,31.5-31.5,31.5-31.5-14.103-31.5-31.5Z" fill="#ea011d" stroke-width="0"/></g></g></g><g transform="matrix(0.676 0 0 0.676 331 81)" clip-path="url(#eoLIWrHuTh6126)"><g id="eoLIWrHuTh6117" transform="matrix(0.707107 0.707107 -0.707107 0.707107 234.716594 254.915806)"><g transform="translate(0.031 0)"><g id="eoLIWrHuTh6119_to" style="offset-path:path('M0,0C21.667,0,108.333,0,130,0');offset-rotate:0deg"><ellipse id="eoLIWrHuTh6119" rx="0" ry="0" transform="translate(0,0)" fill="#fff" stroke-width="0"/></g></g><g transform="matrix(0.707107 0.707107 -0.707107 0.707107 7.35333 -17.67767)"><g id="eoLIWrHuTh6121_to" style="offset-path:path('M0,0C33.333,0,166.667,0,200,0');offset-rotate:0deg"><ellipse id="eoLIWrHuTh6121" rx="0" ry="0" transform="translate(0,0)" fill="#fff" stroke-width="0"/></g></g><g transform="matrix(0.707107 0.707107 -0.707107 0.707107 7.35333 -17.67767)"><g id="eoLIWrHuTh6123_to" style="offset-path:path('M0,0C30.833,0,154.167,0,185,0');offset-rotate:0deg"><ellipse id="eoLIWrHuTh6123" rx="0" ry="0" transform="translate(0,0)" fill="#fff" stroke-width="0"/></g></g><g transform="matrix(0.707107 0.707107 -0.707107 0.707107 7.35333 -17.67767)"><g id="eoLIWrHuTh6125_to" style="offset-path:path('M0,0C28.167,0,140.833,0,169,0');offset-rotate:0deg"><ellipse id="eoLIWrHuTh6125" rx="0" ry="0" transform="translate(0,0)" fill="#fff" stroke-width="0"/></g></g></g><clipPath id="eoLIWrHuTh6126"><rect width="500" height="500" rx="0" ry="0" fill="none" stroke-width="0"/></clipPath></g></svg>
