<svg id="eh0VAfqQ1UX1" xmlns="http://www.w3.org/2000/svg" xmlns:xlink="http://www.w3.org/1999/xlink" viewBox="0 0 1350 769" shape-rendering="geometricPrecision" text-rendering="geometricPrecision" project-id="ac11e6dd978544dd868453ffaaf67e4a" export-id="344b3cf8712e4ca881460c4f606e4fa6" cached="false" style="background-color:transparent">
<style><![CDATA[
#eh0VAfqQ1UX5 {animation: eh0VAfqQ1UX5_c_o 10110ms linear 1 normal forwards}@keyframes eh0VAfqQ1UX5_c_o { 0% {opacity: 0} 23.659743% {opacity: 0;animation-timing-function: step-end} 23.758655% {opacity: 0.33;animation-timing-function: step-end} 100% {opacity: 0}} #eh0VAfqQ1UX9 {animation: eh0VAfqQ1UX9_c_o 10110ms linear 1 normal forwards}@keyframes eh0VAfqQ1UX9_c_o { 0% {opacity: 0} 23.659743% {opacity: 0;animation-timing-function: step-end} 23.758655% {opacity: 1;animation-timing-function: step-end} 100% {opacity: 0}} #eh0VAfqQ1UX41 {animation: eh0VAfqQ1UX41_c_o 10110ms linear 1 normal forwards}@keyframes eh0VAfqQ1UX41_c_o { 0% {opacity: 0} 23.659743% {opacity: 0;animation-timing-function: step-end} 23.758655% {opacity: 1;animation-timing-function: step-end} 100% {opacity: 0}} #eh0VAfqQ1UX43 {animation-name: eh0VAfqQ1UX43__rd, eh0VAfqQ1UX43_s_w;animation-duration: 10110ms;animation-fill-mode: forwards;animation-timing-function: linear;animation-direction: normal;animation-iteration-count: 1;}@keyframes eh0VAfqQ1UX43__rd { 0% {rx: 0px;ry: 0px} 24.421365% {rx: 0px;ry: 0px;animation-timing-function: cubic-bezier(0.413,0,0,1)} 34.312562% {rx: 11.625px;ry: 11.625px} 100% {rx: 11.625px;ry: 11.625px}}@keyframes eh0VAfqQ1UX43_s_w { 0% {stroke-width: 0} 24.421365% {stroke-width: 0;animation-timing-function: cubic-bezier(0.413,0,0,1)} 34.312562% {stroke-width: 2} 100% {stroke-width: 2}} #eh0VAfqQ1UX44_to {animation: eh0VAfqQ1UX44_to__to 10110ms linear 1 normal forwards}@keyframes eh0VAfqQ1UX44_to__to { 0% {offset-distance: 0%} 23.758655% {offset-distance: 0%} 33.649852% {offset-distance: 100%} 100% {offset-distance: 100%}} #eh0VAfqQ1UX45 {animation: eh0VAfqQ1UX45__rd 10110ms linear 1 normal forwards}@keyframes eh0VAfqQ1UX45__rd { 0% {rx: 0px;ry: 0px} 25.410485% {rx: 0px;ry: 0px;animation-timing-function: cubic-bezier(0.413,0,0,1)} 35.301682% {rx: 2.5px;ry: 2.5px} 100% {rx: 2.5px;ry: 2.5px}} #eh0VAfqQ1UX46_to {animation: eh0VAfqQ1UX46_to__to 10110ms linear 1 normal forwards}@keyframes eh0VAfqQ1UX46_to__to { 0% {offset-distance: 0%} 23.758655% {offset-distance: 0%} 39.92087% {offset-distance: 100%} 100% {offset-distance: 100%}} #eh0VAfqQ1UX47 {animation: eh0VAfqQ1UX47_s_w 10110ms linear 1 normal forwards}@keyframes eh0VAfqQ1UX47_s_w { 0% {stroke-width: 0} 23.758655% {stroke-width: 0;animation-timing-function: cubic-bezier(0.413,0,0,1)} 33.649852% {stroke-width: 1} 100% {stroke-width: 1}} #eh0VAfqQ1UX48_to {animation: eh0VAfqQ1UX48_to__to 10110ms linear 1 normal forwards}@keyframes eh0VAfqQ1UX48_to__to { 0% {offset-distance: 0%} 23.758655% {offset-distance: 0%} 31.018793% {offset-distance: 100%} 100% {offset-distance: 100%}} #eh0VAfqQ1UX49 {animation: eh0VAfqQ1UX49__rd 10110ms linear 1 normal forwards}@keyframes eh0VAfqQ1UX49__rd { 0% {rx: 0px;ry: 0px} 23.758655% {rx: 0px;ry: 0px;animation-timing-function: cubic-bezier(0.413,0,0,1)} 33.649852% {rx: 2px;ry: 2px} 100% {rx: 2px;ry: 2px}} #eh0VAfqQ1UX50_to {animation: eh0VAfqQ1UX50_to__to 10110ms linear 1 normal forwards}@keyframes eh0VAfqQ1UX50_to__to { 0% {offset-distance: 0%} 23.758655% {offset-distance: 0%} 33.649852% {offset-distance: 48.721382%} 38.59545% {offset-distance: 100%} 100% {offset-distance: 100%}} #eh0VAfqQ1UX51 {animation: eh0VAfqQ1UX51__rd 10110ms linear 1 normal forwards}@keyframes eh0VAfqQ1UX51__rd { 0% {rx: 0px;ry: 0px} 23.758655% {rx: 0px;ry: 0px;animation-timing-function: cubic-bezier(0.413,0,0,1)} 33.649852% {rx: 2.5px;ry: 2.5px} 100% {rx: 2.5px;ry: 2.5px}} #eh0VAfqQ1UX52 {animation: eh0VAfqQ1UX52_c_o 10110ms linear 1 normal forwards}@keyframes eh0VAfqQ1UX52_c_o { 0% {opacity: 0} 23.758655% {opacity: 0} 24.094955% {opacity: 1} 24.421365% {opacity: 0} 24.747774% {opacity: 1} 25.084075% {opacity: 0} 25.410485% {opacity: 1} 25.736894% {opacity: 0} 26.073195% {opacity: 1} 43.541048% {opacity: 0} 43.877349% {opacity: 1} 44.203759% {opacity: 0} 44.530168% {opacity: 1} 44.866469% {opacity: 0} 45.192878% {opacity: 1} 45.519288% {opacity: 0} 45.855589% {opacity: 1} 66.953511% {opacity: 0} 67.279921% {opacity: 1} 67.616222% {opacity: 0} 67.942631% {opacity: 1} 68.269041% {opacity: 0} 68.605341% {opacity: 1} 68.931751% {opacity: 0} 69.25816% {opacity: 1} 92.007913% {opacity: 0} 92.344214% {opacity: 1} 92.670623% {opacity: 0} 92.997033% {opacity: 1} 93.333333% {opacity: 0} 93.659743% {opacity: 1} 93.986152% {opacity: 0} 94.322453% {opacity: 1} 100% {opacity: 0.722168}} #eh0VAfqQ1UX54_to {animation: eh0VAfqQ1UX54_to__to 10110ms linear 1 normal forwards}@keyframes eh0VAfqQ1UX54_to__to { 0% {offset-distance: 0%} 23.758655% {offset-distance: 0%} 31.671612% {offset-distance: 42.199119%} 36.290801% {offset-distance: 100%} 100% {offset-distance: 100%}} #eh0VAfqQ1UX55 {animation: eh0VAfqQ1UX55__sz 10110ms linear 1 normal forwards}@keyframes eh0VAfqQ1UX55__sz { 0% {width: 0px;height: 1px} 26.399604% {width: 0px;height: 1px;animation-timing-function: cubic-bezier(0.413,0,0,1)} 36.290801% {width: 50px;height: 1px} 100% {width: 50px;height: 1px}} #eh0VAfqQ1UX56 {animation: eh0VAfqQ1UX56_c_o 10110ms linear 1 normal forwards}@keyframes eh0VAfqQ1UX56_c_o { 0% {opacity: 0} 23.758655% {opacity: 0} 24.094955% {opacity: 1} 24.421365% {opacity: 0} 24.747774% {opacity: 1} 25.084075% {opacity: 0} 25.410485% {opacity: 1} 25.736894% {opacity: 0} 26.073195% {opacity: 1} 34.638971% {opacity: 0} 34.975272% {opacity: 1} 35.301682% {opacity: 0} 35.628091% {opacity: 1} 35.964392% {opacity: 0} 36.290801% {opacity: 1} 36.617211% {opacity: 0} 36.953511% {opacity: 1} 48.822948% {opacity: 0} 49.149357% {opacity: 1} 49.475767% {opacity: 0} 49.812067% {opacity: 1} 50.138477% {opacity: 0} 50.464886% {opacity: 1} 50.801187% {opacity: 0} 51.127596% {opacity: 1} 68.931751% {opacity: 0} 69.25816% {opacity: 1} 69.594461% {opacity: 0} 69.92087% {opacity: 1} 70.24728% {opacity: 0} 70.583581% {opacity: 1} 70.90999% {opacity: 0} 71.2364% {opacity: 1} 85.420376% {opacity: 0} 85.746785% {opacity: 1} 86.073195% {opacity: 0} 86.409496% {opacity: 1} 86.735905% {opacity: 0} 87.062315% {opacity: 1} 87.398615% {opacity: 0} 87.725025% {opacity: 1} 100% {opacity: 0.224375}} #eh0VAfqQ1UX59 {animation: eh0VAfqQ1UX59__sz 10110ms linear 1 normal forwards}@keyframes eh0VAfqQ1UX59__sz { 0% {width: 1px;height: 0px} 26.399604% {width: 1px;height: 0px;animation-timing-function: cubic-bezier(0.413,0,0,1)} 36.290801% {width: 1px;height: 10px} 100% {width: 1px;height: 10px}} #eh0VAfqQ1UX60_to {animation: eh0VAfqQ1UX60_to__to 10110ms linear 1 normal forwards}@keyframes eh0VAfqQ1UX60_to__to { 0% {offset-distance: 0%} 24.421365% {offset-distance: 0%;animation-timing-function: cubic-bezier(0.413,0,0,1)} 34.312562% {offset-distance: 100%} 100% {offset-distance: 100%}} #eh0VAfqQ1UX61 {animation: eh0VAfqQ1UX61__sz 10110ms linear 1 normal forwards}@keyframes eh0VAfqQ1UX61__sz { 0% {width: 0px;height: 1px} 25.410485% {width: 0px;height: 1px;animation-timing-function: cubic-bezier(0.413,0,0,1)} 35.301682% {width: 30px;height: 1px} 100% {width: 30px;height: 1px}} #eh0VAfqQ1UX62_to {animation: eh0VAfqQ1UX62_to__to 10110ms linear 1 normal forwards}@keyframes eh0VAfqQ1UX62_to__to { 0% {offset-distance: 0%} 25.410485% {offset-distance: 0%;animation-timing-function: cubic-bezier(0.413,0,0,1)} 35.301682% {offset-distance: 100%} 100% {offset-distance: 100%}} #eh0VAfqQ1UX63 {animation: eh0VAfqQ1UX63__sz 10110ms linear 1 normal forwards}@keyframes eh0VAfqQ1UX63__sz { 0% {width: 0px;height: 1px} 23.758655% {width: 0px;height: 1px;animation-timing-function: cubic-bezier(0.413,0,0,1)} 33.649852% {width: 100px;height: 1px} 100% {width: 100px;height: 1px}} #eh0VAfqQ1UX64_to {animation: eh0VAfqQ1UX64_to__to 10110ms linear 1 normal forwards}@keyframes eh0VAfqQ1UX64_to__to { 0% {offset-distance: 0%} 23.758655% {offset-distance: 0%} 28.704253% {offset-distance: 100%} 100% {offset-distance: 100%}} #eh0VAfqQ1UX65 {animation: eh0VAfqQ1UX65_s_w 10110ms linear 1 normal forwards}@keyframes eh0VAfqQ1UX65_s_w { 0% {stroke-width: 0} 28.704253% {stroke-width: 0;animation-timing-function: cubic-bezier(0.413,0,0,1)} 38.59545% {stroke-width: 1} 100% {stroke-width: 1}} #eh0VAfqQ1UX67 {animation-name: eh0VAfqQ1UX67__sz, eh0VAfqQ1UX67_s_w;animation-duration: 10110ms;animation-fill-mode: forwards;animation-timing-function: linear;animation-direction: normal;animation-iteration-count: 1;}@keyframes eh0VAfqQ1UX67__sz { 0% {width: 0px;height: 0px} 33.649852% {width: 0px;height: 0px;animation-timing-function: cubic-bezier(0.413,0,0,1)} 43.541048% {width: 15px;height: 5px} 100% {width: 15px;height: 5px}}@keyframes eh0VAfqQ1UX67_s_w { 0% {stroke-width: 0} 28.704253% {stroke-width: 0;animation-timing-function: cubic-bezier(0.413,0,0,1)} 38.59545% {stroke-width: 1} 100% {stroke-width: 1}} #eh0VAfqQ1UX69 {animation: eh0VAfqQ1UX69__sz 10110ms linear 1 normal forwards}@keyframes eh0VAfqQ1UX69__sz { 0% {width: 0px;height: 0px} 33.649852% {width: 0px;height: 0px;animation-timing-function: cubic-bezier(0.413,0,0,1)} 43.541048% {width: 2px;height: 10px} 100% {width: 2px;height: 10px}} #eh0VAfqQ1UX70_to {animation: eh0VAfqQ1UX70_to__to 10110ms linear 1 normal forwards}@keyframes eh0VAfqQ1UX70_to__to { 0% {offset-distance: 0%} 25.410485% {offset-distance: 0%;animation-timing-function: cubic-bezier(0.413,0,0,1)} 35.301682% {offset-distance: 100%} 100% {offset-distance: 100%}} #eh0VAfqQ1UX71 {animation: eh0VAfqQ1UX71__sz 10110ms linear 1 normal forwards}@keyframes eh0VAfqQ1UX71__sz { 0% {width: 0px;height: 0px} 25.410485% {width: 0px;height: 0px;animation-timing-function: cubic-bezier(0.413,0,0,1)} 35.301682% {width: 18px;height: 18px} 100% {width: 18px;height: 18px}} #eh0VAfqQ1UX72_to {animation: eh0VAfqQ1UX72_to__to 10110ms linear 1 normal forwards}@keyframes eh0VAfqQ1UX72_to__to { 0% {offset-distance: 0%} 27.062315% {offset-distance: 0%;animation-timing-function: cubic-bezier(0.413,0,0,1)} 36.953511% {offset-distance: 100%} 100% {offset-distance: 100%}} #eh0VAfqQ1UX73 {animation: eh0VAfqQ1UX73__sz 10110ms linear 1 normal forwards}@keyframes eh0VAfqQ1UX73__sz { 0% {width: 0px;height: 0px} 27.062315% {width: 0px;height: 0px;animation-timing-function: cubic-bezier(0.413,0,0,1)} 36.953511% {width: 15px;height: 15px} 100% {width: 15px;height: 15px}} #eh0VAfqQ1UX74_to {animation: eh0VAfqQ1UX74_to__to 10110ms linear 1 normal forwards}@keyframes eh0VAfqQ1UX74_to__to { 0% {offset-distance: 0%} 27.062315% {offset-distance: 0%;animation-timing-function: cubic-bezier(0.413,0,0,1)} 36.953511% {offset-distance: 100%} 100% {offset-distance: 100%}} #eh0VAfqQ1UX75 {animation: eh0VAfqQ1UX75__sz 10110ms linear 1 normal forwards}@keyframes eh0VAfqQ1UX75__sz { 0% {width: 1px;height: 0px} 27.062315% {width: 1px;height: 0px;animation-timing-function: cubic-bezier(0.413,0,0,1)} 36.953511% {width: 1px;height: 10px} 100% {width: 1px;height: 10px}} #eh0VAfqQ1UX76_to {animation: eh0VAfqQ1UX76_to__to 10110ms linear 1 normal forwards}@keyframes eh0VAfqQ1UX76_to__to { 0% {offset-distance: 0%} 24.747774% {offset-distance: 0%;animation-timing-function: cubic-bezier(0.413,0,0,1)} 34.638971% {offset-distance: 100%} 100% {offset-distance: 100%}} #eh0VAfqQ1UX77 {animation: eh0VAfqQ1UX77__sz 10110ms linear 1 normal forwards}@keyframes eh0VAfqQ1UX77__sz { 0% {width: 0px;height: 1px} 24.747774% {width: 0px;height: 1px;animation-timing-function: cubic-bezier(0.413,0,0,1)} 34.638971% {width: 35px;height: 1px} 100% {width: 35px;height: 1px}} #eh0VAfqQ1UX79 {animation: eh0VAfqQ1UX79__sz 10110ms linear 1 normal forwards}@keyframes eh0VAfqQ1UX79__sz { 0% {width: 1px;height: 0px} 27.062315% {width: 1px;height: 0px;animation-timing-function: cubic-bezier(0.413,0,0,1)} 36.953511% {width: 1px;height: 15px} 100% {width: 1px;height: 15px}} #eh0VAfqQ1UX81 {animation: eh0VAfqQ1UX81__sz 10110ms linear 1 normal forwards}@keyframes eh0VAfqQ1UX81__sz { 0% {width: 1px;height: 0px} 27.715134% {width: 1px;height: 0px;animation-timing-function: cubic-bezier(0.413,0,0,1)} 37.60633% {width: 1px;height: 20px} 100% {width: 1px;height: 20px}} #eh0VAfqQ1UX83 {animation: eh0VAfqQ1UX83__sz 10110ms linear 1 normal forwards}@keyframes eh0VAfqQ1UX83__sz { 0% {width: 1px;height: 0px} 28.377844% {width: 1px;height: 0px;animation-timing-function: cubic-bezier(0.413,0,0,1)} 38.269041% {width: 1px;height: 25px} 100% {width: 1px;height: 25px}} #eh0VAfqQ1UX85 {animation: eh0VAfqQ1UX85__sz 10110ms linear 1 normal forwards}@keyframes eh0VAfqQ1UX85__sz { 0% {width: 1px;height: 0px} 29.040554% {width: 1px;height: 0px;animation-timing-function: cubic-bezier(0.413,0,0,1)} 38.931751% {width: 1px;height: 55px} 100% {width: 1px;height: 55px}} #eh0VAfqQ1UX87 {animation: eh0VAfqQ1UX87__sz 10110ms linear 1 normal forwards}@keyframes eh0VAfqQ1UX87__sz { 0% {width: 1px;height: 0px} 29.693373% {width: 1px;height: 0px;animation-timing-function: cubic-bezier(0.413,0,0,1)} 39.58457% {width: 1px;height: 45px} 100% {width: 1px;height: 45px}} #eh0VAfqQ1UX89 {animation: eh0VAfqQ1UX89__sz 10110ms linear 1 normal forwards}@keyframes eh0VAfqQ1UX89__sz { 0% {width: 1px;height: 0px} 30.356083% {width: 1px;height: 0px;animation-timing-function: cubic-bezier(0.413,0,0,1)} 40.24728% {width: 1px;height: 40px} 100% {width: 1px;height: 40px}} #eh0VAfqQ1UX90_to {animation: eh0VAfqQ1UX90_to__to 10110ms linear 1 normal forwards}@keyframes eh0VAfqQ1UX90_to__to { 0% {offset-distance: 0%} 30.356083% {offset-distance: 0%;animation-timing-function: cubic-bezier(0.413,0,0,1)} 40.24728% {offset-distance: 100%} 100% {offset-distance: 100%}} #eh0VAfqQ1UX91 {animation: eh0VAfqQ1UX91__sz 10110ms linear 1 normal forwards}@keyframes eh0VAfqQ1UX91__sz { 0% {width: 0px;height: 0px} 30.356083% {width: 0px;height: 0px;animation-timing-function: cubic-bezier(0.413,0,0,1)} 40.24728% {width: 18px;height: 18px} 100% {width: 18px;height: 18px}} #eh0VAfqQ1UX92_to {animation: eh0VAfqQ1UX92_to__to 10110ms linear 1 normal forwards}@keyframes eh0VAfqQ1UX92_to__to { 0% {offset-distance: 0%} 32.334322% {offset-distance: 0%;animation-timing-function: cubic-bezier(0.413,0,0,1)} 42.225519% {offset-distance: 100%} 100% {offset-distance: 100%}} #eh0VAfqQ1UX93 {animation: eh0VAfqQ1UX93__sz 10110ms linear 1 normal forwards}@keyframes eh0VAfqQ1UX93__sz { 0% {width: 0px;height: 0px} 32.334322% {width: 0px;height: 0px;animation-timing-function: cubic-bezier(0.413,0,0,1)} 42.225519% {width: 30px;height: 30px} 100% {width: 30px;height: 30px}} #eh0VAfqQ1UX94 {animation: eh0VAfqQ1UX94_c_o 10110ms linear 1 normal forwards}@keyframes eh0VAfqQ1UX94_c_o { 0% {opacity: 0} 32.660732% {opacity: 0} 32.997033% {opacity: 1} 33.323442% {opacity: 0} 33.649852% {opacity: 1} 33.986152% {opacity: 0} 34.312562% {opacity: 1} 100% {opacity: 1}} #eh0VAfqQ1UX96 {animation: eh0VAfqQ1UX96_c_o 10110ms linear 1 normal forwards}@keyframes eh0VAfqQ1UX96_c_o { 0% {opacity: 0} 33.649852% {opacity: 0} 33.986152% {opacity: 1} 34.312562% {opacity: 0} 34.638971% {opacity: 1} 34.975272% {opacity: 0} 35.301682% {opacity: 1} 100% {opacity: 1}} #eh0VAfqQ1UX98 {animation: eh0VAfqQ1UX98_c_o 10110ms linear 1 normal forwards}@keyframes eh0VAfqQ1UX98_c_o { 0% {opacity: 0} 33.323442% {opacity: 0} 33.649852% {opacity: 1} 33.986152% {opacity: 0} 34.312562% {opacity: 1} 34.638971% {opacity: 0} 34.975272% {opacity: 1} 100% {opacity: 1}} #eh0VAfqQ1UX100_to {animation: eh0VAfqQ1UX100_to__to 10110ms linear 1 normal forwards}@keyframes eh0VAfqQ1UX100_to__to { 0% {offset-distance: 0%} 32.334322% {offset-distance: 0%;animation-timing-function: cubic-bezier(0.413,0,0,1)} 42.225519% {offset-distance: 100%} 100% {offset-distance: 100%}} #eh0VAfqQ1UX100 {animation: eh0VAfqQ1UX100_c_o 10110ms linear 1 normal forwards}@keyframes eh0VAfqQ1UX100_c_o { 0% {opacity: 0} 32.997033% {opacity: 0} 33.323442% {opacity: 1} 33.649852% {opacity: 0} 33.986152% {opacity: 1} 34.312562% {opacity: 0} 34.638971% {opacity: 1} 100% {opacity: 1}} #eh0VAfqQ1UX101 {animation: eh0VAfqQ1UX101__m 10110ms linear 1 normal forwards}@keyframes eh0VAfqQ1UX101__m { 0% {d: path('M0,0L0,0L0,0L0,0Z')} 23.758655% {d: path('M0,0L0,0L0,0L0,0Z');animation-timing-function: cubic-bezier(0.413,0,0,1)} 33.649852% {d: path('M0,-3L2.598076,1.5L-2.598076,1.5L0,-3Z')} 100% {d: path('M0,-3L2.598076,1.5L-2.598076,1.5L0,-3Z')}} #eh0VAfqQ1UX103 {animation: eh0VAfqQ1UX103_c_o 10110ms linear 1 normal forwards}@keyframes eh0VAfqQ1UX103_c_o { 0% {opacity: 0} 23.659743% {opacity: 0;animation-timing-function: step-end} 23.758655% {opacity: 1;animation-timing-function: step-end} 100% {opacity: 0}} #eh0VAfqQ1UX105 {animation-name: eh0VAfqQ1UX105__rd, eh0VAfqQ1UX105_s_w;animation-duration: 10110ms;animation-fill-mode: forwards;animation-timing-function: linear;animation-direction: normal;animation-iteration-count: 1;}@keyframes eh0VAfqQ1UX105__rd { 0% {rx: 0px;ry: 0px} 24.421365% {rx: 0px;ry: 0px;animation-timing-function: cubic-bezier(0.413,0,0,1)} 34.312562% {rx: 11.625px;ry: 11.625px} 100% {rx: 11.625px;ry: 11.625px}}@keyframes eh0VAfqQ1UX105_s_w { 0% {stroke-width: 0} 24.421365% {stroke-width: 0;animation-timing-function: cubic-bezier(0.413,0,0,1)} 34.312562% {stroke-width: 2} 100% {stroke-width: 2}} #eh0VAfqQ1UX106_to {animation: eh0VAfqQ1UX106_to__to 10110ms linear 1 normal forwards}@keyframes eh0VAfqQ1UX106_to__to { 0% {offset-distance: 0%} 23.758655% {offset-distance: 0%} 33.649852% {offset-distance: 100%} 100% {offset-distance: 100%}} #eh0VAfqQ1UX107 {animation: eh0VAfqQ1UX107__rd 10110ms linear 1 normal forwards}@keyframes eh0VAfqQ1UX107__rd { 0% {rx: 0px;ry: 0px} 25.410485% {rx: 0px;ry: 0px;animation-timing-function: cubic-bezier(0.413,0,0,1)} 35.301682% {rx: 2.5px;ry: 2.5px} 100% {rx: 2.5px;ry: 2.5px}} #eh0VAfqQ1UX108_to {animation: eh0VAfqQ1UX108_to__to 10110ms linear 1 normal forwards}@keyframes eh0VAfqQ1UX108_to__to { 0% {offset-distance: 0%} 23.758655% {offset-distance: 0%} 39.92087% {offset-distance: 100%} 100% {offset-distance: 100%}} #eh0VAfqQ1UX109 {animation: eh0VAfqQ1UX109_s_w 10110ms linear 1 normal forwards}@keyframes eh0VAfqQ1UX109_s_w { 0% {stroke-width: 0} 23.758655% {stroke-width: 0;animation-timing-function: cubic-bezier(0.413,0,0,1)} 33.649852% {stroke-width: 1} 100% {stroke-width: 1}} #eh0VAfqQ1UX110_to {animation: eh0VAfqQ1UX110_to__to 10110ms linear 1 normal forwards}@keyframes eh0VAfqQ1UX110_to__to { 0% {offset-distance: 0%} 23.758655% {offset-distance: 0%} 31.018793% {offset-distance: 100%} 100% {offset-distance: 100%}} #eh0VAfqQ1UX111 {animation: eh0VAfqQ1UX111__rd 10110ms linear 1 normal forwards}@keyframes eh0VAfqQ1UX111__rd { 0% {rx: 0px;ry: 0px} 23.758655% {rx: 0px;ry: 0px;animation-timing-function: cubic-bezier(0.413,0,0,1)} 33.649852% {rx: 2px;ry: 2px} 100% {rx: 2px;ry: 2px}} #eh0VAfqQ1UX112_to {animation: eh0VAfqQ1UX112_to__to 10110ms linear 1 normal forwards}@keyframes eh0VAfqQ1UX112_to__to { 0% {offset-distance: 0%} 23.758655% {offset-distance: 0%} 33.649852% {offset-distance: 48.721382%} 38.59545% {offset-distance: 100%} 100% {offset-distance: 100%}} #eh0VAfqQ1UX113 {animation: eh0VAfqQ1UX113__rd 10110ms linear 1 normal forwards}@keyframes eh0VAfqQ1UX113__rd { 0% {rx: 0px;ry: 0px} 23.758655% {rx: 0px;ry: 0px;animation-timing-function: cubic-bezier(0.413,0,0,1)} 33.649852% {rx: 2.5px;ry: 2.5px} 100% {rx: 2.5px;ry: 2.5px}} #eh0VAfqQ1UX114 {animation: eh0VAfqQ1UX114_c_o 10110ms linear 1 normal forwards}@keyframes eh0VAfqQ1UX114_c_o { 0% {opacity: 0} 23.758655% {opacity: 0} 24.094955% {opacity: 1} 24.421365% {opacity: 0} 24.747774% {opacity: 1} 25.084075% {opacity: 0} 25.410485% {opacity: 1} 25.736894% {opacity: 0} 26.073195% {opacity: 1} 43.541048% {opacity: 0} 43.877349% {opacity: 1} 44.203759% {opacity: 0} 44.530168% {opacity: 1} 44.866469% {opacity: 0} 45.192878% {opacity: 1} 45.519288% {opacity: 0} 45.855589% {opacity: 1} 66.953511% {opacity: 0} 67.279921% {opacity: 1} 67.616222% {opacity: 0} 67.942631% {opacity: 1} 68.269041% {opacity: 0} 68.605341% {opacity: 1} 68.931751% {opacity: 0} 69.25816% {opacity: 1} 92.007913% {opacity: 0} 92.344214% {opacity: 1} 92.670623% {opacity: 0} 92.997033% {opacity: 1} 93.333333% {opacity: 0} 93.659743% {opacity: 1} 93.986152% {opacity: 0} 94.322453% {opacity: 1} 100% {opacity: 0.722168}} #eh0VAfqQ1UX116_to {animation: eh0VAfqQ1UX116_to__to 10110ms linear 1 normal forwards}@keyframes eh0VAfqQ1UX116_to__to { 0% {offset-distance: 0%} 23.758655% {offset-distance: 0%} 31.671612% {offset-distance: 42.199119%} 36.290801% {offset-distance: 100%} 100% {offset-distance: 100%}} #eh0VAfqQ1UX117 {animation: eh0VAfqQ1UX117__sz 10110ms linear 1 normal forwards}@keyframes eh0VAfqQ1UX117__sz { 0% {width: 0px;height: 1px} 26.399604% {width: 0px;height: 1px;animation-timing-function: cubic-bezier(0.413,0,0,1)} 36.290801% {width: 50px;height: 1px} 100% {width: 50px;height: 1px}} #eh0VAfqQ1UX118 {animation: eh0VAfqQ1UX118_c_o 10110ms linear 1 normal forwards}@keyframes eh0VAfqQ1UX118_c_o { 0% {opacity: 0} 23.758655% {opacity: 0} 24.094955% {opacity: 1} 24.421365% {opacity: 0} 24.747774% {opacity: 1} 25.084075% {opacity: 0} 25.410485% {opacity: 1} 25.736894% {opacity: 0} 26.073195% {opacity: 1} 34.638971% {opacity: 0} 34.975272% {opacity: 1} 35.301682% {opacity: 0} 35.628091% {opacity: 1} 35.964392% {opacity: 0} 36.290801% {opacity: 1} 36.617211% {opacity: 0} 36.953511% {opacity: 1} 48.822948% {opacity: 0} 49.149357% {opacity: 1} 49.475767% {opacity: 0} 49.812067% {opacity: 1} 50.138477% {opacity: 0} 50.464886% {opacity: 1} 50.801187% {opacity: 0} 51.127596% {opacity: 1} 68.931751% {opacity: 0} 69.25816% {opacity: 1} 69.594461% {opacity: 0} 69.92087% {opacity: 1} 70.24728% {opacity: 0} 70.583581% {opacity: 1} 70.90999% {opacity: 0} 71.2364% {opacity: 1} 85.420376% {opacity: 0} 85.746785% {opacity: 1} 86.073195% {opacity: 0} 86.409496% {opacity: 1} 86.735905% {opacity: 0} 87.062315% {opacity: 1} 87.398615% {opacity: 0} 87.725025% {opacity: 1} 100% {opacity: 0.224375}} #eh0VAfqQ1UX121 {animation: eh0VAfqQ1UX121__sz 10110ms linear 1 normal forwards}@keyframes eh0VAfqQ1UX121__sz { 0% {width: 1px;height: 0px} 26.399604% {width: 1px;height: 0px;animation-timing-function: cubic-bezier(0.413,0,0,1)} 36.290801% {width: 1px;height: 10px} 100% {width: 1px;height: 10px}} #eh0VAfqQ1UX122_to {animation: eh0VAfqQ1UX122_to__to 10110ms linear 1 normal forwards}@keyframes eh0VAfqQ1UX122_to__to { 0% {offset-distance: 0%} 24.421365% {offset-distance: 0%;animation-timing-function: cubic-bezier(0.413,0,0,1)} 34.312562% {offset-distance: 100%} 100% {offset-distance: 100%}} #eh0VAfqQ1UX123 {animation: eh0VAfqQ1UX123__sz 10110ms linear 1 normal forwards}@keyframes eh0VAfqQ1UX123__sz { 0% {width: 0px;height: 1px} 25.410485% {width: 0px;height: 1px;animation-timing-function: cubic-bezier(0.413,0,0,1)} 35.301682% {width: 30px;height: 1px} 100% {width: 30px;height: 1px}} #eh0VAfqQ1UX124_to {animation: eh0VAfqQ1UX124_to__to 10110ms linear 1 normal forwards}@keyframes eh0VAfqQ1UX124_to__to { 0% {offset-distance: 0%} 25.410485% {offset-distance: 0%;animation-timing-function: cubic-bezier(0.413,0,0,1)} 35.301682% {offset-distance: 100%} 100% {offset-distance: 100%}} #eh0VAfqQ1UX125 {animation: eh0VAfqQ1UX125__sz 10110ms linear 1 normal forwards}@keyframes eh0VAfqQ1UX125__sz { 0% {width: 0px;height: 1px} 23.758655% {width: 0px;height: 1px;animation-timing-function: cubic-bezier(0.413,0,0,1)} 33.649852% {width: 100px;height: 1px} 100% {width: 100px;height: 1px}} #eh0VAfqQ1UX126_to {animation: eh0VAfqQ1UX126_to__to 10110ms linear 1 normal forwards}@keyframes eh0VAfqQ1UX126_to__to { 0% {offset-distance: 0%} 23.758655% {offset-distance: 0%} 28.704253% {offset-distance: 100%} 100% {offset-distance: 100%}} #eh0VAfqQ1UX127 {animation: eh0VAfqQ1UX127_s_w 10110ms linear 1 normal forwards}@keyframes eh0VAfqQ1UX127_s_w { 0% {stroke-width: 0} 28.704253% {stroke-width: 0;animation-timing-function: cubic-bezier(0.413,0,0,1)} 38.59545% {stroke-width: 1} 100% {stroke-width: 1}} #eh0VAfqQ1UX129 {animation-name: eh0VAfqQ1UX129__sz, eh0VAfqQ1UX129_s_w;animation-duration: 10110ms;animation-fill-mode: forwards;animation-timing-function: linear;animation-direction: normal;animation-iteration-count: 1;}@keyframes eh0VAfqQ1UX129__sz { 0% {width: 0px;height: 0px} 33.649852% {width: 0px;height: 0px;animation-timing-function: cubic-bezier(0.413,0,0,1)} 43.541048% {width: 15px;height: 5px} 100% {width: 15px;height: 5px}}@keyframes eh0VAfqQ1UX129_s_w { 0% {stroke-width: 0} 28.704253% {stroke-width: 0;animation-timing-function: cubic-bezier(0.413,0,0,1)} 38.59545% {stroke-width: 1} 100% {stroke-width: 1}} #eh0VAfqQ1UX131 {animation: eh0VAfqQ1UX131__sz 10110ms linear 1 normal forwards}@keyframes eh0VAfqQ1UX131__sz { 0% {width: 0px;height: 0px} 33.649852% {width: 0px;height: 0px;animation-timing-function: cubic-bezier(0.413,0,0,1)} 43.541048% {width: 2px;height: 10px} 100% {width: 2px;height: 10px}} #eh0VAfqQ1UX132_to {animation: eh0VAfqQ1UX132_to__to 10110ms linear 1 normal forwards}@keyframes eh0VAfqQ1UX132_to__to { 0% {offset-distance: 0%} 25.410485% {offset-distance: 0%;animation-timing-function: cubic-bezier(0.413,0,0,1)} 35.301682% {offset-distance: 100%} 100% {offset-distance: 100%}} #eh0VAfqQ1UX133 {animation: eh0VAfqQ1UX133__sz 10110ms linear 1 normal forwards}@keyframes eh0VAfqQ1UX133__sz { 0% {width: 0px;height: 0px} 25.410485% {width: 0px;height: 0px;animation-timing-function: cubic-bezier(0.413,0,0,1)} 35.301682% {width: 18px;height: 18px} 100% {width: 18px;height: 18px}} #eh0VAfqQ1UX134_to {animation: eh0VAfqQ1UX134_to__to 10110ms linear 1 normal forwards}@keyframes eh0VAfqQ1UX134_to__to { 0% {offset-distance: 0%} 27.062315% {offset-distance: 0%;animation-timing-function: cubic-bezier(0.413,0,0,1)} 36.953511% {offset-distance: 100%} 100% {offset-distance: 100%}} #eh0VAfqQ1UX135 {animation: eh0VAfqQ1UX135__sz 10110ms linear 1 normal forwards}@keyframes eh0VAfqQ1UX135__sz { 0% {width: 0px;height: 0px} 27.062315% {width: 0px;height: 0px;animation-timing-function: cubic-bezier(0.413,0,0,1)} 36.953511% {width: 15px;height: 15px} 100% {width: 15px;height: 15px}} #eh0VAfqQ1UX136_to {animation: eh0VAfqQ1UX136_to__to 10110ms linear 1 normal forwards}@keyframes eh0VAfqQ1UX136_to__to { 0% {offset-distance: 0%} 27.062315% {offset-distance: 0%;animation-timing-function: cubic-bezier(0.413,0,0,1)} 36.953511% {offset-distance: 100%} 100% {offset-distance: 100%}} #eh0VAfqQ1UX137 {animation: eh0VAfqQ1UX137__sz 10110ms linear 1 normal forwards}@keyframes eh0VAfqQ1UX137__sz { 0% {width: 1px;height: 0px} 27.062315% {width: 1px;height: 0px;animation-timing-function: cubic-bezier(0.413,0,0,1)} 36.953511% {width: 1px;height: 10px} 100% {width: 1px;height: 10px}} #eh0VAfqQ1UX138_to {animation: eh0VAfqQ1UX138_to__to 10110ms linear 1 normal forwards}@keyframes eh0VAfqQ1UX138_to__to { 0% {offset-distance: 0%} 24.747774% {offset-distance: 0%;animation-timing-function: cubic-bezier(0.413,0,0,1)} 34.638971% {offset-distance: 100%} 100% {offset-distance: 100%}} #eh0VAfqQ1UX139 {animation: eh0VAfqQ1UX139__sz 10110ms linear 1 normal forwards}@keyframes eh0VAfqQ1UX139__sz { 0% {width: 0px;height: 1px} 24.747774% {width: 0px;height: 1px;animation-timing-function: cubic-bezier(0.413,0,0,1)} 34.638971% {width: 35px;height: 1px} 100% {width: 35px;height: 1px}} #eh0VAfqQ1UX141 {animation: eh0VAfqQ1UX141__sz 10110ms linear 1 normal forwards}@keyframes eh0VAfqQ1UX141__sz { 0% {width: 1px;height: 0px} 27.062315% {width: 1px;height: 0px;animation-timing-function: cubic-bezier(0.413,0,0,1)} 36.953511% {width: 1px;height: 15px} 100% {width: 1px;height: 15px}} #eh0VAfqQ1UX143 {animation: eh0VAfqQ1UX143__sz 10110ms linear 1 normal forwards}@keyframes eh0VAfqQ1UX143__sz { 0% {width: 1px;height: 0px} 27.715134% {width: 1px;height: 0px;animation-timing-function: cubic-bezier(0.413,0,0,1)} 37.60633% {width: 1px;height: 20px} 100% {width: 1px;height: 20px}} #eh0VAfqQ1UX145 {animation: eh0VAfqQ1UX145__sz 10110ms linear 1 normal forwards}@keyframes eh0VAfqQ1UX145__sz { 0% {width: 1px;height: 0px} 28.377844% {width: 1px;height: 0px;animation-timing-function: cubic-bezier(0.413,0,0,1)} 38.269041% {width: 1px;height: 25px} 100% {width: 1px;height: 25px}} #eh0VAfqQ1UX147 {animation: eh0VAfqQ1UX147__sz 10110ms linear 1 normal forwards}@keyframes eh0VAfqQ1UX147__sz { 0% {width: 1px;height: 0px} 29.040554% {width: 1px;height: 0px;animation-timing-function: cubic-bezier(0.413,0,0,1)} 38.931751% {width: 1px;height: 55px} 100% {width: 1px;height: 55px}} #eh0VAfqQ1UX149 {animation: eh0VAfqQ1UX149__sz 10110ms linear 1 normal forwards}@keyframes eh0VAfqQ1UX149__sz { 0% {width: 1px;height: 0px} 29.693373% {width: 1px;height: 0px;animation-timing-function: cubic-bezier(0.413,0,0,1)} 39.58457% {width: 1px;height: 45px} 100% {width: 1px;height: 45px}} #eh0VAfqQ1UX151 {animation: eh0VAfqQ1UX151__sz 10110ms linear 1 normal forwards}@keyframes eh0VAfqQ1UX151__sz { 0% {width: 1px;height: 0px} 30.356083% {width: 1px;height: 0px;animation-timing-function: cubic-bezier(0.413,0,0,1)} 40.24728% {width: 1px;height: 40px} 100% {width: 1px;height: 40px}} #eh0VAfqQ1UX152_to {animation: eh0VAfqQ1UX152_to__to 10110ms linear 1 normal forwards}@keyframes eh0VAfqQ1UX152_to__to { 0% {offset-distance: 0%} 30.356083% {offset-distance: 0%;animation-timing-function: cubic-bezier(0.413,0,0,1)} 40.24728% {offset-distance: 100%} 100% {offset-distance: 100%}} #eh0VAfqQ1UX153 {animation: eh0VAfqQ1UX153__sz 10110ms linear 1 normal forwards}@keyframes eh0VAfqQ1UX153__sz { 0% {width: 0px;height: 0px} 30.356083% {width: 0px;height: 0px;animation-timing-function: cubic-bezier(0.413,0,0,1)} 40.24728% {width: 18px;height: 18px} 100% {width: 18px;height: 18px}} #eh0VAfqQ1UX154_to {animation: eh0VAfqQ1UX154_to__to 10110ms linear 1 normal forwards}@keyframes eh0VAfqQ1UX154_to__to { 0% {offset-distance: 0%} 32.334322% {offset-distance: 0%;animation-timing-function: cubic-bezier(0.413,0,0,1)} 42.225519% {offset-distance: 100%} 100% {offset-distance: 100%}} #eh0VAfqQ1UX155 {animation: eh0VAfqQ1UX155__sz 10110ms linear 1 normal forwards}@keyframes eh0VAfqQ1UX155__sz { 0% {width: 0px;height: 0px} 32.334322% {width: 0px;height: 0px;animation-timing-function: cubic-bezier(0.413,0,0,1)} 42.225519% {width: 30px;height: 30px} 100% {width: 30px;height: 30px}} #eh0VAfqQ1UX156 {animation: eh0VAfqQ1UX156_c_o 10110ms linear 1 normal forwards}@keyframes eh0VAfqQ1UX156_c_o { 0% {opacity: 0} 32.660732% {opacity: 0} 32.997033% {opacity: 1} 33.323442% {opacity: 0} 33.649852% {opacity: 1} 33.986152% {opacity: 0} 34.312562% {opacity: 1} 100% {opacity: 1}} #eh0VAfqQ1UX158 {animation: eh0VAfqQ1UX158_c_o 10110ms linear 1 normal forwards}@keyframes eh0VAfqQ1UX158_c_o { 0% {opacity: 0} 33.649852% {opacity: 0} 33.986152% {opacity: 1} 34.312562% {opacity: 0} 34.638971% {opacity: 1} 34.975272% {opacity: 0} 35.301682% {opacity: 1} 100% {opacity: 1}} #eh0VAfqQ1UX160 {animation: eh0VAfqQ1UX160_c_o 10110ms linear 1 normal forwards}@keyframes eh0VAfqQ1UX160_c_o { 0% {opacity: 0} 33.323442% {opacity: 0} 33.649852% {opacity: 1} 33.986152% {opacity: 0} 34.312562% {opacity: 1} 34.638971% {opacity: 0} 34.975272% {opacity: 1} 100% {opacity: 1}} #eh0VAfqQ1UX162_to {animation: eh0VAfqQ1UX162_to__to 10110ms linear 1 normal forwards}@keyframes eh0VAfqQ1UX162_to__to { 0% {offset-distance: 0%} 32.334322% {offset-distance: 0%;animation-timing-function: cubic-bezier(0.413,0,0,1)} 42.225519% {offset-distance: 100%} 100% {offset-distance: 100%}} #eh0VAfqQ1UX162 {animation: eh0VAfqQ1UX162_c_o 10110ms linear 1 normal forwards}@keyframes eh0VAfqQ1UX162_c_o { 0% {opacity: 0} 32.997033% {opacity: 0} 33.323442% {opacity: 1} 33.649852% {opacity: 0} 33.986152% {opacity: 1} 34.312562% {opacity: 0} 34.638971% {opacity: 1} 100% {opacity: 1}} #eh0VAfqQ1UX163 {animation: eh0VAfqQ1UX163__m 10110ms linear 1 normal forwards}@keyframes eh0VAfqQ1UX163__m { 0% {d: path('M0,0L0,0L0,0L0,0Z')} 23.758655% {d: path('M0,0L0,0L0,0L0,0Z');animation-timing-function: cubic-bezier(0.413,0,0,1)} 33.649852% {d: path('M0,-3L2.598076,1.5L-2.598076,1.5L0,-3Z')} 100% {d: path('M0,-3L2.598076,1.5L-2.598076,1.5L0,-3Z')}} #eh0VAfqQ1UX165 {animation: eh0VAfqQ1UX165_c_o 10110ms linear 1 normal forwards}@keyframes eh0VAfqQ1UX165_c_o { 0% {opacity: 0} 24.322453% {opacity: 0;animation-timing-function: step-end} 24.421365% {opacity: 1;animation-timing-function: step-end} 100% {opacity: 0}} #eh0VAfqQ1UX271_ts {animation: eh0VAfqQ1UX271_ts__ts 10110ms linear 1 normal forwards}@keyframes eh0VAfqQ1UX271_ts__ts { 0% {transform: translate(31.038px,171.035px) scale(1,0)} 33.333333% {transform: translate(31.038px,171.035px) scale(1,0);animation-timing-function: cubic-bezier(0.79,0,0.2,1)} 57.428289% {transform: translate(31.038px,171.035px) scale(1,1)} 100% {transform: translate(31.038px,171.035px) scale(1,1)}} #eh0VAfqQ1UX271 {animation: eh0VAfqQ1UX271_c_o 10110ms linear 1 normal forwards}@keyframes eh0VAfqQ1UX271_c_o { 0% {opacity: 0} 33.234421% {opacity: 0;animation-timing-function: step-end} 33.333333% {opacity: 1;animation-timing-function: step-end} 100% {opacity: 0}}
]]></style>
<g transform="matrix(1.27 0 0 1.27 458.752631 466.648909)" opacity="0.11"><path d="M-250.894,-271.27c0,0,251.929.443,251.929.443s19.49,13.168,19.49,13.168s169.818.222,169.818.222s14.979,9.406,14.979,9.406s76.337,0,76.337,0s21.656-10.181,21.656-10.181s309.495,0,309.495,0s11.91,7.082,11.91,7.082-1.98,347.135-1.98,347.135-20.03,11.951-20.03,11.951-534.181.332-534.181.332-19.31-9.738-19.31-9.738-171.983-.111-171.983-.111-14.618,9.959-14.618,9.959-130.656.332-130.656.332-14.438-9.295-14.438-9.295-.18-217.996-.18-217.996s9.204-4.759,9.204-4.759-.362-51.456-.362-51.456s9.926-.221,9.926-.221-.181-31.648-.181-31.648-4.15,0-4.15,0-.181-11.398-.181-11.398.181-39.616.181-39.616s17.325-13.611,17.325-13.611Z" fill="#1a1a24" stroke-width="0"/></g><g transform="matrix(1.27 0 0 1.27 669.231 298.967)"><g id="eh0VAfqQ1UX5" transform="translate(-165.731 132.033)" opacity="0"><path d="M-272.956,-258.777c0,0,18.062-13.899,18.062-13.899s.541-.331.541-.331.903-.662.903-.662s1.445,0,1.445,0s.723,0,.723,0s251.056-.331,251.056-.331.723,0,.723,0s1.263,0,1.263,0s.904.662.904.662.542.331.542.331s18.784,12.796,18.784,12.796s168.695-.11,168.695-.11.542,0,.542,0s1.445,0,1.445,0s.722.551.722.551.543.331.543.331s14.087,8.936,14.087,8.936s72.788,0,72.788,0s20.049-9.267,20.049-9.267.361-.22.361-.22.904-.331.904-.331s1.444,0,1.444,0s310.48.11,310.48.11.54,0,.54,0s1.27,0,1.27,0s.9.552.9.552.36.22.36.22s10.3,6.178,10.3,6.178.36.22.36.22.9.552.9.552s0,.772,0,.772s0,.442,0,.442-.9,348.148-.9,348.148s0,.441,0,.441s0,.772,0,.772-.91.552-.91.552-.54.331-.54.331-17.52,10.149-17.52,10.149-.36.33-.36.33-.9.552-.9.552-542.393,0-542.393,0-.903-.552-.903-.552-.361-.22-.361-.22-17.701-9.377-17.701-9.377-167.25-.11-167.25-.11-13.366,9.266-13.366,9.266-.541.331-.541.331-.903.662-.903.662-46.78,0-46.78,0s.18-1.875.18-1.875s0-.993,0-.993s0-1.655,0-1.655-12.643,0-12.643,0s0,1.655,0,1.655s0,.993,0,.993s0,1.875,0,1.875-16.616,0-16.616,0s0-1.875,0-1.875s0-.993,0-.993s0-1.324,0-1.324-7.044,0-7.044,0s0,4.192,0,4.192-52.199,0-52.199,0-.903-.552-.903-.552-.541-.33-.541-.33-13.547-7.943-13.547-7.943-.541-.331-.541-.331-.903-.552-.903-.552s0-1.103,0-1.103-.181-217.427-.181-217.427s0-.551,0-.551s0-.773,0-.773s1.084-.551,1.084-.551.541-.331.541-.331s7.587-3.861,7.587-3.861-.724-51.737-.724-51.737s0-.993,0-.993s0-1.875,0-1.875s4.697,0,4.697,0s4.877,0,4.877,0s0-25.151,0-25.151-4.697,0-4.697,0-1.625,0-1.625,0-3.071,0-3.071,0s0-1.876,0-1.876s0-.993,0-.993s0-8.935,0-8.935s0-.993,0-.993s0-1.875,0-1.875s3.071,0,3.071,0s1.625,0,1.625,0s.542,0,.542,0-.18-38.279-.18-38.279s0-.331,0-.331s0-.662,0-.662.542-.551.542-.551.361-.221.361-.221Z" fill="#32ffff" stroke-width="0"/><path d="M-248.934,-268.043c0,0-15.714,12.024-15.714,12.024s.361,40.154.361,40.154s0,.993,0,.993s0,1.875,0,1.875-3.07,0-3.07,0-1.626,0-1.626,0-.722,0-.722,0s0,3.31,0,3.31s4.877.11,4.877.11s1.625,0,1.625,0s2.89,0,2.89,0s0,2.758,0,2.758s0,30.777,0,30.777s0,2.758,0,2.758-4.515,0-4.515,0-4.877,0-4.877,0s.541,50.303.541,50.303s0,.441,0,.441s0,.882,0,.882-1.083.552-1.083.552-.542.331-.542.331-7.585,3.861-7.585,3.861.18,214.89.18,214.89s10.837,6.398,10.837,6.398s39.374,0,39.374,0s0-4.192,0-4.192s3.07,0,3.07,0s1.627,0,1.627,0s16.255,0,16.255,0s1.625,0,1.625,0s1.084,0,1.084,0s0-.221,0-.221s3.07,0,3.07,0s1.446,0,1.446,0s21.853-.11,21.853-.11s1.627,0,1.627,0s3.07,0,3.07,0s0,1.876,0,1.876s0,.992,0,.992s0,1.655,0,1.655s33.233,0,33.233,0s13.366-9.266,13.366-9.266.542-.331.542-.331.903-.552.903-.552s1.264,0,1.264,0s.723,0,.723,0s171.223,0,171.223,0s1.807,0,1.807,0s.722.441.722.441.542.221.542.221s17.519,9.487,17.519,9.487s535.352,0,535.352,0s14.62-8.604,14.62-8.604s1.09-345.832,1.09-345.832-7.59-4.523-7.59-4.523-306.865,0-306.865,0-20.047,9.156-20.047,9.156-.362.221-.362.221-.722.331-.722.331-1.625,0-1.625,0-76.402,0-76.402,0-1.986,0-1.986,0-.904-.552-.904-.552-.541-.331-.541-.331-13.908-8.825-13.908-8.825-168.876,0-168.876,0-.722,0-.722,0-1.264,0-1.264,0-.903-.551-.903-.551-.542-.331-.542-.331-18.784-12.797-18.784-12.797-246.541.221-246.541.221Z" fill="#32ffff" stroke-width="0"/></g></g><g transform="matrix(1.27 0 0 1.27 669.231 298.967)"><g id="eh0VAfqQ1UX9" transform="translate(-165.731 132.033)" opacity="0"><g><g><path d="M317.945,98.73c0,0,63.935,0,63.935,0s20.23,10.192,20.23,10.192-104.032,0-104.032,0s19.867-10.192,19.867-10.192Z" fill="#ffe600" stroke-width="0"/></g><g><path d="M381.76,99.23c0,0,18.25,9.192,18.25,9.192s-99.863,0-99.863,0s17.92-9.192,17.92-9.192s63.693,0,63.693,0Z" paint-order="stroke fill markers" fill="none" fill-rule="evenodd" stroke="#ffe600"/></g></g><g><g><path d="M642.5,-183.863c0,0,0-47.966,0-47.966s-13.55-15.355-13.55-15.355s0,78.403,0,78.403s13.55-15.082,13.55-15.082Z" fill="#ffe600" stroke-width="0"/></g><g><path d="M642,-231.641c0,0,0,47.585,0,47.585s-12.55,13.97-12.55,13.97s0-75.775,0-75.775s12.55,14.22,12.55,14.22Z" paint-order="stroke fill markers" fill="none" fill-rule="evenodd" stroke="#ffe600"/></g></g><g><g><path d="M605.48,72.09c0,0,0-47.966,0-47.966s13.54-15.354,13.54-15.354s0,78.403,0,78.403-13.54-15.083-13.54-15.083Z" fill="#ffe600" stroke-width="0"/></g><g><path d="M618.52,85.867c0,0-12.54-13.97-12.54-13.97s0-47.585,0-47.585s12.54-14.22,12.54-14.22s0,75.775,0,75.775Z" paint-order="stroke fill markers" fill="none" fill-rule="evenodd" stroke="#ffe600"/></g></g><g><g><path d="M-103.429,83.918c0,0,63.756,0,63.756,0s20.409,10.191,20.409,10.191-104.213,0-104.213,0s20.048-10.191,20.048-10.191Z" fill="#ffe600" stroke-width="0"/></g><g><path d="M-39.79,84.418c0,0,18.406,9.191,18.406,9.191s-100.007,0-100.007,0s18.081-9.191,18.081-9.191s63.52,0,63.52,0Z" paint-order="stroke fill markers" fill="none" fill-rule="evenodd" stroke="#ffe600"/></g></g><g><g><path d="M-294.5,-19.036c0,0,0-48.102,0-48.102s13.546-15.354,13.546-15.354s0,78.403,0,78.403-13.546-14.947-13.546-14.947Z" fill="#ffe600" stroke-width="0"/></g><g><path d="M-281.454,-5.386c0,0-12.546-13.843-12.546-13.843s0-47.72,0-47.72s12.546-14.221,12.546-14.221s0,75.784,0,75.784Z" paint-order="stroke fill markers" fill="none" fill-rule="evenodd" stroke="#ffe600"/></g></g><g><g><path d="M38.906,-243.375c0,0,63.936,0,63.936,0s20.228-10.191,20.228-10.191-104.031,0-104.031,0s19.867,10.191,19.867,10.191Z" fill="#ffe600" stroke-width="0"/></g><g><path d="M120.967,-253.066c0,0-18.245,9.191-18.245,9.191s-63.694,0-63.694,0-17.918-9.191-17.918-9.191s99.857,0,99.857,0Z" paint-order="stroke fill markers" fill="none" fill-rule="evenodd" stroke="#ffe600"/></g></g></g></g><g transform="matrix(1.27 0 0 1.27 669.231 298.967)"><g id="eh0VAfqQ1UX41" transform="matrix(0.51372 0 0 0.51372 21.122 -124.752)" opacity="0"><g transform="translate(-383 0)"><ellipse id="eh0VAfqQ1UX43" rx="0" ry="0" paint-order="stroke fill markers" fill="none" fill-rule="evenodd" stroke="#fff" stroke-width="0"/></g><g id="eh0VAfqQ1UX44_to" style="offset-path:path('M-383,0C-377.167,0,-353.833,0,-348,0');offset-rotate:0deg"><g transform="translate(0,0)"><ellipse id="eh0VAfqQ1UX45" rx="0" ry="0" transform="translate(-127 0)" paint-order="stroke fill markers" fill="none" fill-rule="evenodd" stroke="#fff"/></g></g><g id="eh0VAfqQ1UX46_to" style="offset-path:path('M-383,0C-388,0,-408,0,-413,0');offset-rotate:0deg"><g transform="translate(0,0)"><ellipse id="eh0VAfqQ1UX47" rx="2.5" ry="2.5" transform="translate(-260 0)" paint-order="stroke fill markers" fill="none" fill-rule="evenodd" stroke="#fff" stroke-width="0"/></g></g><g id="eh0VAfqQ1UX48_to" style="offset-path:path('M-383,0C-381.167,0,-373.833,0,-372,0');offset-rotate:0deg"><g transform="translate(0,0)"><ellipse id="eh0VAfqQ1UX49" rx="0" ry="0" transform="translate(-79 0)" paint-order="stroke fill markers" fill="none" fill-rule="evenodd" stroke="#fff"/></g></g><g id="eh0VAfqQ1UX50_to" style="offset-path:path('M-383,0C-379.833,0,-363.833,0,-364,0C-364.167,0,-380.667,0,-384,0');offset-rotate:0deg"><g transform="translate(0,0)"><ellipse id="eh0VAfqQ1UX51" rx="0" ry="0" transform="translate(-245 0)" fill="#fff" stroke-width="0"/></g></g><g id="eh0VAfqQ1UX52" transform="translate(-383 0)" opacity="0"><ellipse rx="2.5" ry="2.5" fill="#fff" stroke-width="0"/></g><g id="eh0VAfqQ1UX54_to" style="offset-path:path('M-373.75,0C-367.583,0,-334.417,0,-336.75,0C-339.083,0,-379.25,0,-387.75,0');offset-rotate:0deg"><g transform="translate(0,0)"><rect id="eh0VAfqQ1UX55" width="0" height="1" rx="100" ry="100" transform="translate(0 -0.5)" fill="#fff" stroke-width="0"/></g></g><g id="eh0VAfqQ1UX56" transform="translate(-336.75 0)" opacity="0"><rect width="10" height="3" rx="0" ry="0" transform="translate(8 -1.5)" fill="#fff" stroke-width="0"/></g><g transform="translate(-336.75 0)"><rect id="eh0VAfqQ1UX59" width="1" height="0" rx="0" ry="0" transform="translate(-75.5 0)" fill="#fff" stroke-width="0"/></g><g id="eh0VAfqQ1UX60_to" style="offset-path:path('M-327.75,0C-329.25,0,-335.25,0,-336.75,0');offset-rotate:0deg"><g transform="translate(0,0)"><rect id="eh0VAfqQ1UX61" width="0" height="1" rx="0" ry="0" transform="translate(-90 -0.5)" fill="#fff" stroke-width="0"/></g></g><g id="eh0VAfqQ1UX62_to" style="offset-path:path('M-274.75,0C-285.083,0,-326.417,0,-336.75,0');offset-rotate:0deg"><g transform="translate(0,0)"><rect id="eh0VAfqQ1UX63" width="0" height="1" rx="0" ry="0" transform="translate(-240 -0.5)" fill="#fff" stroke-width="0"/></g></g><g id="eh0VAfqQ1UX64_to" style="offset-path:path('M-336.75,0C-339.417,0,-350.083,0,-352.75,0');offset-rotate:0deg"><g transform="translate(0,0)"><rect id="eh0VAfqQ1UX65" width="35" height="10" rx="5" ry="5" transform="translate(-257.5 -5)" paint-order="stroke fill markers" fill="none" fill-rule="evenodd" stroke="#fff" stroke-width="0"/></g></g><g transform="translate(-336.75 0)"><rect id="eh0VAfqQ1UX67" width="0" height="0" rx="8" ry="8" transform="translate(-100 0)" paint-order="stroke fill markers" fill="none" fill-rule="evenodd" stroke="#fff" stroke-width="0"/></g><g transform="translate(-336.75 0)"><rect id="eh0VAfqQ1UX69" width="0" height="0" rx="0" ry="0" transform="translate(-216 0)" paint-order="stroke fill markers" fill="none" fill-rule="evenodd" stroke="#fff"/></g><g id="eh0VAfqQ1UX70_to" style="offset-path:path('M-636.75,0C-650.583,0,-705.917,0,-719.75,0');offset-rotate:0deg"><g transform="rotate(45) translate(0,0)"><rect id="eh0VAfqQ1UX71" width="0" height="0" rx="0" ry="0" paint-order="stroke fill markers" fill="none" fill-rule="evenodd" stroke="#fff" stroke-dasharray="0,0"/></g></g><g id="eh0VAfqQ1UX72_to" style="offset-path:path('M-664,0C-672.333,0,-705.667,0,-714,0');offset-rotate:0deg"><g transform="rotate(45) translate(0,0)"><rect id="eh0VAfqQ1UX73" width="0" height="0" rx="0" ry="0" paint-order="stroke fill markers" fill="none" fill-rule="evenodd" stroke="#fff" stroke-dasharray="0,0"/></g></g><g id="eh0VAfqQ1UX74_to" style="offset-path:path('M-354.75,0C-351.75,0,-339.75,0,-336.75,0');offset-rotate:0deg"><g transform="translate(0,0)"><rect id="eh0VAfqQ1UX75" width="1" height="0" rx="0" ry="0" transform="translate(154.5 0)" fill="#fff" stroke-width="0"/></g></g><g id="eh0VAfqQ1UX76_to" style="offset-path:path('M-370.75,0C-365.083,0,-342.417,0,-336.75,0');offset-rotate:0deg"><g transform="translate(0,0)"><rect id="eh0VAfqQ1UX77" width="0" height="1" rx="0" ry="0" transform="translate(124 -0.5)" fill="#fff" stroke-width="0"/></g></g><g transform="translate(-336.75 0)"><rect id="eh0VAfqQ1UX79" width="1" height="0" rx="0" ry="0" transform="translate(159.5 0)" fill="#fff" stroke-width="0"/></g><g transform="translate(-336.75 0)"><rect id="eh0VAfqQ1UX81" width="1" height="0" rx="0" ry="0" transform="translate(164.5 0)" fill="#fff" stroke-width="0"/></g><g transform="translate(-336.75 0)"><rect id="eh0VAfqQ1UX83" width="1" height="0" rx="0" ry="0" transform="translate(169.5 0)" fill="#fff" stroke-width="0"/></g><g transform="translate(-336.75 0)"><rect id="eh0VAfqQ1UX85" width="1" height="0" rx="0" ry="0" transform="translate(174.5 0)" fill="#fff" stroke-width="0"/></g><g transform="translate(-336.75 0)"><rect id="eh0VAfqQ1UX87" width="1" height="0" rx="0" ry="0" transform="translate(179.5 0)" fill="#fff" stroke-width="0"/></g><g transform="translate(-336.75 0)"><rect id="eh0VAfqQ1UX89" width="1" height="0" rx="0" ry="0" transform="translate(184.5 0)" fill="#fff" stroke-width="0"/></g><g id="eh0VAfqQ1UX90_to" style="offset-path:path('M-9,0C-14.167,0,-34.833,0,-40,0');offset-rotate:0deg"><g transform="rotate(45) translate(0,0)"><rect id="eh0VAfqQ1UX91" width="0" height="0" rx="0" ry="0" paint-order="stroke fill markers" fill="none" fill-rule="evenodd" stroke="#fff" stroke-dasharray="0,0"/></g></g><g id="eh0VAfqQ1UX92_to" style="offset-path:path('M-38,0C-40,0,-48,0,-50,0');offset-rotate:0deg"><g transform="rotate(45) translate(0,0)"><rect id="eh0VAfqQ1UX93" width="0" height="0" rx="0" ry="0" paint-order="stroke fill markers" fill="none" fill-rule="evenodd" stroke="#fff" stroke-dasharray="0,0"/></g></g><g id="eh0VAfqQ1UX94" transform="matrix(0 1 -1 0 30 0)" opacity="0"><path d="M0,-7L6.062178,3.5h-12.124356L0,-7Z" fill="#fff" stroke-width="0"/></g><g id="eh0VAfqQ1UX96" transform="matrix(0 1 -1 0 20 0)" opacity="0"><path d="M0,-5L4.330127,2.5h-8.660254L0,-5Z" fill="#fff" stroke-width="0"/></g><g id="eh0VAfqQ1UX98" transform="translate(0 20)" opacity="0"><path d="M0,-5L4.330127,2.5h-8.660254L0,-5Z" fill="#fff" stroke-width="0"/></g><g id="eh0VAfqQ1UX100_to" style="offset-path:path('M0,66C0,64,0,56,0,54');offset-rotate:0deg"><g id="eh0VAfqQ1UX100" transform="translate(0,0)" opacity="0"><path id="eh0VAfqQ1UX101" d="M0,0v0v0v0Z" fill="#fff" stroke-width="0"/></g></g></g></g><g transform="matrix(1.27 0 0 1.27 669.231 298.967)"><g id="eh0VAfqQ1UX103" transform="matrix(0.1 0 0 0.1 -197.5 240.5)" opacity="0"><g transform="translate(-383 0)"><ellipse id="eh0VAfqQ1UX105" rx="0" ry="0" paint-order="stroke fill markers" fill="none" fill-rule="evenodd" stroke="#fff" stroke-width="0"/></g><g id="eh0VAfqQ1UX106_to" style="offset-path:path('M-383,0C-377.167,0,-353.833,0,-348,0');offset-rotate:0deg"><g transform="translate(0,0)"><ellipse id="eh0VAfqQ1UX107" rx="0" ry="0" transform="translate(-127 0)" paint-order="stroke fill markers" fill="none" fill-rule="evenodd" stroke="#fff"/></g></g><g id="eh0VAfqQ1UX108_to" style="offset-path:path('M-383,0C-388,0,-408,0,-413,0');offset-rotate:0deg"><g transform="translate(0,0)"><ellipse id="eh0VAfqQ1UX109" rx="2.5" ry="2.5" transform="translate(-260 0)" paint-order="stroke fill markers" fill="none" fill-rule="evenodd" stroke="#fff" stroke-width="0"/></g></g><g id="eh0VAfqQ1UX110_to" style="offset-path:path('M-383,0C-381.167,0,-373.833,0,-372,0');offset-rotate:0deg"><g transform="translate(0,0)"><ellipse id="eh0VAfqQ1UX111" rx="0" ry="0" transform="translate(-79 0)" paint-order="stroke fill markers" fill="none" fill-rule="evenodd" stroke="#fff"/></g></g><g id="eh0VAfqQ1UX112_to" style="offset-path:path('M-383,0C-379.833,0,-363.833,0,-364,0C-364.167,0,-380.667,0,-384,0');offset-rotate:0deg"><g transform="translate(0,0)"><ellipse id="eh0VAfqQ1UX113" rx="0" ry="0" transform="translate(-245 0)" fill="#fff" stroke-width="0"/></g></g><g id="eh0VAfqQ1UX114" transform="translate(-383 0)" opacity="0"><ellipse rx="2.5" ry="2.5" fill="#fff" stroke-width="0"/></g><g id="eh0VAfqQ1UX116_to" style="offset-path:path('M-373.75,0C-367.583,0,-334.417,0,-336.75,0C-339.083,0,-379.25,0,-387.75,0');offset-rotate:0deg"><g transform="translate(0,0)"><rect id="eh0VAfqQ1UX117" width="0" height="1" rx="100" ry="100" transform="translate(0 -0.5)" fill="#fff" stroke-width="0"/></g></g><g id="eh0VAfqQ1UX118" transform="translate(-336.75 0)" opacity="0"><rect width="10" height="3" rx="0" ry="0" transform="translate(8 -1.5)" fill="#fff" stroke-width="0"/></g><g transform="translate(-336.75 0)"><rect id="eh0VAfqQ1UX121" width="1" height="0" rx="0" ry="0" transform="translate(-75.5 0)" fill="#fff" stroke-width="0"/></g><g id="eh0VAfqQ1UX122_to" style="offset-path:path('M-327.75,0C-329.25,0,-335.25,0,-336.75,0');offset-rotate:0deg"><g transform="translate(0,0)"><rect id="eh0VAfqQ1UX123" width="0" height="1" rx="0" ry="0" transform="translate(-90 -0.5)" fill="#fff" stroke-width="0"/></g></g><g id="eh0VAfqQ1UX124_to" style="offset-path:path('M-274.75,0C-285.083,0,-326.417,0,-336.75,0');offset-rotate:0deg"><g transform="translate(0,0)"><rect id="eh0VAfqQ1UX125" width="0" height="1" rx="0" ry="0" transform="translate(-240 -0.5)" fill="#fff" stroke-width="0"/></g></g><g id="eh0VAfqQ1UX126_to" style="offset-path:path('M-336.75,0C-339.417,0,-350.083,0,-352.75,0');offset-rotate:0deg"><g transform="translate(0,0)"><rect id="eh0VAfqQ1UX127" width="35" height="10" rx="5" ry="5" transform="translate(-257.5 -5)" paint-order="stroke fill markers" fill="none" fill-rule="evenodd" stroke="#fff" stroke-width="0"/></g></g><g transform="translate(-336.75 0)"><rect id="eh0VAfqQ1UX129" width="0" height="0" rx="8" ry="8" transform="translate(-100 0)" paint-order="stroke fill markers" fill="none" fill-rule="evenodd" stroke="#fff" stroke-width="0"/></g><g transform="translate(-336.75 0)"><rect id="eh0VAfqQ1UX131" width="0" height="0" rx="0" ry="0" transform="translate(-216 0)" paint-order="stroke fill markers" fill="none" fill-rule="evenodd" stroke="#fff"/></g><g id="eh0VAfqQ1UX132_to" style="offset-path:path('M-636.75,0C-650.583,0,-705.917,0,-719.75,0');offset-rotate:0deg"><g transform="rotate(45) translate(0,0)"><rect id="eh0VAfqQ1UX133" width="0" height="0" rx="0" ry="0" paint-order="stroke fill markers" fill="none" fill-rule="evenodd" stroke="#fff" stroke-dasharray="0,0"/></g></g><g id="eh0VAfqQ1UX134_to" style="offset-path:path('M-664,0C-672.333,0,-705.667,0,-714,0');offset-rotate:0deg"><g transform="rotate(45) translate(0,0)"><rect id="eh0VAfqQ1UX135" width="0" height="0" rx="0" ry="0" paint-order="stroke fill markers" fill="none" fill-rule="evenodd" stroke="#fff" stroke-dasharray="0,0"/></g></g><g id="eh0VAfqQ1UX136_to" style="offset-path:path('M-354.75,0C-351.75,0,-339.75,0,-336.75,0');offset-rotate:0deg"><g transform="translate(0,0)"><rect id="eh0VAfqQ1UX137" width="1" height="0" rx="0" ry="0" transform="translate(154.5 0)" fill="#fff" stroke-width="0"/></g></g><g id="eh0VAfqQ1UX138_to" style="offset-path:path('M-370.75,0C-365.083,0,-342.417,0,-336.75,0');offset-rotate:0deg"><g transform="translate(0,0)"><rect id="eh0VAfqQ1UX139" width="0" height="1" rx="0" ry="0" transform="translate(124 -0.5)" fill="#fff" stroke-width="0"/></g></g><g transform="translate(-336.75 0)"><rect id="eh0VAfqQ1UX141" width="1" height="0" rx="0" ry="0" transform="translate(159.5 0)" fill="#fff" stroke-width="0"/></g><g transform="translate(-336.75 0)"><rect id="eh0VAfqQ1UX143" width="1" height="0" rx="0" ry="0" transform="translate(164.5 0)" fill="#fff" stroke-width="0"/></g><g transform="translate(-336.75 0)"><rect id="eh0VAfqQ1UX145" width="1" height="0" rx="0" ry="0" transform="translate(169.5 0)" fill="#fff" stroke-width="0"/></g><g transform="translate(-336.75 0)"><rect id="eh0VAfqQ1UX147" width="1" height="0" rx="0" ry="0" transform="translate(174.5 0)" fill="#fff" stroke-width="0"/></g><g transform="translate(-336.75 0)"><rect id="eh0VAfqQ1UX149" width="1" height="0" rx="0" ry="0" transform="translate(179.5 0)" fill="#fff" stroke-width="0"/></g><g transform="translate(-336.75 0)"><rect id="eh0VAfqQ1UX151" width="1" height="0" rx="0" ry="0" transform="translate(184.5 0)" fill="#fff" stroke-width="0"/></g><g id="eh0VAfqQ1UX152_to" style="offset-path:path('M-9,0C-14.167,0,-34.833,0,-40,0');offset-rotate:0deg"><g transform="rotate(45) translate(0,0)"><rect id="eh0VAfqQ1UX153" width="0" height="0" rx="0" ry="0" paint-order="stroke fill markers" fill="none" fill-rule="evenodd" stroke="#fff" stroke-dasharray="0,0"/></g></g><g id="eh0VAfqQ1UX154_to" style="offset-path:path('M-38,0C-40,0,-48,0,-50,0');offset-rotate:0deg"><g transform="rotate(45) translate(0,0)"><rect id="eh0VAfqQ1UX155" width="0" height="0" rx="0" ry="0" paint-order="stroke fill markers" fill="none" fill-rule="evenodd" stroke="#fff" stroke-dasharray="0,0"/></g></g><g id="eh0VAfqQ1UX156" transform="matrix(0 1 -1 0 30 0)" opacity="0"><path d="M0,-7L6.062178,3.5h-12.124356L0,-7Z" fill="#fff" stroke-width="0"/></g><g id="eh0VAfqQ1UX158" transform="matrix(0 1 -1 0 20 0)" opacity="0"><path d="M0,-5L4.330127,2.5h-8.660254L0,-5Z" fill="#fff" stroke-width="0"/></g><g id="eh0VAfqQ1UX160" transform="translate(0 20)" opacity="0"><path d="M0,-5L4.330127,2.5h-8.660254L0,-5Z" fill="#fff" stroke-width="0"/></g><g id="eh0VAfqQ1UX162_to" style="offset-path:path('M0,66C0,64,0,56,0,54');offset-rotate:0deg"><g id="eh0VAfqQ1UX162" transform="translate(0,0)" opacity="0"><path id="eh0VAfqQ1UX163" d="M0,0v0v0v0Z" fill="#fff" stroke-width="0"/></g></g></g></g><g transform="matrix(1.27 0 0 1.27 669.231 298.967)"><g id="eh0VAfqQ1UX165" transform="translate(-840.732 -252.467)" opacity="0"><g transform="translate(675 384.5)"><g><path d="M-183.602,-122.875c0,0,749.782,0,749.782,0" paint-order="stroke fill markers" fill="none" fill-rule="evenodd" stroke="#8c89b4" stroke-dashoffset="4" stroke-dasharray="4"/></g><g><path d="M-183.602,-177.055c0,0,749.782,0,749.782,0" paint-order="stroke fill markers" fill="none" fill-rule="evenodd" stroke="#8c89b4" stroke-dashoffset="4" stroke-dasharray="4"/></g><g><path d="M-183.602,-69.672c0,0,749.782,0,749.782,0" paint-order="stroke fill markers" fill="none" fill-rule="evenodd" stroke="#8c89b4" stroke-dashoffset="4" stroke-dasharray="4"/></g><g><path d="M-183.602,-14.523c0,0,749.782,0,749.782,0" paint-order="stroke fill markers" fill="none" fill-rule="evenodd" stroke="#8c89b4" stroke-dashoffset="4" stroke-dasharray="4"/></g><g><path d="M-183.602,39.656c0,0,749.782,0,749.782,0" paint-order="stroke fill markers" fill="none" fill-rule="evenodd" stroke="#8c89b4" stroke-dashoffset="4" stroke-dasharray="4"/></g><g><path d="M-218.288,-175.458c0,.75-.114,1.403-.343,1.96-.228.551-.554,1.011-.975,1.38-.416.363-.92.636-1.512.817-.592.182-1.251.273-1.978.273-.832,0-1.591-.12-2.276-.361-.686-.246-1.318-.577-1.899-.993c0,0,.967-1.406.967-1.406.475.334.993.6,1.556.8.568.199,1.154.299,1.758.299.48,0,.899-.065,1.257-.194.357-.129.653-.31.887-.545.235-.234.41-.515.528-.843.117-.334.175-.707.175-1.117c0-.761-.216-1.35-.65-1.766-.428-.416-1.069-.624-1.925-.624-.275,0-.527.017-.756.052-.222.036-.433.088-.632.159-.194.07-.375.155-.545.255-.17.093-.334.202-.493.325c0,0-1.749-.598-1.749-.598s.414-6.249.414-6.249s7.47,0,7.47,0s0,1.696,0,1.696-5.871,0-5.871,0-.246,3.454-.246,3.454c.305-.199.671-.369,1.099-.509.433-.141.949-.211,1.547-.211.685,0,1.289.091,1.81.272.527.182.967.445,1.318.791.352.34.616.753.791,1.239.182.487.273,1.035.273,1.644Z" fill="#8c89b4" stroke-width="0"/><path d="M-206.933,-177.532c0,1.049-.117,1.977-.351,2.786-.229.808-.551,1.488-.967,2.039-.41.551-.902.97-1.477,1.257-.568.281-1.195.422-1.88.422-.686,0-1.319-.141-1.899-.422-.574-.287-1.069-.703-1.485-1.248-.416-.551-.741-1.231-.976-2.039-.228-.809-.343-1.741-.343-2.795c0-1.049.118-1.978.352-2.786.234-.809.56-1.486.976-2.031.416-.55.911-.966,1.485-1.248.574-.287,1.204-.43,1.89-.43.685,0,1.315.14,1.889.422.574.281,1.067.697,1.477,1.248.416.55.738,1.23.967,2.039.228.802.342,1.731.342,2.786Z" fill="#8c89b4" stroke-width="0"/><path d="M-208.822,-177.532c0-.78-.068-1.468-.202-2.066-.129-.597-.314-1.101-.554-1.511-.24-.411-.533-.721-.879-.932-.34-.211-.724-.316-1.151-.316-.434,0-.824.105-1.169.316-.346.205-.639.513-.879.923s-.425.917-.554,1.52c-.129.598-.193,1.286-.193,2.066c0,.779.064,1.47.193,2.074.135.598.322,1.102.563,1.512.24.404.533.712.878.923.346.211.733.316,1.161.316.427,0,.814-.103,1.16-.308.345-.211.638-.518.879-.923.24-.41.424-.914.553-1.511.129-.604.194-1.298.194-2.083Z" fill="#8c89b4" stroke-width="0"/><path d="M-194.452,-171.23c0,0-2.145,0-2.145,0s-3.612-6.46-3.612-6.46-2.347,2.821-2.347,2.821s0,3.639,0,3.639-1.837,0-1.837,0s0-12.604,0-12.604s1.837,0,1.837,0s0,6.434,0,6.434s5.151-6.434,5.151-6.434s2.144,0,2.144,0-3.691,4.579-3.691,4.579s4.5,8.025,4.5,8.025Z" fill="#8c89b4" stroke-width="0"/></g><g><path d="M-219.527,-119.881c0,0,0,2.83,0,2.83s-1.714,0-1.714,0s0-2.847,0-2.847-6.372,0-6.372,0s0-1.451,0-1.451s6.152-8.305,6.152-8.305s1.934,0,1.934,0s0,8.191,0,8.191s1.564,0,1.564,0s0,1.582,0,1.582-1.564,0-1.564,0Z" fill="#8c89b4" stroke-width="0"/><path d="M-221.241,-127.281c0,0-4.307,5.818-4.307,5.818s4.307,0,4.307,0s0-5.818,0-5.818Z" fill="#8c89b4" stroke-width="0"/><path d="M-206.933,-123.353c0,1.049-.117,1.978-.351,2.787-.229.808-.551,1.488-.967,2.039-.41.55-.902.969-1.477,1.256-.568.282-1.195.422-1.88.422-.686,0-1.319-.14-1.899-.422-.574-.287-1.069-.703-1.485-1.248-.416-.55-.741-1.23-.976-2.039-.228-.808-.343-1.74-.343-2.795c0-1.048.118-1.977.352-2.786.234-.808.56-1.485.976-2.03.416-.551.911-.967,1.485-1.248.574-.287,1.204-.431,1.89-.431.685,0,1.315.141,1.889.422s1.067.697,1.477,1.248c.416.551.738,1.231.967,2.039.228.803.342,1.732.342,2.786Z" fill="#8c89b4" stroke-width="0"/><path d="M-208.822,-123.353c0-.779-.068-1.467-.202-2.065-.129-.598-.314-1.102-.554-1.512s-.533-.72-.879-.931c-.34-.211-.724-.317-1.151-.317-.434,0-.824.106-1.169.317-.346.205-.639.512-.879.923-.24.41-.425.917-.554,1.52-.129.598-.193,1.286-.193,2.065c0,.78.064,1.471.193,2.075.135.597.322,1.101.563,1.511.24.405.533.712.878.923.346.211.733.317,1.161.317.427,0,.814-.103,1.16-.308.345-.211.638-.519.879-.923.24-.41.424-.914.553-1.512.129-.603.194-1.297.194-2.083Z" fill="#8c89b4" stroke-width="0"/><path d="M-194.452,-117.051c0,0-2.145,0-2.145,0s-3.612-6.46-3.612-6.46-2.347,2.822-2.347,2.822s0,3.638,0,3.638-1.837,0-1.837,0s0-12.603,0-12.603s1.837,0,1.837,0s0,6.433,0,6.433s5.151-6.433,5.151-6.433s2.144,0,2.144,0-3.691,4.579-3.691,4.579s4.5,8.024,4.5,8.024Z" fill="#8c89b4" stroke-width="0"/></g><g><path d="M-218.525,-66.566c0,.627-.109,1.183-.326,1.67-.216.48-.527.887-.931,1.221-.405.328-.9.577-1.486.747-.58.17-1.236.255-1.968.255-.469,0-.911-.044-1.327-.132s-.806-.211-1.169-.369c-.364-.158-.701-.343-1.011-.554-.311-.216-.595-.448-.853-.694c0,0,1.187-1.257,1.187-1.257.422.399.899.724,1.432.976.534.246,1.131.369,1.793.369.961,0,1.664-.193,2.11-.58.451-.393.677-.932.677-1.617c0-.352-.065-.657-.194-.914-.129-.264-.313-.484-.554-.659-.234-.176-.521-.308-.861-.396s-.721-.132-1.142-.132c0,0-1.064,0-1.064,0s0-1.591,0-1.591s1.046,0,1.046,0c.773,0,1.342-.17,1.705-.509.363-.346.545-.812.545-1.398c0-.275-.044-.527-.132-.756-.088-.234-.228-.433-.422-.597-.193-.17-.445-.302-.756-.396-.31-.094-.691-.141-1.142-.141-.545,0-1.037.1-1.477.299-.439.194-.835.449-1.186.765c0,0-1.099-1.239-1.099-1.239.205-.182.442-.361.712-.536.27-.182.565-.34.888-.475.322-.141.668-.252,1.037-.334.369-.088.762-.132,1.178-.132.609,0,1.174.068,1.696.202.521.129.973.328,1.353.598.381.269.68.615.897,1.037.217.416.325.908.325,1.477c0,.369-.044.7-.132.993-.082.287-.202.545-.36.773-.152.229-.337.431-.554.607-.217.17-.457.319-.721.448.299.076.586.193.862.351.275.153.518.349.729.589.211.241.378.531.501.87.129.334.194.721.194,1.161Z" fill="#8c89b4" stroke-width="0"/><path d="M-206.933,-69.177c0,1.049-.117,1.978-.351,2.786-.229.809-.551,1.489-.967,2.039-.41.551-.902.97-1.477,1.257-.568.282-1.195.422-1.88.422-.686,0-1.319-.14-1.899-.422-.574-.287-1.069-.703-1.485-1.248-.416-.551-.741-1.23-.976-2.039-.228-.808-.343-1.74-.343-2.795c0-1.049.118-1.977.352-2.786.234-.808.56-1.485.976-2.03.416-.551.911-.967,1.485-1.248.574-.287,1.204-.431,1.89-.431.685,0,1.315.141,1.889.422s1.067.697,1.477,1.248c.416.551.738,1.231.967,2.039.228.803.342,1.732.342,2.786Z" fill="#8c89b4" stroke-width="0"/><path d="M-208.822,-69.177c0-.779-.068-1.468-.202-2.065-.129-.598-.314-1.102-.554-1.512s-.533-.721-.879-.932c-.34-.21-.724-.316-1.151-.316-.434,0-.824.106-1.169.316-.346.206-.639.513-.879.923s-.425.917-.554,1.521c-.129.597-.193,1.286-.193,2.065c0,.78.064,1.471.193,2.074.135.598.322,1.102.563,1.512.24.404.533.712.878.923.346.211.733.316,1.161.316.427,0,.814-.102,1.16-.307.345-.211.638-.519.879-.923.24-.41.424-.914.553-1.512.129-.603.194-1.298.194-2.083Z" fill="#8c89b4" stroke-width="0"/><path d="M-194.452,-62.875c0,0-2.145,0-2.145,0s-3.612-6.46-3.612-6.46-2.347,2.821-2.347,2.821s0,3.639,0,3.639-1.837,0-1.837,0s0-12.604,0-12.604s1.837,0,1.837,0s0,6.434,0,6.434s5.151-6.434,5.151-6.434s2.144,0,2.144,0-3.691,4.58-3.691,4.58s4.5,8.024,4.5,8.024Z" fill="#8c89b4" stroke-width="0"/></g><g><path d="M-227.42,-7.73c.047-.85.179-1.588.396-2.215.216-.633.512-1.196.887-1.688.375-.498.821-.946,1.336-1.345.516-.404,1.096-.802,1.74-1.195.522-.334.947-.624,1.275-.87s.583-.475.765-.686c.187-.21.313-.418.377-.624.071-.21.106-.445.106-.703c0-.562-.199-1.002-.598-1.318-.398-.322-.978-.483-1.74-.483-.352,0-.674.032-.967.096-.293.059-.568.144-.826.255-.252.111-.492.246-.721.404-.228.153-.454.323-.676.51c0,0-1.081-1.318-1.081-1.318.281-.229.574-.44.878-.633.311-.199.642-.372.994-.519.351-.146.729-.26,1.133-.342.405-.082.844-.123,1.319-.123.603,0,1.16.07,1.67.211.509.134.946.342,1.309.624.364.275.648.624.853,1.046.205.416.307.905.307,1.467c0,.463-.055.87-.167,1.222-.105.346-.281.671-.527.976-.246.304-.571.606-.976.905-.398.299-.893.633-1.485,1.002-.639.404-1.166.767-1.582,1.09-.41.316-.744.615-1.002.896-.252.281-.442.554-.571.817-.129.264-.229.54-.299.827c0,0,6.732,0,6.732,0s0,1.714,0,1.714-8.859,0-8.859,0Z" fill="#8c89b4" stroke-width="0"/><path d="M-206.933,-14.032c0,1.049-.117,1.977-.351,2.786-.229.808-.551,1.488-.967,2.039-.41.551-.902.97-1.477,1.257-.568.281-1.195.422-1.88.422-.686,0-1.319-.141-1.899-.422-.574-.287-1.069-.703-1.485-1.248-.416-.551-.741-1.231-.976-2.039-.228-.809-.343-1.741-.343-2.795c0-1.049.118-1.978.352-2.786.234-.809.56-1.486.976-2.031.416-.55.911-.966,1.485-1.248.574-.287,1.204-.43,1.89-.43.685,0,1.315.14,1.889.422.574.281,1.067.697,1.477,1.248.416.55.738,1.23.967,2.039.228.802.342,1.731.342,2.786Z" fill="#8c89b4" stroke-width="0"/><path d="M-208.822,-14.032c0-.78-.068-1.468-.202-2.066-.129-.597-.314-1.101-.554-1.511-.24-.411-.533-.721-.879-.932-.34-.211-.724-.316-1.151-.316-.434,0-.824.105-1.169.316-.346.205-.639.513-.879.923s-.425.917-.554,1.52c-.129.598-.193,1.286-.193,2.066c0,.779.064,1.47.193,2.074.135.598.322,1.102.563,1.512.24.404.533.712.878.923.346.211.733.316,1.161.316.427,0,.814-.103,1.16-.308.345-.211.638-.518.879-.923.24-.41.424-.914.553-1.511.129-.604.194-1.298.194-2.083Z" fill="#8c89b4" stroke-width="0"/><path d="M-194.452,-7.73c0,0-2.145,0-2.145,0s-3.612-6.46-3.612-6.46-2.347,2.821-2.347,2.821s0,3.639,0,3.639-1.837,0-1.837,0s0-12.604,0-12.604s1.837,0,1.837,0s0,6.434,0,6.434s5.151-6.434,5.151-6.434s2.144,0,2.144,0-3.691,4.579-3.691,4.579s4.5,8.025,4.5,8.025Z" fill="#8c89b4" stroke-width="0"/></g><g><path d="M-226.242,46.449c0,0,0-1.599,0-1.599s2.821,0,2.821,0s0-8.086,0-8.086-2.54,0-2.54,0s0-1.257,0-1.257c.428-.024.806-.068,1.134-.132.334-.064.621-.161.861-.29s.434-.293.58-.492c.153-.205.261-.454.325-.747c0,0,1.547,0,1.547,0s0,11.004,0,11.004s2.576,0,2.576,0s0,1.599,0,1.599-7.304,0-7.304,0Z" fill="#8c89b4" stroke-width="0"/><path d="M-206.933,40.147c0,1.049-.117,1.978-.351,2.787-.229.808-.551,1.488-.967,2.039-.41.55-.902.969-1.477,1.256-.568.282-1.195.422-1.88.422-.686,0-1.319-.14-1.899-.422-.574-.287-1.069-.703-1.485-1.248-.416-.55-.741-1.23-.976-2.039-.228-.808-.343-1.74-.343-2.795c0-1.048.118-1.977.352-2.786.234-.808.56-1.485.976-2.03.416-.551.911-.967,1.485-1.248.574-.287,1.204-.431,1.89-.431.685,0,1.315.141,1.889.422s1.067.697,1.477,1.248c.416.551.738,1.231.967,2.039.228.803.342,1.732.342,2.786Z" fill="#8c89b4" stroke-width="0"/><path d="M-208.822,40.147c0-.779-.068-1.467-.202-2.065-.129-.598-.314-1.102-.554-1.512s-.533-.72-.879-.931c-.34-.211-.724-.317-1.151-.317-.434,0-.824.106-1.169.317-.346.205-.639.512-.879.923-.24.41-.425.917-.554,1.52-.129.598-.193,1.286-.193,2.065c0,.78.064,1.471.193,2.075.135.597.322,1.101.563,1.511.24.405.533.712.878.923.346.211.733.317,1.161.317.427,0,.814-.103,1.16-.308.345-.211.638-.519.879-.923.24-.41.424-.914.553-1.512.129-.603.194-1.297.194-2.083Z" fill="#8c89b4" stroke-width="0"/><path d="M-194.452,46.449c0,0-2.145,0-2.145,0s-3.612-6.46-3.612-6.46-2.347,2.822-2.347,2.822s0,3.638,0,3.638-1.837,0-1.837,0s0-12.603,0-12.603s1.837,0,1.837,0s0,6.433,0,6.433s5.151-6.433,5.151-6.433s2.144,0,2.144,0-3.691,4.579-3.691,4.579s4.5,8.024,4.5,8.024Z" fill="#8c89b4" stroke-width="0"/></g></g><g transform="translate(675.001 384.5)"><g><path d="M-162.192,62.034c0,1.694-.37,2.98-1.108,3.859-.732.873-1.857,1.309-3.375,1.309-.592,0-1.125-.076-1.599-.228-.469-.153-.885-.372-1.248-.66-.358-.287-.666-.635-.923-1.045-.258-.416-.466-.888-.624-1.415c0,0,1.837-.545,1.837-.545.117.31.249.583.395.817.147.234.316.439.51.615.199.176.439.314.721.413.281.1.609.15.984.15.457,0,.844-.065,1.16-.194.322-.134.586-.339.791-.615.205-.275.355-.63.448-1.063.094-.434.141-.95.141-1.547c0,0,0-7.489,0-7.489s1.89,0,1.89,0s0,7.638,0,7.638Z" fill="#8c89b4" stroke-width="0"/><path d="M-153.852,67c0,0,0-.932,0-.932-.24.223-.439.387-.597.493-.158.099-.322.196-.492.29-.17.087-.387.167-.651.237-.258.076-.542.114-.852.114-.381,0-.768-.058-1.16-.176-.387-.111-.739-.293-1.055-.545-.311-.257-.566-.588-.765-.993-.199-.404-.299-.896-.299-1.476c0-.528.094-.982.282-1.363.193-.386.457-.706.791-.958.339-.252.738-.436,1.195-.553.463-.123.961-.185,1.494-.185.498,0,.917.035,1.257.106.34.064.624.149.852.254c0,0,0-.703,0-.703c0-.515-.152-.911-.457-1.186-.304-.276-.747-.413-1.327-.413-.486,0-.926.047-1.318.14-.393.094-.774.244-1.143.449c0,0-.72-1.398-.72-1.398.451-.281.934-.492,1.45-.633.521-.146,1.116-.219,1.784-.219.527,0,1.008.064,1.441.193.44.129.815.325,1.125.589.311.264.551.595.721.993.176.398.264.864.264,1.397c0,0,0,6.478,0,6.478s-1.82,0-1.82,0Z" fill="#8c89b4" stroke-width="0"/><path d="M-153.852,62.966c-.175-.082-.334-.144-.474-.185-.141-.047-.287-.085-.44-.114-.152-.035-.337-.062-.553-.079-.211-.024-.443-.035-.695-.035-.597,0-1.072.126-1.424.378-.345.252-.518.594-.518,1.028c0,.281.05.521.149.721.1.193.226.351.378.474.153.123.331.217.536.282.211.058.463.087.756.087.246,0,.484-.035.712-.105.229-.07.443-.161.642-.272.199-.118.378-.247.536-.387.158-.147.29-.293.395-.44c0,0,0-1.353,0-1.353Z" fill="#8c89b4" stroke-width="0"/><path d="M-143.63,67c0,0,0-5.344,0-5.344c0-.855-.152-1.5-.457-1.933-.305-.44-.8-.66-1.485-.66-.299,0-.574.053-.826.159-.252.105-.463.269-.633.492s-.293.486-.369.791c-.077.299-.115.621-.115.967c0,0,0,5.528,0,5.528s-1.854,0-1.854,0s0-9.448,0-9.448s1.854,0,1.854,0s0,.896,0,.896c.118-.17.261-.322.431-.457.17-.14.357-.258.563-.351.205-.094.424-.164.659-.211.234-.053.474-.079.72-.079.569,0,1.061.093,1.477.281.422.181.77.445,1.046.791.281.346.492.782.633,1.309.14.528.211,1.146.211,1.855c0,0,0,5.414,0,5.414s-1.855,0-1.855,0Z" fill="#8c89b4" stroke-width="0"/></g><g><path d="M-103.882,56.251c0,0,0,3.296,0,3.296s3.621,0,3.621,0s0,1.854,0,1.854-3.621,0-3.621,0s0,5.599,0,5.599-1.889,0-1.889,0s0-12.604,0-12.604s8.121,0,8.121,0s0,1.855,0,1.855-6.232,0-6.232,0Z" fill="#8c89b4" stroke-width="0"/><path d="M-89.617,62.087c0,.17-.006.328-.018.475-.011.146-.023.269-.035.369c0,0-6.249,0-6.249,0c.053.457.152.849.299,1.177.146.323.325.589.536.8s.448.366.712.466c.269.1.548.149.835.149.205,0,.398-.017.58-.052s.354-.088.519-.159c.169-.07.319-.14.448-.21.129-.077.296-.188.501-.334c0,0,1.098,1.186,1.098,1.186-.234.223-.46.404-.676.545-.211.135-.443.258-.695.369-.246.106-.527.188-.843.246-.317.059-.666.088-1.046.088-.411,0-.794-.058-1.152-.176-.357-.111-.674-.257-.949-.439-.275-.188-.524-.399-.747-.633-.217-.24-.425-.545-.624-.914-.199-.375-.352-.791-.457-1.248-.106-.463-.158-.967-.158-1.512c0-.797.099-1.503.299-2.118.205-.615.489-1.131.852-1.547s.8-.729,1.31-.94c.509-.217,1.069-.325,1.678-.325.674,0,1.26.129,1.758.386.498.252.911.595,1.239,1.029.329.427.575.928.739,1.503.164.574.246,1.18.246,1.819Z" fill="#8c89b4" stroke-width="0"/><path d="M-91.489,61.401c-.024-.322-.082-.627-.176-.914-.088-.287-.223-.539-.404-.756-.176-.216-.402-.386-.677-.509-.27-.129-.595-.194-.976-.194-.328,0-.615.056-.861.167-.246.106-.457.258-.633.457-.176.2-.322.446-.439.739-.112.287-.188.624-.229,1.01c0,0,4.395,0,4.395,0Z" fill="#8c89b4" stroke-width="0"/><path d="M-79.36,62.43c0,.808-.103,1.511-.308,2.109s-.48,1.096-.826,1.494c-.34.393-.735.686-1.187.879-.445.193-.914.29-1.406.29-.457,0-.899-.105-1.327-.316s-.776-.466-1.046-.765c0,0,0,.879,0,.879s-1.837,0-1.837,0s0-12.164,0-12.164s1.837-.958,1.837-.958s0,4.57,0,4.57c.193-.176.369-.319.527-.43.159-.112.326-.217.501-.317.176-.099.381-.181.616-.246.234-.07.506-.105.817-.105.51,0,.984.096,1.424.29.445.187.832.486,1.16.896s.586.938.773,1.582c.188.639.282,1.409.282,2.312Z" fill="#8c89b4" stroke-width="0"/><path d="M-81.215,62.482c0-1.183-.184-2.047-.554-2.592-.363-.551-.887-.827-1.573-.827-.222,0-.436.036-.641.106-.2.064-.393.152-.58.264-.182.111-.352.24-.51.386-.153.147-.29.296-.413.449c0,0,0,3.981,0,3.981.105.141.234.284.386.431.159.146.334.281.528.404.193.117.398.214.615.29.223.076.451.114.686.114.673,0,1.183-.249,1.529-.747.351-.504.527-1.257.527-2.259Z" fill="#8c89b4" stroke-width="0"/></g><g><path d="M-32.418,67c0,0-1.854,0-1.854,0s0-8.701,0-8.701-3.832,8.903-3.832,8.903-3.797-8.903-3.797-8.903s0,8.701,0,8.701-1.785,0-1.785,0s0-12.604,0-12.604s1.952,0,1.952,0s3.691,8.772,3.691,8.772s3.612-8.772,3.612-8.772s2.013,0,2.013,0s0,12.604,0,12.604Z" fill="#8c89b4" stroke-width="0"/><path d="M-23.98,67c0,0,0-.932,0-.932-.241.223-.44.387-.598.493-.158.099-.322.196-.492.29-.17.087-.387.167-.651.237-.258.076-.542.114-.852.114-.381,0-.768-.058-1.16-.176-.387-.111-.739-.293-1.055-.545-.311-.257-.566-.588-.765-.993-.199-.404-.299-.896-.299-1.476c0-.528.094-.982.282-1.363.193-.386.457-.706.791-.958.34-.252.738-.436,1.195-.553.463-.123.961-.185,1.494-.185.498,0,.917.035,1.257.106.34.064.624.149.853.254c0,0,0-.703,0-.703c0-.515-.153-.911-.458-1.186-.304-.276-.747-.413-1.327-.413-.486,0-.925.047-1.318.14-.393.094-.773.244-1.143.449c0,0-.72-1.398-.72-1.398.451-.281.934-.492,1.45-.633.521-.146,1.116-.219,1.784-.219.527,0,1.008.064,1.441.193.44.129.815.325,1.125.589.311.264.551.595.721.993.176.398.264.864.264,1.397c0,0,0,6.478,0,6.478s-1.819,0-1.819,0Z" fill="#8c89b4" stroke-width="0"/><path d="M-23.98,62.966c-.176-.082-.334-.144-.475-.185-.141-.047-.287-.085-.44-.114-.152-.035-.336-.062-.553-.079-.211-.024-.443-.035-.695-.035-.597,0-1.072.126-1.423.378-.346.252-.519.594-.519,1.028c0,.281.05.521.149.721.1.193.226.351.378.474.153.123.331.217.537.282.21.058.462.087.755.087.246,0,.484-.035.712-.105.229-.07.443-.161.642-.272.199-.118.378-.247.536-.387.158-.147.29-.293.396-.44c0,0,0-1.353,0-1.353Z" fill="#8c89b4" stroke-width="0"/><path d="M-14.374,59.512c-.199-.112-.41-.197-.633-.255-.217-.059-.477-.088-.782-.088-.592,0-1.049.205-1.371.615-.322.404-.484,1.011-.484,1.82c0,0,0,5.396,0,5.396s-1.854,0-1.854,0s0-9.448,0-9.448s1.854,0,1.854,0s0,.896,0,.896c.106-.158.235-.302.387-.43.153-.135.319-.252.501-.352.188-.1.387-.176.598-.228.211-.059.433-.088.668-.088.381,0,.697.035.949.105s.472.167.659.29c0,0-.492,1.767-.492,1.767Z" fill="#8c89b4" stroke-width="0"/></g><g><path d="M30.744,67c0,0-2.013,0-2.013,0s-1.063-2.988-1.063-2.988-5.045,0-5.045,0-1.046,2.988-1.046,2.988-1.96,0-1.96,0s4.535-12.604,4.535-12.604s2.004,0,2.004,0s4.588,12.604,4.588,12.604Z" fill="#8c89b4" stroke-width="0"/><path d="M27.088,62.324c0,0-1.96-5.616-1.96-5.616s-1.925,5.616-1.925,5.616s3.885,0,3.885,0Z" fill="#8c89b4" stroke-width="0"/><path d="M40.896,62.43c0,.808-.103,1.511-.308,2.109s-.481,1.096-.826,1.494c-.34.393-.736.686-1.187.879-.445.193-.914.29-1.406.29-.416,0-.832-.091-1.248-.272-.41-.182-.785-.451-1.125-.809c0,0,0,3.401,0,3.401s-1.837.95-1.837.95s0-12.92,0-12.92s1.837,0,1.837,0s0,.896,0,.896c.34-.316.709-.577,1.107-.782.405-.211.856-.316,1.354-.316.51,0,.984.096,1.424.29.445.187.832.486,1.16.896s.586.938.773,1.582c.188.639.282,1.409.282,2.312Z" fill="#8c89b4" stroke-width="0"/><path d="M39.041,62.482c0-1.183-.185-2.047-.554-2.592-.363-.551-.887-.827-1.573-.827-.381,0-.759.109-1.134.326-.375.211-.712.504-1.01.879c0,0,0,3.981,0,3.981.105.141.234.284.386.431.158.146.334.281.528.404.193.117.398.214.615.29.222.076.451.114.685.114.674,0,1.184-.249,1.53-.747.351-.504.527-1.257.527-2.259Z" fill="#8c89b4" stroke-width="0"/><path d="M45.439,55.135c0,.164-.032.319-.096.466-.065.14-.153.266-.264.378-.105.105-.231.19-.378.254-.14.065-.293.097-.457.097s-.319-.032-.466-.097c-.146-.064-.275-.149-.386-.254-.106-.112-.191-.238-.255-.378-.065-.147-.097-.302-.097-.466s.032-.32.097-.466c.064-.147.149-.273.255-.378.111-.111.24-.199.386-.264.147-.064.302-.096.466-.096s.317.032.457.096c.147.065.273.153.378.264.111.105.199.231.264.378.064.146.096.302.096.466Z" fill="#8c89b4" stroke-width="0"/><path d="M43.312,67c0,0,0-9.448,0-9.448s1.855,0,1.855,0s0,9.448,0,9.448-1.855,0-1.855,0Z" fill="#8c89b4" stroke-width="0"/></g><g><path d="M91.77,67c0,0-1.855,0-1.855,0s0-8.701,0-8.701-3.832,8.903-3.832,8.903-3.797-8.903-3.797-8.903s0,8.701,0,8.701-1.784,0-1.784,0s0-12.604,0-12.604s1.951,0,1.951,0s3.692,8.772,3.692,8.772s3.612-8.772,3.612-8.772s2.013,0,2.013,0s0,12.604,0,12.604Z" fill="#8c89b4" stroke-width="0"/><path d="M100.207,67c0,0,0-.932,0-.932-.24.223-.439.387-.598.493-.158.099-.322.196-.492.29-.17.087-.387.167-.65.237-.258.076-.542.114-.853.114-.381,0-.767-.058-1.16-.176-.387-.111-.738-.293-1.055-.545-.31-.257-.565-.588-.764-.993-.199-.404-.299-.896-.299-1.476c0-.528.094-.982.281-1.363.194-.386.457-.706.791-.958.34-.252.738-.436,1.196-.553.462-.123.96-.185,1.494-.185.498,0,.917.035,1.256.106.34.064.625.149.853.254c0,0,0-.703,0-.703c0-.515-.152-.911-.457-1.186-.305-.276-.747-.413-1.327-.413-.486,0-.926.047-1.319.14-.392.094-.773.244-1.142.449c0,0-.721-1.398-.721-1.398.451-.281.935-.492,1.45-.633.522-.146,1.117-.219,1.785-.219.527,0,1.007.064,1.441.193.439.129.814.325,1.125.589s.551.595.721.993c.175.398.263.864.263,1.397c0,0,0,6.478,0,6.478s-1.819,0-1.819,0Z" fill="#8c89b4" stroke-width="0"/><path d="M100.207,62.966c-.176-.082-.334-.144-.475-.185-.14-.047-.287-.085-.439-.114-.152-.035-.337-.062-.554-.079-.211-.024-.442-.035-.694-.035-.598,0-1.072.126-1.424.378-.346.252-.518.594-.518,1.028c0,.281.049.521.149.721.1.193.226.351.378.474s.331.217.536.282c.211.058.463.087.756.087.246,0,.483-.035.712-.105.228-.07.442-.161.641-.272.2-.118.378-.247.537-.387.158-.147.29-.293.395-.44c0,0,0-1.353,0-1.353Z" fill="#8c89b4" stroke-width="0"/><path d="M107.695,70.331c0,0-1.96,0-1.96,0s1.371-3.507,1.371-3.507-3.471-9.272-3.471-9.272s2.03,0,2.03,0s2.373,7.119,2.373,7.119s2.452-7.119,2.452-7.119s1.96,0,1.96,0-4.755,12.779-4.755,12.779Z" fill="#8c89b4" stroke-width="0"/></g><g><path d="M155.261,62.034c0,1.694-.369,2.98-1.108,3.859-.732.873-1.857,1.309-3.375,1.309-.591,0-1.125-.076-1.599-.228-.469-.153-.885-.372-1.248-.66-.358-.287-.665-.635-.923-1.045-.258-.416-.466-.888-.624-1.415c0,0,1.837-.545,1.837-.545.117.31.249.583.395.817.147.234.317.439.51.615.199.176.439.314.721.413.281.1.609.15.984.15.457,0,.844-.065,1.16-.194.322-.134.586-.339.791-.615.205-.275.355-.63.448-1.063.094-.434.141-.95.141-1.547c0,0,0-7.489,0-7.489s1.89,0,1.89,0s0,7.638,0,7.638Z" fill="#8c89b4" stroke-width="0"/><path d="M163.856,67c0,0,0-.896,0-.896-.234.322-.562.585-.984.791-.422.205-.888.307-1.397.307-1.102,0-1.94-.354-2.514-1.063-.568-.709-.853-1.767-.853-3.173c0,0,0-5.414,0-5.414s1.855,0,1.855,0s0,5.344,0,5.344c0,.867.152,1.517.457,1.951.31.427.809.641,1.494.641.621,0,1.099-.208,1.433-.624.34-.422.509-1.016.509-1.784c0,0,0-5.528,0-5.528s1.855,0,1.855,0s0,9.448,0,9.448-1.855,0-1.855,0Z" fill="#8c89b4" stroke-width="0"/><path d="M174.192,67c0,0,0-5.344,0-5.344c0-.855-.152-1.5-.457-1.933-.304-.44-.799-.66-1.485-.66-.299,0-.574.053-.826.159-.252.105-.463.269-.633.492s-.293.486-.369.791c-.076.299-.114.621-.114.967c0,0,0,5.528,0,5.528s-1.855,0-1.855,0s0-9.448,0-9.448s1.855,0,1.855,0s0,.896,0,.896c.117-.17.26-.322.43-.457.17-.14.358-.258.563-.351.205-.094.425-.164.659-.211.234-.053.475-.079.721-.079.568,0,1.06.093,1.476.281.422.181.771.445,1.046.791.281.346.492.782.633,1.309.141.528.211,1.146.211,1.855c0,0,0,5.414,0,5.414s-1.855,0-1.855,0Z" fill="#8c89b4" stroke-width="0"/></g><g><path d="M219.354,62.034c0,1.694-.369,2.98-1.107,3.859-.732.873-1.857,1.309-3.375,1.309-.592,0-1.125-.076-1.6-.228-.468-.153-.884-.372-1.248-.66-.357-.287-.665-.635-.922-1.045-.258-.416-.466-.888-.624-1.415c0,0,1.836-.545,1.836-.545.118.31.249.583.396.817.146.234.316.439.51.615.199.176.439.314.72.413.282.1.61.15.985.15.457,0,.844-.065,1.16-.194.322-.134.586-.339.791-.615.205-.275.354-.63.448-1.063.094-.434.141-.95.141-1.547c0,0,0-7.489,0-7.489s1.889,0,1.889,0s0,7.638,0,7.638Z" fill="#8c89b4" stroke-width="0"/><path d="M227.95,67c0,0,0-.896,0-.896-.234.322-.562.585-.984.791-.422.205-.888.307-1.398.307-1.101,0-1.939-.354-2.513-1.063-.569-.709-.853-1.767-.853-3.173c0,0,0-5.414,0-5.414s1.855,0,1.855,0s0,5.344,0,5.344c0,.867.152,1.517.457,1.951.31.427.808.641,1.494.641.621,0,1.098-.208,1.432-.624.34-.422.51-1.016.51-1.784c0,0,0-5.528,0-5.528s1.855,0,1.855,0s0,9.448,0,9.448-1.855,0-1.855,0Z" fill="#8c89b4" stroke-width="0"/><path d="M232.635,67c0,0,0-12.146,0-12.146s1.854-.976,1.854-.976s0,13.122,0,13.122-1.854,0-1.854,0Z" fill="#8c89b4" stroke-width="0"/></g><g><path d="M280.104,67c0,0-2.013,0-2.013,0s-1.064-2.988-1.064-2.988-5.045,0-5.045,0-1.045,2.988-1.045,2.988-1.96,0-1.96,0s4.535-12.604,4.535-12.604s2.004,0,2.004,0s4.588,12.604,4.588,12.604Z" fill="#8c89b4" stroke-width="0"/><path d="M276.447,62.324c0,0-1.96-5.616-1.96-5.616s-1.925,5.616-1.925,5.616s3.885,0,3.885,0Z" fill="#8c89b4" stroke-width="0"/><path d="M287.987,67c0,0,0-.896,0-.896-.234.322-.562.585-.984.791-.422.205-.888.307-1.398.307-1.101,0-1.939-.354-2.513-1.063-.569-.709-.853-1.767-.853-3.173c0,0,0-5.414,0-5.414s1.855,0,1.855,0s0,5.344,0,5.344c0,.867.152,1.517.457,1.951.31.427.808.641,1.494.641.621,0,1.099-.208,1.433-.624.339-.422.509-1.016.509-1.784c0,0,0-5.528,0-5.528s1.855,0,1.855,0s0,9.448,0,9.448-1.855,0-1.855,0Z" fill="#8c89b4" stroke-width="0"/><path d="M300.107,66.104c0,.65-.067,1.221-.202,1.713-.129.498-.343.929-.641,1.292-.369.44-.873.774-1.512,1.002-.639.229-1.45.355-2.435.378c0,0-.536-1.511-.536-1.511.721-.024,1.345-.103,1.872-.238.534-.135.906-.325,1.117-.571.193-.205.322-.466.386-.782.065-.311.097-.686.097-1.125c0,0,0-.158,0-.158-.17.158-.349.304-.536.439-.182.129-.375.243-.58.343-.199.099-.41.176-.633.228-.223.059-.457.088-.703.088-.504,0-.976-.094-1.415-.281-.44-.193-.824-.495-1.152-.905-.328-.411-.588-.935-.782-1.574-.187-.644-.281-1.418-.281-2.32c0-.809.102-1.512.308-2.109.205-.604.477-1.102.817-1.494.346-.393.741-.686,1.186-.879.452-.194.92-.29,1.407-.29.24,0,.474.029.703.088.228.058.442.137.641.237.205.099.393.217.563.351.176.129.328.264.457.405c0,0,0-.879,0-.879s1.854,0,1.854,0s0,8.552,0,8.552Z" fill="#8c89b4" stroke-width="0"/><path d="M296.144,65.488c.398,0,.776-.108,1.133-.325.364-.217.701-.51,1.011-.879c0,0,0-3.981,0-3.981-.105-.141-.237-.284-.395-.431-.153-.146-.326-.278-.519-.395-.193-.123-.401-.223-.624-.299-.217-.076-.442-.115-.677-.115-.674,0-1.186.252-1.538.756-.346.498-.518,1.248-.518,2.25c0,1.108.172,1.954.518,2.54.352.586.888.879,1.609.879Z" fill="#8c89b4" stroke-width="0"/></g><g><path d="M346.2,67c0,0-2.02,0-2.02,0s-1.06-2.988-1.06-2.988-5.04,0-5.04,0-1.05,2.988-1.05,2.988-1.96,0-1.96,0s4.54-12.604,4.54-12.604s2,0,2,0s4.59,12.604,4.59,12.604Z" fill="#8c89b4" stroke-width="0"/><path d="M342.54,62.324c0,0-1.96-5.616-1.96-5.616s-1.92,5.616-1.92,5.616s3.88,0,3.88,0Z" fill="#8c89b4" stroke-width="0"/><path d="M354.08,67c0,0,0-.896,0-.896-.23.322-.56.585-.98.791-.43.205-.89.307-1.4.307-1.1,0-1.94-.354-2.51-1.063s-.86-1.767-.86-3.173c0,0,0-5.414,0-5.414s1.86,0,1.86,0s0,5.344,0,5.344c0,.867.15,1.517.45,1.951.32.427.81.641,1.5.641.62,0,1.1-.208,1.43-.624.34-.422.51-1.016.51-1.784c0,0,0-5.528,0-5.528s1.86,0,1.86,0s0,9.448,0,9.448-1.86,0-1.86,0Z" fill="#8c89b4" stroke-width="0"/><path d="M366.2,66.104c0,.65-.07,1.221-.2,1.713-.13.498-.34.929-.64,1.292-.37.44-.88.774-1.51,1.002-.64.229-1.45.355-2.44.378c0,0-.53-1.511-.53-1.511.72-.024,1.34-.103,1.87-.238s.9-.325,1.11-.571c.2-.205.33-.466.39-.782.06-.311.1-.686.1-1.125c0,0,0-.158,0-.158-.17.158-.35.304-.54.439-.18.129-.37.243-.58.343-.2.099-.41.176-.63.228-.22.059-.46.088-.71.088-.5,0-.97-.094-1.41-.281-.44-.193-.82-.495-1.15-.905-.33-.411-.59-.935-.78-1.574-.19-.644-.29-1.418-.29-2.32c0-.809.11-1.512.31-2.109.21-.604.48-1.102.82-1.494.35-.393.74-.686,1.19-.879.45-.194.92-.29,1.4-.29.24,0,.48.029.71.088.22.058.44.137.64.237.2.099.39.217.56.351.18.129.33.264.46.405c0,0,0-.879,0-.879s1.85,0,1.85,0s0,8.552,0,8.552Z" fill="#8c89b4" stroke-width="0"/><path d="M362.24,65.488c.4,0,.77-.108,1.13-.325s.7-.51,1.01-.879c0,0,0-3.981,0-3.981-.1-.141-.24-.284-.39-.431-.16-.146-.33-.278-.52-.395-.2-.123-.4-.223-.63-.299-.21-.076-.44-.115-.67-.115-.68,0-1.19.252-1.54.756-.35.498-.52,1.248-.52,2.25c0,1.108.17,1.954.52,2.54s.89.879,1.61.879Z" fill="#8c89b4" stroke-width="0"/></g><g><path d="M412.29,67c0,0-2.01,0-2.01,0s-1.07-2.988-1.07-2.988-5.04,0-5.04,0-1.05,2.988-1.05,2.988-1.96,0-1.96,0s4.54-12.604,4.54-12.604s2,0,2,0s4.59,12.604,4.59,12.604Z" fill="#8c89b4" stroke-width="0"/><path d="M408.63,62.324c0,0-1.96-5.616-1.96-5.616s-1.92,5.616-1.92,5.616s3.88,0,3.88,0Z" fill="#8c89b4" stroke-width="0"/><path d="M420.17,67c0,0,0-.896,0-.896-.23.322-.56.585-.98.791-.42.205-.89.307-1.4.307-1.1,0-1.94-.354-2.51-1.063s-.85-1.767-.85-3.173c0,0,0-5.414,0-5.414s1.85,0,1.85,0s0,5.344,0,5.344c0,.867.15,1.517.46,1.951.31.427.81.641,1.49.641.62,0,1.1-.208,1.44-.624.33-.422.5-1.016.5-1.784c0,0,0-5.528,0-5.528s1.86,0,1.86,0s0,9.448,0,9.448-1.86,0-1.86,0Z" fill="#8c89b4" stroke-width="0"/><path d="M432.29,66.104c0,.65-.06,1.221-.2,1.713-.13.498-.34.929-.64,1.292-.37.44-.87.774-1.51,1.002-.64.229-1.45.355-2.44.378c0,0-.53-1.511-.53-1.511.72-.024,1.34-.103,1.87-.238s.91-.325,1.12-.571c.19-.205.32-.466.38-.782.07-.311.1-.686.1-1.125c0,0,0-.158,0-.158-.17.158-.35.304-.54.439-.18.129-.37.243-.58.343-.2.099-.41.176-.63.228-.22.059-.46.088-.7.088-.51,0-.98-.094-1.42-.281-.44-.193-.82-.495-1.15-.905-.33-.411-.59-.935-.78-1.574-.19-.644-.28-1.418-.28-2.32c0-.809.1-1.512.31-2.109.2-.604.47-1.102.81-1.494.35-.393.74-.686,1.19-.879.45-.194.92-.29,1.41-.29.24,0,.47.029.7.088.23.058.44.137.64.237.21.099.39.217.56.351.18.129.33.264.46.405c0,0,0-.879,0-.879s1.85,0,1.85,0s0,8.552,0,8.552Z" fill="#8c89b4" stroke-width="0"/><path d="M428.33,65.488c.4,0,.78-.108,1.13-.325.37-.217.71-.51,1.02-.879c0,0,0-3.981,0-3.981-.11-.141-.24-.284-.4-.431-.15-.146-.33-.278-.52-.395-.19-.123-.4-.223-.62-.299s-.44-.115-.68-.115c-.67,0-1.19.252-1.54.756-.34.498-.52,1.248-.52,2.25c0,1.108.18,1.954.52,2.54.35.586.89.879,1.61.879Z" fill="#8c89b4" stroke-width="0"/></g><g><path d="M478.38,67c0,0-2.02,0-2.02,0s-1.06-2.988-1.06-2.988-5.04,0-5.04,0-1.05,2.988-1.05,2.988-1.96,0-1.96,0s4.54-12.604,4.54-12.604s2,0,2,0s4.59,12.604,4.59,12.604Z" fill="#8c89b4" stroke-width="0"/><path d="M474.72,62.324c0,0-1.96-5.616-1.96-5.616s-1.92,5.616-1.92,5.616s3.88,0,3.88,0Z" fill="#8c89b4" stroke-width="0"/><path d="M486.26,67c0,0,0-.896,0-.896-.23.322-.56.585-.98.791-.43.205-.89.307-1.4.307-1.1,0-1.94-.354-2.51-1.063s-.86-1.767-.86-3.173c0,0,0-5.414,0-5.414s1.86,0,1.86,0s0,5.344,0,5.344c0,.867.15,1.517.45,1.951.31.427.81.641,1.5.641.62,0,1.1-.208,1.43-.624.34-.422.51-1.016.51-1.784c0,0,0-5.528,0-5.528s1.86,0,1.86,0s0,9.448,0,9.448-1.86,0-1.86,0Z" fill="#8c89b4" stroke-width="0"/><path d="M498.38,66.104c0,.65-.07,1.221-.2,1.713-.13.498-.34.929-.64,1.292-.37.44-.88.774-1.51,1.002-.64.229-1.45.355-2.44.378c0,0-.54-1.511-.54-1.511.73-.024,1.35-.103,1.88-.238s.9-.325,1.11-.571c.2-.205.33-.466.39-.782.06-.311.1-.686.1-1.125c0,0,0-.158,0-.158-.17.158-.35.304-.54.439-.18.129-.37.243-.58.343-.2.099-.41.176-.63.228-.23.059-.46.088-.71.088-.5,0-.97-.094-1.41-.281-.44-.193-.82-.495-1.15-.905-.33-.411-.59-.935-.78-1.574-.19-.644-.29-1.418-.29-2.32c0-.809.11-1.512.31-2.109.21-.604.48-1.102.82-1.494.35-.393.74-.686,1.19-.879.45-.194.92-.29,1.4-.29.24,0,.48.029.71.088.22.058.44.137.64.237.2.099.39.217.56.351.18.129.33.264.46.405c0,0,0-.879,0-.879s1.85,0,1.85,0s0,8.552,0,8.552Z" fill="#8c89b4" stroke-width="0"/><path d="M494.42,65.488c.4,0,.77-.108,1.13-.325s.7-.51,1.01-.879c0,0,0-3.981,0-3.981-.1-.141-.24-.284-.39-.431-.16-.146-.33-.278-.52-.395-.2-.123-.4-.223-.63-.299-.21-.076-.44-.115-.67-.115-.68,0-1.19.252-1.54.756-.35.498-.52,1.248-.52,2.25c0,1.108.17,1.954.52,2.54s.89.879,1.61.879Z" fill="#8c89b4" stroke-width="0"/></g><g><path d="M544.47,67c0,0-2.01,0-2.01,0s-1.07-2.988-1.07-2.988-5.04,0-5.04,0-1.05,2.988-1.05,2.988-1.96,0-1.96,0s4.54-12.604,4.54-12.604s2,0,2,0s4.59,12.604,4.59,12.604Z" fill="#8c89b4" stroke-width="0"/><path d="M540.81,62.324c0,0-1.96-5.616-1.96-5.616s-1.92,5.616-1.92,5.616s3.88,0,3.88,0Z" fill="#8c89b4" stroke-width="0"/><path d="M552.35,67c0,0,0-.896,0-.896-.23.322-.56.585-.98.791-.42.205-.89.307-1.4.307-1.1,0-1.94-.354-2.51-1.063s-.85-1.767-.85-3.173c0,0,0-5.414,0-5.414s1.85,0,1.85,0s0,5.344,0,5.344c0,.867.15,1.517.46,1.951.31.427.81.641,1.49.641.62,0,1.1-.208,1.43-.624.34-.422.51-1.016.51-1.784c0,0,0-5.528,0-5.528s1.86,0,1.86,0s0,9.448,0,9.448-1.86,0-1.86,0Z" fill="#8c89b4" stroke-width="0"/><path d="M564.47,66.104c0,.65-.06,1.221-.2,1.713-.13.498-.34.929-.64,1.292-.37.44-.87.774-1.51,1.002-.64.229-1.45.355-2.44.378c0,0-.53-1.511-.53-1.511.72-.024,1.34-.103,1.87-.238s.91-.325,1.12-.571c.19-.205.32-.466.38-.782.07-.311.1-.686.1-1.125c0,0,0-.158,0-.158-.17.158-.35.304-.54.439-.18.129-.37.243-.58.343-.2.099-.41.176-.63.228-.22.059-.46.088-.7.088-.51,0-.98-.094-1.42-.281-.44-.193-.82-.495-1.15-.905-.33-.411-.59-.935-.78-1.574-.19-.644-.28-1.418-.28-2.32c0-.809.1-1.512.31-2.109.2-.604.47-1.102.81-1.494.35-.393.74-.686,1.19-.879.45-.194.92-.29,1.41-.29.24,0,.47.029.7.088.23.058.44.137.64.237.21.099.39.217.56.351.18.129.33.264.46.405c0,0,0-.879,0-.879s1.85,0,1.85,0s0,8.552,0,8.552Z" fill="#8c89b4" stroke-width="0"/><path d="M560.51,65.488c.4,0,.78-.108,1.13-.325.37-.217.7-.51,1.02-.879c0,0,0-3.981,0-3.981-.11-.141-.24-.284-.4-.431-.15-.146-.33-.278-.52-.395-.19-.123-.4-.223-.62-.299s-.45-.115-.68-.115c-.67,0-1.19.252-1.54.756-.34.498-.52,1.248-.52,2.25c0,1.108.18,1.954.52,2.54.35.586.89.879,1.61.879Z" fill="#8c89b4" stroke-width="0"/></g></g></g></g><g transform="matrix(1.27 0 0 1.27 669.231 298.967)"><g id="eh0VAfqQ1UX271_ts" transform="translate(31.038,171.035) scale(1,0)"><g id="eh0VAfqQ1UX271" transform="translate(-196.77,-39.002)" opacity="0"><g><path d="M-159.961,-100.689c0-2.465,1.998-4.463,4.463-4.463s4.463,1.998,4.463,4.463c0,0,0,139.688,0,139.688s-8.926,0-8.926,0s0-139.688,0-139.688Z" fill="#b4ff00" stroke-width="0"/></g><g><path d="M-96.867,-47.478c0-2.465,1.998-4.463,4.463-4.463s4.463,1.998,4.463,4.463c0,0,0,86.478,0,86.478s-8.926,0-8.926,0s0-86.478,0-86.478Z" fill="#b4ff00" stroke-width="0"/></g><g><path d="M-33.781,-63.924c0-2.465,1.998-4.463,4.463-4.463s4.463,1.998,4.463,4.463c0,0,0,102.925,0,102.925s-8.926,0-8.926,0s0-102.925,0-102.925Z" fill="#b4ff00" stroke-width="0"/></g><g><path d="M28.312,-100.689c0-2.465,1.999-4.463,4.463-4.463c2.465,0,4.463,1.998,4.463,4.463c0,0,0,139.688,0,139.688s-8.926,0-8.926,0s0-139.688,0-139.688Z" fill="#b4ff00" stroke-width="0"/></g><g><path d="M91.906,-125.842c0-2.465,1.998-4.463,4.463-4.463s4.463,1.998,4.463,4.463c0,0,0,164.842,0,164.842s-8.926,0-8.926,0s0-164.842,0-164.842Z" fill="#b4ff00" stroke-width="0"/></g><g><path d="M157.492,-25.225c0-2.464,1.998-4.463,4.463-4.463s4.463,1.999,4.463,4.463c0,0,0,64.227,0,64.227s-8.926,0-8.926,0s0-64.227,0-64.227Z" fill="#b4ff00" stroke-width="0"/></g><g><path d="M218.547,-68.5c0-2.485,2.015-4.5,4.5-4.5s4.5,2.015,4.5,4.5c0,0,0,107.5,0,107.5s-9,0-9,0s0-107.5,0-107.5Z" fill="#b4ff00" stroke-width="0"/></g><g><path d="M280.633,-51.5c0-2.485,2.015-4.5,4.5-4.5s4.5,2.015,4.5,4.5c0,0,0,90.5,0,90.5s-9,0-9,0s0-90.5,0-90.5Z" fill="#b4ff00" stroke-width="0"/></g><g><path d="M346.73,-120.5c0-2.485,2.01-4.5,4.5-4.5c2.48,0,4.5,2.015,4.5,4.5c0,0,0,159.5,0,159.5s-9,0-9,0s0-159.5,0-159.5Z" fill="#b4ff00" stroke-width="0"/></g><g><path d="M412.82,-93.5c0-2.485,2.02-4.5,4.5-4.5c2.49,0,4.5,2.015,4.5,4.5c0,0,0,132.5,0,132.5s-9,0-9,0s0-132.5,0-132.5Z" fill="#b4ff00" stroke-width="0"/></g><g><path d="M478.95,-25.225c0-2.464,1.99-4.463,4.46-4.463c2.46,0,4.46,1.999,4.46,4.463c0,0,0,64.227,0,64.227s-8.92,0-8.92,0s0-64.227,0-64.227Z" fill="#b4ff00" stroke-width="0"/></g><g><path d="M545.5,-152c0-2.209,1.79-4,4-4s4,1.791,4,4c0,0,0,191,0,191s-8,0-8,0s0-191,0-191Z" fill="#b4ff00" stroke-width="0"/></g></g></g></g></svg>
